{
.appVersion = "3436";
.formatVersion = 3;
DisplayStrings = (
"the quick brown fox jumps over the lazy dog
THE QUICK BROWN FOX JUMPS OVER THE LAZY DOG
съешь же ещё этих мягких французских булок да выпей
СЪЕШЬ ЖЕ ЕЩЁ ЭТИХ МЯГКИХ ФРАНЦУЗСКИХ БУЛОК ДА ВЫПЕЙ",
gospassport,
"the quick brown fox jumped over the lazy dogs voyez le brick gant que jexamine prs du wharf
n/Placeholder n/Placeholder n/Placeholder n/Placeholder n/Placeholder n/Placeholder n/Placeholder n/Placeholder n
o/Placeholder o/Placeholder o/Placeholder o/Placeholder o/Placeholder o/Placeholder o/Placeholder o/Placeholder o",

glyphs = (
{
color = 5;
glyphname = A;
lastChange = "2024-10-21 11:40:47 +0000";
layers = (
{
layerId = m01;
shapes = (
{
closed = 1;
nodes = (
(8,0,l),
(179,0,l),
(243,796,l),
(213,796,l),
(304,0,l),
(508,0,l),
(410,820,l),
(98,820,l)
);
},
{
closed = 1;
nodes = (
(126,203,l),
(365,203,l),
(365,343,l),
(126,343,l)
);
}
);
width = 516;
},
{
layerId = m002;
shapes = (
{
closed = 1;
nodes = (
(6,0,l),
(56,0,l),
(121,796,l),
(110,796,l),
(181,0,l),
(234,0,l),
(160,820,l),
(73,820,l)
);
},
{
closed = 1;
nodes = (
(61,291,l),
(169,291,l),
(169,331,l),
(61,331,l)
);
}
);
width = 247;
}
);
unicode = 65;
},
{
color = 5;
glyphname = B;
lastChange = "2024-10-20 20:25:54 +0000";
layers = (
{
layerId = m01;
shapes = (
{
closed = 1;
nodes = (
(226,118,l),
(226,693,l),
(192,660,l),
(260,660,ls),
(279,660,o),
(296,652,o),
(296,613,cs),
(296,562,ls),
(296,523,o),
(279,515,o),
(260,515,cs),
(202,515,l),
(202,385,l),
(270,385,ls),
(289,385,o),
(316,368,o),
(316,329,cs),
(316,218,ls),
(316,175,o),
(299,160,o),
(263,160,cs),
(199,160,l)
);
},
{
closed = 1;
nodes = (
(280,0,ls),
(372,0,o),
(520,10,o),
(520,158,cs),
(520,339,ls),
(520,442,o),
(436,472,o),
(387,472,c),
(387,444,l),
(436,444,o),
(500,472,o),
(500,553,cs),
(500,662,ls),
(500,810,o),
(352,820,o),
(260,820,cs),
(26,820,l),
(26,0,l)
);
}
);
width = 530;
},
{
layerId = m002;
shapes = (
{
closed = 1;
nodes = (
(80,23,l),
(80,794,l),
(54,780,l),
(132,780,ls),
(160,780,o),
(177,772,o),
(177,727,cs),
(177,504,ls),
(177,462,o),
(160,454,o),
(132,454,cs),
(64,454,l),
(64,414,l),
(142,414,ls),
(170,414,o),
(190,397,o),
(190,355,cs),
(190,104,ls),
(190,55,o),
(180,40,o),
(135,40,cs),
(61,40,l)
);
},
{
closed = 1;
nodes = (
(132,0,ls),
(230,0,o),
(243,61,o),
(243,116,cs),
(243,360,ls),
(243,429,o),
(175,444,o),
(126,444,c),
(126,426,l),
(175,426,o),
(230,442,o),
(230,513,cs),
(230,727,ls),
(230,775,o),
(218,820,o),
(132,820,cs),
(28,820,l),
(28,0,l)
);
}
);
width = 261;
}
);
metricLeft = "=H";
unicode = 66;
},
{
color = 5;
glyphname = C;
lastChange = "2024-10-20 19:49:18 +0000";
layers = (
{
layerId = m01;
shapes = (
{
closed = 1;
nodes = (
(340,-10,o),
(484,0,o),
(484,158,cs),
(484,411,l),
(284,411,l),
(284,201,ls),
(284,162,o),
(267,154,o),
(248,154,cs),
(229,154,o),
(214,162,o),
(214,201,cs),
(214,619,ls),
(214,658,o),
(229,666,o),
(248,666,cs),
(267,666,o),
(284,658,o),
(284,619,cs),
(284,496,l),
(484,496,l),
(484,662,ls),
(484,820,o),
(340,830,o),
(248,830,cs),
(156,830,o),
(14,820,o),
(14,662,cs),
(14,158,ls),
(14,0,o),
(156,-10,o),
(248,-10,cs)
);
}
);
width = 498;
},
{
layerId = m002;
shapes = (
{
closed = 1;
nodes = (
(153,-10,o),
(208,0,o),
(208,80,cs),
(208,343,l),
(155,343,l),
(155,95,ls),
(155,41,o),
(140,30,o),
(110,30,cs),
(80,30,o),
(65,41,o),
(65,95,cs),
(65,725,ls),
(65,779,o),
(80,790,o),
(110,790,cs),
(140,790,o),
(155,779,o),
(155,725,cs),
(155,556,l),
(208,556,l),
(208,740,ls),
(208,820,o),
(153,830,o),
(110,830,cs),
(67,830,o),
(12,820,o),
(12,740,cs),
(12,80,ls),
(12,0,o),
(67,-10,o),
(110,-10,cs)
);
}
);
width = 220;
}
);
metricLeft = "=O";
metricRight = "=O";
unicode = 67;
},
{
color = 5;
glyphname = D;
kernLeft = H;
lastChange = "2024-10-30 16:14:54 +0000";
layers = (
{
layerId = m01;
shapes = (
{
closed = 1;
nodes = (
(264,0,ls),
(356,0,o),
(504,10,o),
(504,158,cs),
(504,662,ls),
(504,810,o),
(356,820,o),
(264,820,cs),
(26,820,l),
(26,0,l)
);
},
{
closed = 1;
nodes = (
(230,695,l),
(198,660,l),
(264,660,ls),
(283,660,o),
(300,652,o),
(300,613,cs),
(300,207,ls),
(300,168,o),
(283,160,o),
(264,160,cs),
(209,160,l),
(230,148,l)
);
}
);
width = 518;
},
{
layerId = m002;
shapes = (
{
closed = 1;
nodes = (
(88,0,ls),
(180,0,o),
(232,29,o),
(232,129,cs),
(232,703,ls),
(232,805,o),
(189,820,o),
(88,820,cs),
(28,820,l),
(28,0,l)
);
},
{
closed = 1;
nodes = (
(80,799,l),
(55,780,l),
(114,780,ls),
(152,780,o),
(179,772,o),
(179,716,cs),
(179,114,ls),
(179,46,o),
(152,40,o),
(114,40,cs),
(57,40,l),
(80,23,l)
);
}
);
width = 244;
}
);
metricLeft = "=H";
metricRight = "=O";
unicode = 68;
},
{
color = 5;
glyphname = E;
kernLeft = H;
lastChange = "2024-10-30 16:14:54 +0000";
layers = (
{
anchors = (
{
name = top;
pos = (200,820);
}
);
layerId = m01;
shapes = (
{
closed = 1;
nodes = (
(392,0,l),
(392,160,l),
(175,160,l),
(226,116,l),
(226,379,l),
(179,343,l),
(360,343,l),
(360,503,l),
(180,503,l),
(226,460,l),
(226,695,l),
(182,660,l),
(390,660,l),
(390,820,l),
(26,820,l),
(26,0,l)
);
}
);
width = 400;
},
{
anchors = (
{
name = top;
pos = (139,820);
}
);
layerId = m002;
shapes = (
{
closed = 1;
nodes = (
(230,0,l),
(230,40,l),
(49,40,l),
(80,22,l),
(80,465,l),
(53,453,l),
(198,453,l),
(198,493,l),
(54,493,l),
(80,478,l),
(80,809,l),
(56,780,l),
(228,780,l),
(228,820,l),
(28,820,l),
(28,0,l)
);
}
);
width = 240;
}
);
metricLeft = "=H";
unicode = 69;
},
{
color = 5;
glyphname = F;
kernLeft = H;
lastChange = "2024-10-30 16:14:54 +0000";
layers = (
{
layerId = m01;
shapes = (
{
closed = 1;
nodes = (
(226,0,l),
(226,676,l),
(208,660,l),
(390,660,l),
(390,820,l),
(26,820,l),
(26,0,l)
);
},
{
closed = 1;
nodes = (
(360,343,l),
(360,503,l),
(43,503,l),
(43,343,l)
);
}
);
width = 400;
},
{
layerId = m002;
shapes = (
{
closed = 1;
nodes = (
(80,0,l),
(80,789,l),
(73,780,l),
(235,780,l),
(235,820,l),
(28,820,l),
(28,0,l)
);
},
{
closed = 1;
nodes = (
(220,454,l),
(220,494,l),
(64,494,l),
(64,454,l)
);
}
);
width = 245;
}
);
metricLeft = "=H";
metricRight = "=L";
unicode = 70;
},
{
color = 5;
glyphname = G;
lastChange = "2024-10-20 20:06:08 +0000";
layers = (
{
layerId = m01;
shapes = (
{
closed = 1;
nodes = (
(237,-10,o),
(287,23,o),
(304,48,c),
(304,144,l),
(285,144,o),
(267,144,o),
(252,148,cs),
(232,154,o),
(218,167,o),
(218,198,cs),
(218,619,ls),
(218,658,o),
(233,666,o),
(252,666,cs),
(271,666,o),
(288,658,o),
(288,619,cs),
(288,496,l),
(492,496,l),
(492,662,ls),
(492,820,o),
(344,830,o),
(252,830,cs),
(160,830,o),
(14,820,o),
(14,662,cs),
(14,148,ls),
(14,45,o),
(91,-10,o),
(180,-10,cs)
);
},
{
closed = 1;
nodes = (
(492,0,l),
(492,411,l),
(254,411,l),
(254,261,l),
(337,261,l),
(292,296,l),
(292,50,l),
(348,0,l)
);
}
);
width = 506;
},
{
layerId = m002;
shapes = (
{
closed = 1;
nodes = (
(149,-10,o),
(175,15,o),
(195,52,c),
(177,71,l),
(174,50,o),
(144,30,o),
(119,30,cs),
(80,30,o),
(65,41,o),
(65,95,cs),
(65,739,ls),
(65,779,o),
(80,790,o),
(119,790,cs),
(158,790,o),
(173,779,o),
(173,739,cs),
(173,556,l),
(226,556,l),
(226,740,ls),
(226,820,o),
(162,830,o),
(119,830,cs),
(76,830,o),
(12,820,o),
(12,740,cs),
(12,80,ls),
(12,0,o),
(65,-10,o),
(99,-10,cs)
);
},
{
closed = 1;
nodes = (
(226,0,l),
(226,411,l),
(128,411,l),
(128,371,l),
(191,371,l),
(174,380,l),
(174,50,l),
(198,0,l)
);
}
);
width = 238;
}
);
metricLeft = "=O";
metricRight = "=O";
unicode = 71;
},
{
color = 5;
glyphname = H;
kernLeft = H;
lastChange = "2024-10-30 16:16:21 +0000";
layers = (
{
layerId = m01;
shapes = (
{
closed = 1;
nodes = (
(296,406,l),
(296,0,l),
(496,0,l),
(496,820,l),
(296,820,l),
(296,533,l),
(313,550,l),
(216,550,l),
(226,534,l),
(226,820,l),
(26,820,l),
(26,0,l),
(226,0,l),
(226,403,l),
(216,390,l),
(312,390,l)
);
}
);
width = 522;
},
{
layerId = m002;
shapes = (
{
closed = 1;
nodes = (
(178,470,l),
(178,0,l),
(230,0,l),
(230,820,l),
(178,820,l),
(178,477,l),
(195,494,l),
(70,494,l),
(80,478,l),
(80,820,l),
(28,820,l),
(28,0,l),
(80,0,l),
(80,467,l),
(70,454,l),
(194,454,l)
);
}
);
width = 258;
}
);
unicode = 72;
},
{
color = 5;
glyphname = I;
kernLeft = H;
lastChange = "2024-10-30 16:14:54 +0000";
layers = (
{
layerId = m01;
shapes = (
{
closed = 1;
nodes = (
(26,0,l),
(226,0,l),
(226,820,l),
(26,820,l)
);
}
);
width = 252;
},
{
layerId = m002;
shapes = (
{
closed = 1;
nodes = (
(28,0,l),
(80,0,l),
(80,820,l),
(28,820,l)
);
}
);
width = 108;
}
);
metricLeft = "=H";
metricRight = "=H";
unicode = 73;
},
{
color = 5;
glyphname = J;
lastChange = "2025-04-25 19:36:09 +0000";
layers = (
{
layerId = m01;
shapes = (
{
closed = 1;
nodes = (
(6,0,ls),
(180,0,o),
(230,57,o),
(230,201,cs),
(230,820,l),
(30,820,l),
(30,188,ls),
(30,140,o),
(2,127,o),
(-48,127,cs),
(-60,127,l),
(-60,0,l)
);
}
);
width = 256;
},
{
layerId = m002;
shapes = (
{
closed = 1;
nodes = (
(2,0,o),
(17,0,o),
(30,0,cs),
(82,0,o),
(116,40,o),
(116,99,cs),
(116,820,l),
(64,820,l),
(64,99,ls),
(64,64,o),
(53,46,o),
(13,46,cs),
(5,46,o),
(-4,47,o),
(-8,49,c),
(-8,1,l)
);
}
);
width = 144;
}
);
metricRight = "=H";
unicode = 74;
},
{
color = 5;
glyphname = K;
kernLeft = H;
lastChange = "2024-10-30 16:14:54 +0000";
layers = (
{
layerId = m01;
shapes = (
{
closed = 1;
nodes = (
(26,0,l),
(226,0,l),
(226,820,l),
(26,820,l)
);
},
{
closed = 1;
nodes = (
(334,0,l),
(551,0,l),
(400,472,l),
(376,367,l),
(521,820,l),
(330,820,l),
(198,367,l),
(203,474,l)
);
}
);
width = 560;
},
{
layerId = m002;
shapes = (
{
closed = 1;
nodes = (
(28,0,l),
(80,0,l),
(80,820,l),
(28,820,l)
);
},
{
closed = 1;
nodes = (
(203,0,l),
(258,0,l),
(122,479,l),
(123,423,l),
(238,820,l),
(186,820,l),
(56,367,l),
(68,474,l)
);
}
);
width = 259;
}
);
metricLeft = "=H";
unicode = 75;
},
{
color = 5;
glyphname = L;
kernLeft = H;
lastChange = "2024-10-30 16:14:54 +0000";
layers = (
{
layerId = m01;
shapes = (
{
closed = 1;
nodes = (
(400,0,l),
(400,160,l),
(188,160,l),
(226,122,l),
(226,820,l),
(26,820,l),
(26,0,l)
);
}
);
width = 410;
},
{
layerId = m002;
shapes = (
{
closed = 1;
nodes = (
(214,0,l),
(214,40,l),
(42,40,l),
(80,18,l),
(80,820,l),
(28,820,l),
(28,0,l)
);
}
);
width = 224;
}
);
metricLeft = "=H";
unicode = 76;
},
{
color = 6;
glyphname = M;
kernLeft = H;
lastChange = "2024-10-30 16:14:54 +0000";
layers = (
{
layerId = m01;
shapes = (
{
closed = 1;
nodes = (
(402,0,l),
(517,653,l),
(490,653,l),
(490,0,l),
(660,0,l),
(660,820,l),
(430,820,l),
(339,180,l),
(383,180,l),
(280,820,l),
(26,820,l),
(26,0,l),
(196,0,l),
(196,653,l),
(169,653,l),
(281,0,l)
);
}
);
width = 686;
},
{
layerId = m002;
shapes = (
{
closed = 1;
nodes = (
(224,0,l),
(301,702,l),
(294,702,l),
(293,0,l),
(345,0,l),
(345,820,l),
(269,820,l),
(186,31,l),
(195,28,l),
(106,820,l),
(28,820,l),
(28,0,l),
(80,0,l),
(79,702,l),
(73,702,l),
(146,0,l)
);
}
);
width = 373;
}
);
metricLeft = "=H";
metricRight = "=H";
unicode = 77;
},
{
color = 6;
glyphname = N;
kernLeft = H;
lastChange = "2024-10-30 16:14:54 +0000";
layers = (
{
layerId = m01;
shapes = (
{
closed = 1;
nodes = (
(26,820,l),
(26,0,l),
(206,0,l),
(206,513,l),
(150,617,l),
(306,0,l),
(486,0,l),
(486,820,l),
(306,820,l),
(306,303,l),
(350,211,l),
(206,820,l)
);
}
);
width = 512;
},
{
layerId = m002;
shapes = (
{
closed = 1;
nodes = (
(28,820,l),
(28,0,l),
(80,0,l),
(78,730,l),
(67,720,l),
(166,0,l),
(232,0,l),
(232,820,l),
(180,820,l),
(182,116,l),
(197,93,l),
(101,820,l)
);
}
);
width = 260;
}
);
metricLeft = "=H";
metricRight = "=H";
unicode = 78;
},
{
color = 5;
glyphname = O;
lastChange = "2024-10-20 19:51:34 +0000";
layers = (
{
layerId = m01;
shapes = (
{
closed = 1;
nodes = (
(340,-10,o),
(484,1,o),
(484,148,cs),
(484,662,ls),
(484,820,o),
(340,830,o),
(248,830,cs),
(156,830,o),
(14,820,o),
(14,662,cs),
(14,148,ls),
(14,1,o),
(156,-10,o),
(248,-10,cs)
);
},
{
closed = 1;
nodes = (
(234,154,o),
(214,158,o),
(214,201,cs),
(214,619,ls),
(214,658,o),
(229,666,o),
(248,666,cs),
(267,666,o),
(284,658,o),
(284,619,cs),
(284,201,ls),
(284,158,o),
(262,154,o),
(248,154,cs)
);
}
);
width = 498;
},
{
layerId = m002;
shapes = (
{
closed = 1;
nodes = (
(162,-10,o),
(226,0,o),
(226,80,cs),
(226,740,ls),
(226,820,o),
(162,830,o),
(119,830,cs),
(76,830,o),
(12,820,o),
(12,740,cs),
(12,80,ls),
(12,0,o),
(76,-10,o),
(119,-10,cs)
);
},
{
closed = 1;
nodes = (
(80,30,o),
(65,41,o),
(65,95,cs),
(65,725,ls),
(65,779,o),
(80,790,o),
(119,790,cs),
(158,790,o),
(173,779,o),
(173,725,cs),
(173,95,ls),
(173,41,o),
(158,30,o),
(119,30,cs)
);
}
);
width = 238;
}
);
unicode = 79;
},
{
color = 5;
glyphname = P;
kernLeft = H;
lastChange = "2024-10-30 16:14:54 +0000";
layers = (
{
layerId = m01;
shapes = (
{
closed = 1;
nodes = (
(226,0,l),
(226,693,l),
(192,660,l),
(260,660,ls),
(279,660,o),
(296,652,o),
(296,613,cs),
(296,441,ls),
(296,402,o),
(279,394,o),
(260,394,cs),
(202,394,l),
(202,234,l),
(340,234,ls),
(433,234,o),
(500,287,o),
(500,385,cs),
(500,662,ls),
(500,810,o),
(352,820,o),
(260,820,cs),
(26,820,l),
(26,0,l)
);
}
);
width = 510;
},
{
layerId = m002;
shapes = (
{
closed = 1;
nodes = (
(80,0,l),
(80,797,l),
(46,780,l),
(133,780,ls),
(162,780,o),
(179,772,o),
(179,713,cs),
(179,508,ls),
(179,459,o),
(162,451,o),
(133,451,cs),
(56,451,l),
(56,411,l),
(129,411,ls),
(232,411,o),
(232,464,o),
(232,572,cs),
(232,698,ls),
(232,792,o),
(207,820,o),
(124,820,cs),
(28,820,l),
(28,0,l)
);
}
);
width = 242;
}
);
metricLeft = "=H";
unicode = 80;
},
{
color = 5;
glyphname = Q;
lastChange = "2024-10-20 20:13:28 +0000";
layers = (
{
layerId = m01;
shapes = (
{
closed = 1;
nodes = (
(344,-10,o),
(492,1,o),
(492,148,cs),
(492,662,ls),
(492,820,o),
(344,830,o),
(252,830,cs),
(160,830,o),
(14,820,o),
(14,662,cs),
(14,148,ls),
(14,1,o),
(160,-10,o),
(252,-10,cs)
);
},
{
closed = 1;
nodes = (
(406,-120,l),
(300,66,l),
(157,66,l),
(238,-120,l)
);
},
{
closed = 1;
nodes = (
(238,154,o),
(218,158,o),
(218,201,cs),
(218,619,ls),
(218,658,o),
(233,666,o),
(252,666,cs),
(271,666,o),
(288,658,o),
(288,619,cs),
(288,201,ls),
(288,158,o),
(266,154,o),
(252,154,cs)
);
}
);
width = 506;
},
{
layerId = m002;
shapes = (
{
closed = 1;
nodes = (
(162,-10,o),
(226,0,o),
(226,80,cs),
(226,740,ls),
(226,820,o),
(162,830,o),
(119,830,cs),
(76,830,o),
(12,820,o),
(12,740,cs),
(12,80,ls),
(12,0,o),
(76,-10,o),
(119,-10,cs)
);
},
{
closed = 1;
nodes = (
(205,-120,l),
(135,17,l),
(98,17,l),
(143,-120,l)
);
},
{
closed = 1;
nodes = (
(80,30,o),
(65,41,o),
(65,95,cs),
(65,725,ls),
(65,779,o),
(80,790,o),
(119,790,cs),
(158,790,o),
(173,779,o),
(173,725,cs),
(173,95,ls),
(173,41,o),
(158,30,o),
(119,30,cs)
);
}
);
width = 238;
}
);
metricLeft = "=O";
metricRight = "=O";
unicode = 81;
},
{
color = 5;
glyphname = R;
kernLeft = H;
lastChange = "2024-10-30 16:14:54 +0000";
layers = (
{
layerId = m01;
shapes = (
{
closed = 1;
nodes = (
(226,0,l),
(226,239,l),
(201,220,l),
(260,220,ls),
(352,220,o),
(500,230,o),
(500,378,cs),
(500,662,ls),
(500,810,o),
(352,820,o),
(260,820,cs),
(26,820,l),
(26,0,l)
);
},
{
closed = 1;
nodes = (
(501,0,l),
(412,315,l),
(240,310,l),
(317,0,l)
);
},
{
closed = 1;
nodes = (
(226,686,l),
(194,660,l),
(260,660,ls),
(279,660,o),
(296,652,o),
(296,613,cs),
(296,417,ls),
(296,378,o),
(279,370,o),
(260,370,cs),
(206,370,l),
(226,352,l)
);
}
);
width = 511;
},
{
layerId = m002;
shapes = (
{
closed = 1;
nodes = (
(80,0,l),
(80,423,l),
(75,411,l),
(100,411,ls),
(205,411,o),
(232,445,o),
(232,516,cs),
(232,698,ls),
(232,786,o),
(210,820,o),
(100,820,cs),
(28,820,l),
(28,0,l)
);
},
{
closed = 1;
nodes = (
(245,0,l),
(159,446,l),
(109,436,l),
(189,0,l)
);
},
{
closed = 1;
nodes = (
(80,794,l),
(69,780,l),
(106,780,ls),
(160,780,o),
(179,767,o),
(179,732,cs),
(179,503,ls),
(179,460,o),
(153,451,o),
(107,451,cs),
(73,451,l),
(80,443,l)
);
}
);
width = 255;
}
);
metricLeft = "=H";
metricRight = "=P";
unicode = 82;
},
{
color = 4;
glyphname = S;
lastChange = "2024-10-20 20:02:44 +0000";
layers = (
{
layerId = m01;
shapes = (
{
closed = 1;
nodes = (
(430,-10,o),
(493,90,o),
(493,193,cs),
(493,243,ls),
(493,443,o),
(218,506,o),
(218,621,cs),
(218,639,ls),
(218,667,o),
(228,675,o),
(248,675,cs),
(289,675,o),
(300,651,o),
(300,598,c),
(486,598,l),
(486,622,ls),
(486,790,o),
(395,830,o),
(248,830,cs),
(116,830,o),
(17,772,o),
(17,655,cs),
(17,603,ls),
(17,429,o),
(286,328,o),
(286,227,cs),
(286,208,ls),
(286,169,o),
(275,150,o),
(251,150,cs),
(211,150,o),
(202,181,o),
(202,284,c),
(14,284,l),
(14,170,ls),
(14,48,o),
(121,-10,o),
(260,-10,cs)
);
}
);
width = 507;
},
{
associatedMasterId = m01;
layerId = "0FB451D1-E00F-4967-A51D-448903134F3E";
name = "27 Apr 24 at 12:45";
shapes = (
{
closed = 1;
nodes = (
(20,464,o),
(287,274,o),
(287,193,cs),
(287,164,o),
(278,150,o),
(254,150,cs),
(214,150,o),
(205,179,o),
(205,255,c),
(15,255,l),
(15,170,ls),
(15,48,o),
(124,-10,o),
(263,-10,cs),
(433,-10,o),
(496,73,o),
(496,221,cs),
(496,380,o),
(221,573,o),
(221,639,cs),
(221,667,o),
(231,675,o),
(251,675,cs),
(292,675,o),
(303,651,o),
(303,598,c),
(493,598,l),
(493,786,o),
(405,830,o),
(251,830,cs),
(119,830,o),
(20,786,o),
(20,641,cs)
);
}
);
width = 506;
},
{
layerId = m002;
shapes = (
{
closed = 1;
nodes = (
(202,-10,o),
(219,53,o),
(219,124,cs),
(219,138,ls),
(219,261,o),
(75,545,o),
(75,676,cs),
(75,710,ls),
(75,760,o),
(83,790,o),
(116,790,cs),
(162,790,o),
(166,760,o),
(166,646,c),
(218,646,l),
(218,714,ls),
(218,784,o),
(180,830,o),
(122,830,cs),
(30,830,o),
(22,755,o),
(22,707,cs),
(22,668,ls),
(22,534,o),
(166,268,o),
(166,132,cs),
(166,120,ls),
(166,61,o),
(149,30,o),
(113,30,cs),
(64,30,o),
(64,88,o),
(64,284,c),
(12,284,l),
(12,184,ls),
(12,50,o),
(33,-10,o),
(114,-10,cs)
);
}
);
width = 231;
},
{
associatedMasterId = m002;
layerId = "8C3AF9F8-1D8D-4707-BB00-89EB2E914598";
name = "27 Apr 24 at 12:45";
shapes = (
{
closed = 1;
nodes = (
(20,464,o),
(287,274,o),
(287,193,cs),
(287,164,o),
(278,150,o),
(254,150,cs),
(214,150,o),
(205,179,o),
(205,255,c),
(15,255,l),
(15,170,ls),
(15,48,o),
(124,-10,o),
(263,-10,cs),
(433,-10,o),
(496,73,o),
(496,221,cs),
(496,380,o),
(221,573,o),
(221,639,cs),
(221,667,o),
(231,675,o),
(251,675,cs),
(292,675,o),
(303,651,o),
(303,598,c),
(493,598,l),
(493,786,o),
(405,830,o),
(251,830,cs),
(119,830,o),
(20,786,o),
(20,641,cs)
);
}
);
width = 506;
}
);
metricLeft = "=O";
metricRight = "=O";
unicode = 83;
},
{
color = 5;
glyphname = T;
lastChange = "2025-04-21 19:23:10 +0000";
layers = (
{
layerId = m01;
shapes = (
{
closed = 1;
nodes = (
(152,697,l),
(152,0,l),
(352,0,l),
(352,691,l),
(313,660,l),
(496,660,l),
(496,820,l),
(8,820,l),
(8,660,l),
(197,660,l)
);
}
);
width = 504;
},
{
background = {
shapes = (
{
pos = (2,0);
ref = H;
}
);
};
layerId = m002;
shapes = (
{
closed = 1;
nodes = (
(106,791,l),
(106,0,l),
(158,0,l),
(158,790,l),
(150,780,l),
(258,780,l),
(258,820,l),
(6,820,l),
(6,780,l),
(117,780,l)
);
}
);
width = 264;
}
);
metricRight = "=|";
unicode = 84;
},
{
color = 5;
glyphname = U;
lastChange = "2024-10-20 19:48:33 +0000";
layers = (
{
layerId = m01;
shapes = (
{
closed = 1;
nodes = (
(345,-10,o),
(493,1,o),
(493,148,cs),
(493,820,l),
(289,820,l),
(289,201,ls),
(289,158,o),
(267,154,o),
(253,154,cs),
(239,154,o),
(219,158,o),
(219,201,cs),
(219,820,l),
(15,820,l),
(15,148,ls),
(15,1,o),
(161,-10,o),
(253,-10,cs)
);
}
);
width = 508;
},
{
layerId = m002;
shapes = (
{
closed = 1;
nodes = (
(162,-10,o),
(220,0,o),
(220,80,cs),
(220,820,l),
(168,820,l),
(168,95,ls),
(168,41,o),
(153,30,o),
(119,30,cs),
(85,30,o),
(70,41,o),
(70,95,cs),
(70,820,l),
(18,820,l),
(18,80,ls),
(18,0,o),
(76,-10,o),
(119,-10,cs)
);
}
);
width = 238;
}
);
unicode = 85;
},
{
color = 5;
glyphname = V;
lastChange = "2024-10-20 20:00:04 +0000";
layers = (
{
layerId = m01;
shapes = (
{
closed = 1;
nodes = (
(421,0,l),
(553,820,l),
(378,820,l),
(283,75,l),
(335,34,l),
(214,820,l),
(8,820,l),
(141,0,l)
);
}
);
width = 561;
},
{
layerId = m002;
shapes = (
{
closed = 1;
nodes = (
(170,0,l),
(252,820,l),
(200,820,l),
(125,33,l),
(133,33,l),
(64,820,l),
(10,820,l),
(89,0,l)
);
}
);
width = 257;
}
);
unicode = 86;
},
{
color = 5;
glyphname = W;
lastChange = "2024-10-20 20:18:04 +0000";
layers = (
{
layerId = m01;
shapes = (
{
closed = 1;
nodes = (
(394,654,l),
(501,0,l),
(731,0,l),
(861,820,l),
(679,820,l),
(580,24,l),
(666,24,l),
(544,820,l),
(349,820,l),
(249,24,l),
(322,34,l),
(214,820,l),
(8,820,l),
(138,0,l),
(378,0,l),
(487,654,l)
);
}
);
width = 869;
},
{
layerId = m002;
shapes = (
{
closed = 1;
nodes = (
(204,716,l),
(260,0,l),
(346,0,l),
(428,820,l),
(377,820,l),
(305,33,l),
(311,33,l),
(244,820,l),
(179,820,l),
(126,33,l),
(131,33,l),
(63,820,l),
(10,820,l),
(89,0,l),
(167,0,l),
(220,716,l)
);
}
);
width = 433;
}
);
metricLeft = "=V";
metricRight = "=V";
unicode = 87;
},
{
color = 5;
glyphname = X;
lastChange = "2025-01-05 10:44:27 +0000";
layers = (
{
background = {
shapes = (
{
closed = 1;
nodes = (
(360,302,l),
(569,820,l),
(394,820,l),
(272,480,l)
);
},
{
closed = 1;
nodes = (
(321,535,l),
(231,820,l),
(16,820,l),
(242,286,l)
);
},
{
closed = 1;
nodes = (
(259,559,l),
(33,0,l),
(209,0,l),
(361,375,l)
);
},
{
closed = 1;
nodes = (
(270,334,l),
(370,0,l),
(585,0,l),
(344,569,l)
);
}
);
};
layerId = m01;
shapes = (
{
closed = 1;
nodes = (
(603,0,l),
(238,820,l),
(15,820,l),
(380,0,l)
);
},
{
closed = 1;
nodes = (
(372,302,l),
(581,820,l),
(404,820,l),
(282,480,l)
);
},
{
closed = 1;
nodes = (
(244,559,l),
(18,0,l),
(191,0,l),
(343,375,l)
);
}
);
width = 613;
},
{
background = {
shapes = (
{
closed = 1;
nodes = (
(161,397,l),
(265,820,l),
(215,820,l),
(129,453,l)
);
},
{
closed = 1;
nodes = (
(159,448,l),
(82,820,l),
(17,820,l),
(112,394,l)
);
},
{
closed = 1;
nodes = (
(109,453,l),
(5,0,l),
(55,0,l),
(148,429,l)
);
},
{
closed = 1;
nodes = (
(131,423,l),
(217,0,l),
(282,0,l),
(173,504,l)
);
}
);
};
layerId = m002;
shapes = (
{
closed = 1;
nodes = (
(283,0,l),
(60,820,l),
(5,820,l),
(228,0,l)
);
},
{
closed = 1;
nodes = (
(161,397,l),
(265,820,l),
(215,820,l),
(129,453,l)
);
},
{
closed = 1;
nodes = (
(110,454,l),
(5,0,l),
(55,0,l),
(149,430,l)
);
}
);
width = 288;
},
{
associatedMasterId = m002;
layerId = "B409C06B-963A-4DB3-B4CB-B80064CD2C6E";
name = "21 Oct 24 at 01:13";
shapes = (
{
closed = 1;
nodes = (
(161,397,l),
(265,820,l),
(215,820,l),
(129,453,l)
);
},
{
closed = 1;
nodes = (
(159,448,l),
(82,820,l),
(17,820,l),
(112,394,l)
);
},
{
closed = 1;
nodes = (
(109,453,l),
(5,0,l),
(55,0,l),
(148,429,l)
);
},
{
closed = 1;
nodes = (
(131,423,l),
(217,0,l),
(282,0,l),
(173,504,l)
);
}
);
width = 287;
},
{
associatedMasterId = m01;
layerId = "8F3D3316-55C3-4446-8CA0-DC5B2DCCF417";
name = "21 Oct 24 at 02:40";
shapes = (
{
closed = 1;
nodes = (
(349,302,l),
(558,820,l),
(383,820,l),
(261,480,l)
);
},
{
closed = 1;
nodes = (
(310,535,l),
(220,820,l),
(5,820,l),
(231,286,l)
);
},
{
closed = 1;
nodes = (
(248,559,l),
(22,0,l),
(198,0,l),
(350,375,l)
);
},
{
closed = 1;
nodes = (
(259,334,l),
(359,0,l),
(574,0,l),
(333,569,l)
);
}
);
width = 579;
},
{
associatedMasterId = m002;
background = {
shapes = (
{
closed = 1;
nodes = (
(161,397,l),
(265,820,l),
(215,820,l),
(129,453,l)
);
},
{
closed = 1;
nodes = (
(159,448,l),
(82,820,l),
(17,820,l),
(112,394,l)
);
},
{
closed = 1;
nodes = (
(109,453,l),
(5,0,l),
(55,0,l),
(148,429,l)
);
},
{
closed = 1;
nodes = (
(131,423,l),
(217,0,l),
(282,0,l),
(173,504,l)
);
}
);
};
layerId = "C74240CE-032F-4175-97BB-312C5A6BA927";
name = "5 Jan 25 at 15:44";
shapes = (
{
closed = 1;
nodes = (
(283,0,l),
(60,820,l),
(5,820,l),
(228,0,l)
);
},
{
closed = 1;
nodes = (
(161,397,l),
(265,820,l),
(215,820,l),
(129,453,l)
);
},
{
closed = 1;
nodes = (
(109,453,l),
(5,0,l),
(55,0,l),
(148,429,l)
);
}
);
width = 288;
}
);
unicode = 88;
},
{
color = 5;
glyphname = Y;
lastChange = "2024-10-20 20:18:27 +0000";
layers = (
{
layerId = m01;
shapes = (
{
closed = 1;
nodes = (
(370,820,l),
(284,406,l),
(311,406,l),
(209,820,l),
(8,820,l),
(146,284,l),
(414,284,l),
(546,820,l)
);
},
{
closed = 1;
nodes = (
(182,0,l),
(382,0,l),
(382,284,l),
(182,284,l)
);
}
);
width = 554;
},
{
layerId = m002;
shapes = (
{
closed = 1;
nodes = (
(273,820,l),
(166,336,l),
(188,336,l),
(64,820,l),
(10,820,l),
(151,284,l),
(203,284,l),
(324,820,l)
);
},
{
closed = 1;
nodes = (
(151,0,l),
(203,0,l),
(203,284,l),
(151,284,l)
);
}
);
width = 329;
},
{
associatedMasterId = m002;
layerId = "5C01B0DB-49FF-45A5-ABD0-62B9A5F547FA";
name = "12 Jun 24 at 23:46";
shapes = (
{
closed = 1;
nodes = (
(268,820,l),
(172,203,l),
(179,203,l),
(66,820,l),
(5,820,l),
(130,151,l),
(215,151,l),
(319,820,l)
);
},
{
closed = 1;
nodes = (
(142,0,l),
(202,0,l),
(202,151,l),
(142,151,l)
);
}
);
width = 324;
}
);
metricLeft = "=V";
metricRight = "=V";
unicode = 89;
},
{
color = 5;
glyphname = Z;
lastChange = "2024-10-20 20:04:03 +0000";
layers = (
{
layerId = m01;
shapes = (
{
closed = 1;
nodes = (
(408,820,l),
(10,820,l),
(10,660,l),
(218,660,l),
(15,160,l),
(15,0,l),
(428,0,l),
(428,160,l),
(205,160,l),
(408,660,l)
);
}
);
width = 436;
},
{
layerId = m002;
shapes = (
{
closed = 1;
nodes = (
(235,820,l),
(10,820,l),
(10,780,l),
(181,780,l),
(15,40,l),
(15,0,l),
(255,0,l),
(255,40,l),
(69,40,l),
(235,780,l)
);
}
);
width = 265;
}
);
unicode = 90;
},
{
color = 5;
glyphname = a;
lastChange = "2025-11-24 12:54:07 +0000";
layers = (
{
layerId = m01;
shapes = (
{
closed = 1;
nodes = (
(450,0,l),
(450,522,ls),
(450,670,o),
(322,680,o),
(232,680,cs),
(92,680,o),
(12,617,o),
(12,496,c),
(200,496,l),
(200,544,o),
(207,556,o),
(231,556,cs),
(247,556,o),
(260,549,o),
(260,509,cs),
(260,0,l)
);
},
{
closed = 1;
nodes = (
(10,106,ls),
(10,69,o),
(18,-10,o),
(137,-10,cs),
(235,-10,o),
(275,56,o),
(301,111,c),
(283,167,l),
(263,149,o),
(251,139,o),
(235,139,cs),
(201,139,o),
(200,175,o),
(200,200,cs),
(200,259,ls),
(200,286,o),
(201,310,o),
(234,310,cs),
(251,310,o),
(263,300,o),
(283,282,c),
(337,363,l),
(293,403,o),
(235,455,o),
(138,455,cs),
(18,455,o),
(10,360,o),
(10,286,cs)
);
}
);
width = 471;
},
{
layerId = m002;
shapes = (
{
closed = 1;
nodes = (
(205,0,l),
(205,551,ls),
(205,627,o),
(197,680,o),
(118,680,cs),
(36,680,o),
(16,623,o),
(16,556,c),
(16,496,l),
(65,496,l),
(65,556,l),
(65,628,o),
(83,642,o),
(115,642,cs),
(138,642,o),
(155,635,o),
(155,582,cs),
(155,0,l)
);
},
{
closed = 1;
nodes = (
(13,106,ls),
(13,69,o),
(24,-10,o),
(88,-10,cs),
(134,-10,o),
(159,28,o),
(176,61,c),
(163,82,l),
(152,63,o),
(129,31,o),
(106,31,cs),
(68,31,o),
(65,86,o),
(65,143,cs),
(65,333,ls),
(65,381,o),
(67,411,o),
(113,411,cs),
(143,411,o),
(159,398,o),
(176,383,c),
(180,403,l),
(165,422,o),
(134,455,o),
(84,455,cs),
(31,455,o),
(13,417,o),
(13,343,cs)
);
}
);
width = 225;
}
);
metricLeft = "=o";
metricRight = "=n";
unicode = 97;
},
{
color = 5;
glyphname = b;
lastChange = "2024-04-28 13:40:15 +0000";
layers = (
{
layerId = m01;
shapes = (
{
closed = 1;
nodes = (
(337,-10,o),
(464,1,o),
(464,138,cs),
(464,564,ls),
(464,601,o),
(457,680,o),
(339,680,cs),
(235,680,o),
(177,628,o),
(133,588,c),
(187,503,l),
(207,521,o),
(221,531,o),
(237,531,cs),
(271,531,o),
(272,485,o),
(272,460,cs),
(272,161,ls),
(272,118,o),
(256,114,o),
(242,114,cs),
(228,114,o),
(212,118,o),
(212,161,cs),
(212,820,l),
(22,820,l),
(22,138,ls),
(22,1,o),
(150,-10,o),
(242,-10,cs)
);
}
);
width = 474;
},
{
layerId = m002;
shapes = (
{
closed = 1;
nodes = (
(160,-10,o),
(214,0,o),
(214,80,cs),
(214,590,ls),
(214,670,o),
(160,680,o),
(131,680,cs),
(96,680,o),
(64,650,o),
(57,640,c),
(57,618,l),
(75,632,o),
(99,642,o),
(120,642,cs),
(147,642,o),
(162,631,o),
(162,577,cs),
(162,93,ls),
(162,39,o),
(147,28,o),
(117,28,cs),
(87,28,o),
(72,39,o),
(72,93,cs),
(72,820,l),
(20,820,l),
(20,80,ls),
(20,0,o),
(74,-10,o),
(117,-10,cs)
);
}
);
width = 227;
}
);
metricLeft = "=n";
metricRight = "=o";
unicode = 98;
},
{
color = 5;
glyphname = c;
lastChange = "2024-04-27 16:03:32 +0000";
layers = (
{
layerId = m01;
shapes = (
{
closed = 1;
nodes = (
(262,343,l),
(262,161,ls),
(262,118,o),
(246,114,o),
(232,114,cs),
(218,114,o),
(202,118,o),
(202,161,cs),
(202,509,ls),
(202,548,o),
(213,556,o),
(232,556,cs),
(251,556,o),
(262,548,o),
(262,509,cs),
(262,411,l),
(454,411,l),
(454,522,ls),
(454,670,o),
(324,680,o),
(232,680,cs),
(140,680,o),
(10,670,o),
(10,522,cs),
(10,138,ls),
(10,1,o),
(140,-10,o),
(232,-10,cs),
(324,-10,o),
(454,1,o),
(454,138,cs),
(454,343,l)
);
}
);
width = 464;
},
{
layerId = m002;
shapes = (
{
closed = 1;
nodes = (
(155,343,l),
(155,93,ls),
(155,39,o),
(140,28,o),
(110,28,cs),
(80,28,o),
(65,39,o),
(65,93,cs),
(65,577,ls),
(65,631,o),
(80,642,o),
(110,642,cs),
(140,642,o),
(155,631,o),
(155,577,cs),
(155,496,l),
(207,496,l),
(207,590,ls),
(207,670,o),
(153,680,o),
(110,680,cs),
(67,680,o),
(13,670,o),
(13,590,cs),
(13,80,ls),
(13,0,o),
(67,-10,o),
(110,-10,cs),
(153,-10,o),
(207,0,o),
(207,80,cs),
(207,343,l)
);
}
);
width = 220;
}
);
metricLeft = "=o";
metricRight = "=o";
unicode = 99;
},
{
color = 5;
glyphname = d;
lastChange = "2024-04-28 13:40:50 +0000";
layers = (
{
layerId = m01;
shapes = (
{
closed = 1;
nodes = (
(237,-10,o),
(295,42,o),
(339,82,c),
(285,159,l),
(265,141,o),
(251,131,o),
(235,131,cs),
(201,131,o),
(200,177,o),
(200,202,cs),
(200,463,ls),
(200,488,o),
(201,534,o),
(235,534,cs),
(251,534,o),
(265,524,o),
(285,506,c),
(339,588,l),
(295,628,o),
(237,680,o),
(133,680,cs),
(18,680,o),
(10,601,o),
(10,564,cs),
(10,106,ls),
(10,69,o),
(18,-10,o),
(133,-10,cs)
);
},
{
closed = 1;
nodes = (
(450,0,l),
(450,820,l),
(260,820,l),
(260,0,l)
);
}
);
width = 472;
},
{
layerId = m002;
shapes = (
{
closed = 1;
nodes = (
(131,-10,o),
(163,18,o),
(176,31,c),
(169,52,l),
(153,39,o),
(129,29,o),
(110,29,cs),
(66,29,o),
(65,82,o),
(65,107,cs),
(65,563,ls),
(65,588,o),
(66,641,o),
(112,641,cs),
(126,641,o),
(148,636,o),
(168,618,c),
(176,639,l),
(163,655,o),
(141,680,o),
(98,680,cs),
(21,680,o),
(13,601,o),
(13,564,cs),
(13,106,ls),
(13,69,o),
(13,-10,o),
(87,-10,cs)
);
},
{
closed = 1;
nodes = (
(205,0,l),
(205,820,l),
(155,820,l),
(155,0,l)
);
}
);
width = 225;
}
);
metricLeft = "=o";
metricRight = "=|n";
unicode = 100;
},
{
color = 5;
glyphname = e;
lastChange = "2024-04-27 16:03:32 +0000";
layers = (
{
anchors = (
{
name = top;
pos = (231,670);
}
);
layerId = m01;
shapes = (
{
closed = 1;
nodes = (
(452,522,ls),
(452,670,o),
(324,680,o),
(232,680,cs),
(140,680,o),
(10,670,o),
(10,522,cs),
(10,138,ls),
(10,1,o),
(140,-10,o),
(232,-10,cs),
(324,-10,o),
(452,1,o),
(452,138,cs),
(452,234,l),
(262,234,l),
(262,161,ls),
(262,118,o),
(246,114,o),
(232,114,cs),
(218,114,o),
(202,118,o),
(202,161,cs),
(202,509,ls),
(202,548,o),
(213,556,o),
(232,556,cs),
(251,556,o),
(262,548,o),
(262,509,cs),
(262,337,l),
(307,426,l),
(155,426,l),
(200,302,l),
(452,302,l)
);
}
);
width = 462;
},
{
anchors = (
{
name = top;
pos = (111,670);
}
);
layerId = m002;
shapes = (
{
closed = 1;
nodes = (
(205,572,ls),
(205,650,o),
(181,680,o),
(111,680,cs),
(38,680,o),
(13,641,o),
(13,572,cs),
(13,126,ls),
(13,0,o),
(51,-10,o),
(105,-10,cs),
(161,-10,o),
(205,1,o),
(205,138,cs),
(205,234,l),
(155,234,l),
(155,75,ls),
(155,32,o),
(125,28,o),
(111,28,cs),
(97,28,o),
(65,32,o),
(65,75,cs),
(65,586,ls),
(65,634,o),
(83,642,o),
(109,642,cs),
(142,642,o),
(155,629,o),
(155,586,cs),
(155,329,l),
(170,343,l),
(37,343,l),
(63,305,l),
(205,305,l)
);
}
);
width = 218;
}
);
metricLeft = "=o";
metricRight = "=o";
unicode = 101;
},
{
color = 5;
glyphname = f;
lastChange = "2024-04-27 14:20:05 +0000";
layers = (
{
layerId = m01;
shapes = (
{
closed = 1;
nodes = (
(347,830,l),
(281,830,ls),
(195,830,o),
(67,820,o),
(67,656,cs),
(67,0,l),
(257,0,l),
(257,670,ls),
(257,702,o),
(276,716,o),
(305,716,cs),
(347,716,l)
);
},
{
closed = 1;
nodes = (
(15,510,l),
(347,510,l),
(347,670,l),
(15,670,l)
);
}
);
width = 362;
},
{
layerId = m002;
shapes = (
{
closed = 1;
nodes = (
(197,830,l),
(149,830,ls),
(89,830,o),
(55,790,o),
(55,731,cs),
(55,0,l),
(105,0,l),
(105,731,ls),
(105,766,o),
(115,792,o),
(156,792,cs),
(197,792,l)
);
},
{
closed = 1;
nodes = (
(4,632,l),
(197,632,l),
(197,670,l),
(4,670,l)
);
}
);
width = 202;
}
);
unicode = 102;
},
{
color = 5;
glyphname = g;
lastChange = "2025-11-24 12:51:33 +0000";
layers = (
{
layerId = m01;
shapes = (
{
closed = 1;
nodes = (
(324,-160,o),
(452,-142,o),
(452,20,cs),
(452,670,l),
(300,670,l),
(262,643,l),
(262,6,ls),
(262,-20,o),
(260,-40,o),
(232,-40,cs),
(206,-40,o),
(202,-24,o),
(202,-9,c),
(10,-9,l),
(10,-131,o),
(112,-160,o),
(232,-160,cs)
);
},
{
closed = 1;
nodes = (
(239,35,o),
(297,87,o),
(341,127,c),
(287,204,l),
(267,186,o),
(253,176,o),
(237,176,cs),
(203,176,o),
(202,222,o),
(202,247,cs),
(202,463,ls),
(202,488,o),
(203,534,o),
(237,534,cs),
(253,534,o),
(267,524,o),
(287,506,c),
(341,588,l),
(297,628,o),
(239,680,o),
(135,680,cs),
(20,680,o),
(12,601,o),
(12,564,cs),
(12,151,ls),
(12,114,o),
(20,35,o),
(135,35,cs)
);
}
);
width = 473;
},
{
layerId = m002;
shapes = (
{
closed = 1;
nodes = (
(153,90,o),
(207,100,o),
(207,180,cs),
(207,590,ls),
(207,670,o),
(153,680,o),
(110,680,cs),
(67,680,o),
(13,670,o),
(13,590,cs),
(13,203,ls),
(13,123,o),
(72,90,o),
(120,90,cs)
);
},
{
closed = 1;
nodes = (
(153,-159,o),
(210,-145,o),
(210,-57,cs),
(210,20,o),
(183,38,o),
(119,38,cs),
(88,38,o),
(61,42,o),
(61,109,cs),
(61,139,l),
(13,203,l),
(13,111,ls),
(13,25,o),
(46,0,o),
(95,0,cs),
(153,0,o),
(158,-10,o),
(158,-60,cs),
(158,-112,o),
(138,-121,o),
(115,-121,cs),
(82,-121,o),
(67,-109,o),
(67,-71,cs),
(67,-42,l),
(16,-42,l),
(16,-74,ls),
(16,-134,o),
(46,-159,o),
(117,-159,cs)
);
},
{
closed = 1;
nodes = (
(80,128,o),
(65,139,o),
(65,193,cs),
(65,577,ls),
(65,631,o),
(80,642,o),
(110,642,cs),
(140,642,o),
(155,631,o),
(155,577,cs),
(155,193,ls),
(155,139,o),
(140,128,o),
(110,128,cs)
);
},
{
closed = 1;
nodes = (
(194,638,o),
(198,650,o),
(206,656,cs),
(212,660,o),
(220,660,o),
(229,660,c),
(230,699,l),
(217,699,o),
(204,698,o),
(196,692,cs),
(182,681,o),
(175,660,o),
(167,644,c),
(190,624,l)
);
}
);
width = 250;
},
{
associatedMasterId = m002;
layerId = "2AC22823-8C72-43F1-B24B-1A7D88560596";
name = "24 Nov 25 at 17:37";
shapes = (
{
closed = 1;
nodes = (
(151,131,o),
(210,164,o),
(210,244,cs),
(210,590,ls),
(210,670,o),
(156,680,o),
(113,680,cs),
(70,680,o),
(16,670,o),
(16,590,cs),
(16,221,ls),
(16,141,o),
(70,131,o),
(103,131,cs)
);
},
{
closed = 1;
nodes = (
(209,-75,l),
(209,-68,o),
(209,-57,o),
(209,-46,cs),
(209,-19,o),
(188,18,o),
(140,18,cs),
(80,18,o),
(65,20,o),
(65,37,cs),
(65,56,o),
(80,58,o),
(128,58,cs),
(189,58,o),
(210,94,o),
(210,163,cs),
(210,244,l),
(160,180,l),
(160,133,ls),
(160,106,o),
(143,96,o),
(109,96,cs),
(21,96,o),
(13,70,o),
(13,36,cs),
(13,7,o),
(25,-19,o),
(93,-19,cs),
(156,-19,o),
(157,-37,o),
(157,-53,cs),
(157,-61,o),
(157,-68,o),
(157,-75,c)
);
},
{
closed = 1;
nodes = (
(83,169,o),
(68,180,o),
(68,234,cs),
(68,577,ls),
(68,631,o),
(83,642,o),
(113,642,cs),
(143,642,o),
(158,631,o),
(158,577,cs),
(158,234,ls),
(158,180,o),
(143,169,o),
(113,169,cs)
);
}
);
width = 230;
}
);
metricLeft = "=o";
metricRight = "=n";
unicode = 103;
},
{
color = 5;
glyphname = h;
lastChange = "2024-04-28 13:43:54 +0000";
layers = (
{
layerId = m01;
shapes = (
{
closed = 1;
nodes = (
(463,0,l),
(463,564,ls),
(463,601,o),
(444,680,o),
(343,680,cs),
(255,680,o),
(178,619,o),
(134,588,c),
(188,511,l),
(208,529,o),
(222,539,o),
(238,539,cs),
(272,539,o),
(272,493,o),
(272,468,cs),
(272,0,l)
);
},
{
closed = 1;
nodes = (
(212,0,l),
(212,820,l),
(22,820,l),
(22,0,l)
);
}
);
width = 484;
},
{
layerId = m002;
shapes = (
{
closed = 1;
nodes = (
(200,0,l),
(200,564,ls),
(200,601,o),
(197,680,o),
(123,680,cs),
(81,680,o),
(66,654,o),
(53,630,c),
(53,612,l),
(73,632,o),
(83,641,o),
(104,641,cs),
(148,641,o),
(150,595,o),
(150,542,cs),
(150,0,l)
);
},
{
closed = 1;
nodes = (
(70,0,l),
(70,820,l),
(20,820,l),
(20,0,l)
);
}
);
width = 220;
}
);
metricLeft = "=n";
metricRight = "=n";
unicode = 104;
},
{
color = 5;
glyphname = idotless;
lastChange = "2024-04-27 16:03:32 +0000";
layers = (
{
anchors = (
{
name = top;
pos = (117,670);
}
);
layerId = m01;
shapes = (
{
closed = 1;
nodes = (
(22,0,l),
(212,0,l),
(212,670,l),
(22,670,l)
);
}
);
width = 234;
},
{
anchors = (
{
name = top;
pos = (45,670);
}
);
layerId = m002;
shapes = (
{
closed = 1;
nodes = (
(20,0,l),
(70,0,l),
(70,670,l),
(20,670,l)
);
}
);
width = 90;
}
);
metricLeft = "=n";
metricRight = "=|n";
unicode = 305;
},
{
color = 5;
glyphname = j;
lastChange = "2024-10-20 21:34:42 +0000";
layers = (
{
layerId = m01;
shapes = (
{
closed = 1;
nodes = (
(44,-160,ls),
(130,-160,o),
(258,-150,o),
(258,14,cs),
(258,670,l),
(68,670,l),
(68,0,ls),
(68,-32,o),
(49,-46,o),
(20,-46,cs),
(-22,-46,l),
(-22,-160,l)
);
},
{
closed = 1;
nodes = (
(227,691,o),
(267,699,o),
(267,758,cs),
(267,816,o),
(227,824,o),
(163,824,cs),
(98,824,o),
(58,816,o),
(58,758,cs),
(58,699,o),
(98,691,o),
(163,691,cs)
);
}
);
width = 289;
},
{
layerId = m002;
shapes = (
{
closed = 1;
nodes = (
(20,-150,ls),
(80,-150,o),
(114,-110,o),
(114,-51,cs),
(114,670,l),
(64,670,l),
(64,-51,ls),
(64,-86,o),
(54,-112,o),
(13,-112,cs),
(2,-112,l),
(2,-150,l)
);
},
{
closed = 1;
nodes = (
(111,713,o),
(126,724,o),
(126,752,cs),
(126,779,o),
(111,790,o),
(88,790,cs),
(64,790,o),
(49,779,o),
(49,752,cs),
(49,724,o),
(64,713,o),
(88,713,cs)
);
}
);
width = 146;
}
);
metricRight = "=|n";
unicode = 106;
},
{
color = 5;
glyphname = k;
lastChange = "2024-04-27 16:03:32 +0000";
layers = (
{
layerId = m01;
shapes = (
{
closed = 1;
nodes = (
(481,0,l),
(357,416,l),
(348,330,l),
(465,670,l),
(292,670,l),
(184,330,l),
(188,417,l),
(295,0,l)
);
},
{
closed = 1;
nodes = (
(212,0,l),
(212,820,l),
(22,820,l),
(22,0,l)
);
}
);
width = 489;
},
{
layerId = m002;
shapes = (
{
closed = 1;
nodes = (
(219,0,l),
(103,416,l),
(100,340,l),
(206,670,l),
(159,670,l),
(51,330,l),
(55,417,l),
(162,0,l)
);
},
{
closed = 1;
nodes = (
(70,0,l),
(70,820,l),
(20,820,l),
(20,0,l)
);
}
);
width = 224;
}
);
metricLeft = "=n";
unicode = 107;
},
{
color = 5;
glyphname = l;
lastChange = "2024-04-27 16:03:32 +0000";
layers = (
{
layerId = m01;
shapes = (
{
closed = 1;
nodes = (
(22,0,l),
(212,0,l),
(212,820,l),
(22,820,l)
);
}
);
width = 234;
},
{
layerId = m002;
shapes = (
{
closed = 1;
nodes = (
(20,0,l),
(70,0,l),
(70,820,l),
(20,820,l)
);
}
);
width = 90;
}
);
metricLeft = "=n";
metricRight = "=|";
unicode = 108;
},
{
color = 5;
glyphname = m;
lastChange = "2024-04-27 16:03:32 +0000";
layers = (
{
layerId = m01;
shapes = (
{
closed = 1;
nodes = (
(453,0,l),
(453,564,ls),
(453,601,o),
(434,680,o),
(333,680,cs),
(245,680,o),
(160,607,o),
(126,578,c),
(178,511,l),
(198,529,o),
(212,539,o),
(228,539,cs),
(261,539,o),
(262,493,o),
(262,468,cs),
(262,0,l)
);
},
{
closed = 1;
nodes = (
(212,0,l),
(212,670,l),
(22,670,l),
(22,0,l)
);
},
{
closed = 1;
nodes = (
(694,0,l),
(694,564,ls),
(694,601,o),
(675,680,o),
(574,680,cs),
(486,680,o),
(421,584,o),
(402,547,c),
(419,511,l),
(439,529,o),
(453,539,o),
(469,539,cs),
(502,539,o),
(503,493,o),
(503,468,cs),
(503,0,l)
);
}
);
width = 715;
},
{
layerId = m002;
shapes = (
{
closed = 1;
nodes = (
(200,0,l),
(200,564,ls),
(200,601,o),
(197,680,o),
(123,680,cs),
(81,680,o),
(61,654,o),
(43,630,c),
(43,612,l),
(67,630,o),
(83,641,o),
(104,641,cs),
(148,641,o),
(150,595,o),
(150,542,cs),
(150,0,l)
);
},
{
closed = 1;
nodes = (
(70,0,l),
(70,670,l),
(20,670,l),
(20,0,l)
);
},
{
closed = 1;
nodes = (
(330,0,l),
(330,564,ls),
(330,601,o),
(327,680,o),
(253,680,cs),
(211,680,o),
(190,653,o),
(177,626,c),
(187,612,l),
(200,632,o),
(213,641,o),
(234,641,cs),
(278,641,o),
(280,595,o),
(280,542,cs),
(280,0,l)
);
}
);
width = 350;
}
);
metricLeft = "=n";
metricRight = "=n";
unicode = 109;
},
{
color = 5;
glyphname = n;
lastChange = "2024-04-28 13:44:05 +0000";
layers = (
{
layerId = m01;
shapes = (
{
closed = 1;
nodes = (
(463,0,l),
(463,564,ls),
(463,601,o),
(444,680,o),
(343,680,cs),
(255,680,o),
(178,619,o),
(134,588,c),
(188,511,l),
(208,529,o),
(222,539,o),
(238,539,cs),
(271,539,o),
(272,493,o),
(272,468,cs),
(272,0,l)
);
},
{
closed = 1;
nodes = (
(212,0,l),
(212,670,l),
(22,670,l),
(22,0,l)
);
}
);
width = 484;
},
{
layerId = m002;
shapes = (
{
closed = 1;
nodes = (
(210,0,l),
(210,564,ls),
(210,601,o),
(207,680,o),
(133,680,cs),
(91,680,o),
(71,654,o),
(53,630,c),
(53,612,l),
(77,630,o),
(93,641,o),
(114,641,cs),
(158,641,o),
(160,595,o),
(160,542,cs),
(160,0,l)
);
},
{
closed = 1;
nodes = (
(70,0,l),
(70,670,l),
(20,670,l),
(20,0,l)
);
}
);
width = 230;
}
);
unicode = 110;
},
{
color = 5;
glyphname = o;
lastChange = "2024-04-27 16:03:13 +0000";
layers = (
{
layerId = m01;
shapes = (
{
closed = 1;
nodes = (
(324,-10,o),
(454,1,o),
(454,138,cs),
(454,522,ls),
(454,670,o),
(324,680,o),
(232,680,cs),
(140,680,o),
(10,670,o),
(10,522,cs),
(10,138,ls),
(10,1,o),
(140,-10,o),
(232,-10,cs)
);
},
{
closed = 1;
nodes = (
(218,114,o),
(202,118,o),
(202,161,cs),
(202,509,ls),
(202,548,o),
(213,556,o),
(232,556,cs),
(251,556,o),
(262,548,o),
(262,509,cs),
(262,161,ls),
(262,118,o),
(246,114,o),
(232,114,cs)
);
}
);
width = 464;
},
{
layerId = m002;
shapes = (
{
closed = 1;
nodes = (
(153,-10,o),
(207,0,o),
(207,80,cs),
(207,590,ls),
(207,670,o),
(153,680,o),
(110,680,cs),
(67,680,o),
(13,670,o),
(13,590,cs),
(13,80,ls),
(13,0,o),
(67,-10,o),
(110,-10,cs)
);
},
{
closed = 1;
nodes = (
(80,28,o),
(65,39,o),
(65,93,cs),
(65,577,ls),
(65,631,o),
(80,642,o),
(110,642,cs),
(140,642,o),
(155,631,o),
(155,577,cs),
(155,93,ls),
(155,39,o),
(140,28,o),
(110,28,cs)
);
}
);
width = 220;
}
);
unicode = 111;
},
{
color = 5;
glyphname = p;
lastChange = "2024-04-28 13:44:12 +0000";
layers = (
{
layerId = m01;
shapes = (
{
closed = 1;
nodes = (
(454,-10,o),
(462,69,o),
(462,106,cs),
(462,564,ls),
(462,601,o),
(454,680,o),
(339,680,cs),
(235,680,o),
(177,628,o),
(133,588,c),
(187,508,l),
(207,526,o),
(221,536,o),
(237,536,cs),
(271,536,o),
(272,490,o),
(272,465,cs),
(272,203,ls),
(272,178,o),
(271,132,o),
(237,132,cs),
(221,132,o),
(207,142,o),
(187,160,c),
(133,82,l),
(177,42,o),
(235,-10,o),
(339,-10,cs)
);
},
{
closed = 1;
nodes = (
(212,-150,l),
(212,670,l),
(22,670,l),
(22,-150,l)
);
}
);
width = 472;
},
{
layerId = m002;
shapes = (
{
closed = 1;
nodes = (
(212,-10,o),
(212,69,o),
(212,106,cs),
(212,564,ls),
(212,601,o),
(204,680,o),
(127,680,cs),
(84,680,o),
(62,655,o),
(49,639,c),
(57,618,l),
(77,636,o),
(99,641,o),
(113,641,cs),
(159,641,o),
(160,588,o),
(160,563,cs),
(160,107,ls),
(160,82,o),
(159,29,o),
(115,29,cs),
(96,29,o),
(72,39,o),
(56,52,c),
(49,31,l),
(62,18,o),
(94,-10,o),
(138,-10,cs)
);
},
{
closed = 1;
nodes = (
(70,-150,l),
(70,670,l),
(20,670,l),
(20,-150,l)
);
}
);
width = 225;
}
);
metricLeft = "=n";
metricRight = "=o";
unicode = 112;
},
{
color = 5;
glyphname = q;
lastChange = "2024-04-28 13:44:15 +0000";
layers = (
{
layerId = m01;
shapes = (
{
closed = 1;
nodes = (
(452,-150,l),
(452,532,ls),
(452,669,o),
(324,680,o),
(232,680,cs),
(137,680,o),
(10,669,o),
(10,532,cs),
(10,106,ls),
(10,69,o),
(17,-10,o),
(135,-10,cs),
(239,-10,o),
(297,42,o),
(341,82,c),
(287,167,l),
(267,149,o),
(253,139,o),
(237,139,cs),
(203,139,o),
(202,185,o),
(202,210,cs),
(202,509,ls),
(202,552,o),
(218,556,o),
(232,556,cs),
(246,556,o),
(262,552,o),
(262,509,cs),
(262,-150,l)
);
}
);
width = 474;
},
{
layerId = m002;
shapes = (
{
closed = 1;
nodes = (
(207,-150,l),
(207,590,ls),
(207,670,o),
(153,680,o),
(110,680,cs),
(67,680,o),
(13,670,o),
(13,590,cs),
(13,80,ls),
(13,0,o),
(67,-10,o),
(90,-10,cs),
(131,-10,o),
(163,20,o),
(170,30,c),
(170,52,l),
(152,38,o),
(128,28,o),
(105,28,cs),
(80,28,o),
(65,39,o),
(65,93,cs),
(65,577,ls),
(65,631,o),
(80,642,o),
(110,642,cs),
(140,642,o),
(155,631,o),
(155,577,cs),
(155,-150,l)
);
}
);
width = 227;
}
);
metricLeft = "=o";
metricRight = "=|n";
unicode = 113;
},
{
color = 0;
glyphname = r;
lastChange = "2025-05-02 19:21:38 +0000";
layers = (
{
layerId = m01;
shapes = (
{
closed = 1;
nodes = (
(212,0,l),
(212,670,l),
(22,670,l),
(22,0,l)
);
},
{
closed = 1;
nodes = (
(212,496,o),
(273,508,o),
(320,508,cs),
(358,508,o),
(388,496,o),
(403,473,c),
(427,618,l),
(416,670,o),
(361,680,o),
(339,680,cs),
(244,680,o),
(200,609,o),
(200,569,c),
(212,439,l)
);
}
);
width = 432;
},
{
layerId = m002;
shapes = (
{
closed = 1;
nodes = (
(70,0,l),
(70,670,l),
(20,670,l),
(20,0,l)
);
},
{
closed = 1;
nodes = (
(70,619,o),
(98,642,o),
(140,642,cs),
(173,642,o),
(186,622,o),
(186,579,c),
(239,579,l),
(239,642,o),
(215,680,o),
(160,680,cs),
(91,680,o),
(56,637,o),
(56,600,c),
(70,551,l)
);
}
);
width = 244;
},
{
associatedMasterId = m002;
layerId = "5F4473CB-4E86-4462-99B0-C0E3BC0EA88E";
name = "21 Oct 24 at 02:35";
shapes = (
{
closed = 1;
nodes = (
(20,0,l),
(70,0,l),
(70,670,l),
(20,670,l)
);
},
{
closed = 1;
nodes = (
(204,670,l),
(189,676,o),
(168,680,o),
(152,680,cs),
(107,680,o),
(89,659,o),
(62,628,c),
(65,593,l),
(94,626,o),
(112,640,o),
(148,640,cs),
(173,640,o),
(191,632,o),
(204,627,c)
);
}
);
width = 216;
},
{
associatedMasterId = m002;
layerId = "4E0C4F8B-EF5A-4058-9237-4E0E8767DD62";
name = "21 Oct 24 at 19:38";
shapes = (
{
closed = 1;
nodes = (
(70,0,l),
(70,670,l),
(20,670,l),
(20,0,l)
);
},
{
closed = 1;
nodes = (
(79,576,o),
(116,640,o),
(158,640,cs),
(183,640,o),
(195,635,o),
(204,630,c),
(204,670,l),
(193,676,o),
(181,680,o),
(158,680,cs),
(107,680,o),
(79,635,o),
(52,590,c),
(55,533,l)
);
}
);
width = 216;
}
);
metricLeft = "=n";
unicode = 114;
},
{
color = 4;
glyphname = s;
lastChange = "2024-04-28 14:17:41 +0000";
layers = (
{
layerId = m01;
shapes = (
{
closed = 1;
nodes = (
(13,475,ls),
(13,301,o),
(260,247,o),
(260,157,cs),
(260,147,ls),
(260,123,o),
(248,114,o),
(230,114,cs),
(190,114,o),
(190,158,o),
(190,224,c),
(0,224,l),
(0,63,o),
(57,-10,o),
(236,-10,cs),
(322,-10,o),
(451,7,o),
(451,173,cs),
(451,194,ls),
(451,374,o),
(203,421,o),
(203,496,cs),
(203,518,ls),
(203,540,o),
(211,556,o),
(231,556,cs),
(255,556,o),
(264,534,o),
(264,486,c),
(450,486,l),
(450,645,o),
(352,680,o),
(239,680,cs),
(138,680,o),
(13,652,o),
(13,507,cs)
);
}
);
width = 460;
},
{
layerId = m002;
shapes = (
{
closed = 1;
nodes = (
(19,518,ls),
(19,384,o),
(153,258,o),
(153,122,cs),
(153,91,ls),
(153,57,o),
(145,28,o),
(113,28,cs),
(65,28,o),
(60,72,o),
(60,234,c),
(10,234,l),
(10,67,o),
(15,-10,o),
(113,-10,cs),
(195,-10,o),
(205,53,o),
(205,116,cs),
(205,138,ls),
(205,261,o),
(71,403,o),
(71,534,cs),
(71,568,ls),
(71,612,o),
(79,642,o),
(112,642,cs),
(153,642,o),
(162,596,o),
(162,496,c),
(212,496,l),
(212,612,o),
(205,680,o),
(118,680,cs),
(27,680,o),
(19,605,o),
(19,557,cs)
);
}
);
width = 222;
}
);
unicode = 115;
},
{
color = 5;
glyphname = t;
lastChange = "2025-11-24 11:43:57 +0000";
layers = (
{
layerId = m01;
shapes = (
{
closed = 1;
nodes = (
(305,160,ls),
(276,160,o),
(257,174,o),
(257,206,cs),
(257,820,l),
(67,820,l),
(67,174,ls),
(67,10,o),
(195,0,o),
(281,0,cs),
(331,0,l),
(331,160,l)
);
},
{
closed = 1;
nodes = (
(15,510,l),
(347,510,l),
(347,670,l),
(15,670,l)
);
}
);
width = 362;
},
{
layerId = m002;
shapes = (
{
closed = 1;
nodes = (
(154,38,ls),
(123,38,o),
(106,52,o),
(106,84,cs),
(106,820,l),
(56,820,l),
(56,85,ls),
(56,41,o),
(68,0,o),
(154,0,cs),
(198,0,l),
(198,38,l)
);
},
{
closed = 1;
nodes = (
(4,632,l),
(198,632,l),
(198,670,l),
(4,670,l)
);
}
);
width = 203;
}
);
metricLeft = "=f";
metricRight = "=f";
unicode = 116;
},
{
color = 5;
glyphname = u;
lastChange = "2024-04-28 13:44:22 +0000";
layers = (
{
layerId = m01;
shapes = (
{
closed = 1;
nodes = (
(229,-10,o),
(310,63,o),
(342,94,c),
(296,169,l),
(276,151,o),
(262,141,o),
(246,141,cs),
(213,141,o),
(212,187,o),
(212,212,cs),
(212,670,l),
(21,670,l),
(21,106,ls),
(21,69,o),
(40,-10,o),
(141,-10,cs)
);
},
{
closed = 1;
nodes = (
(462,0,l),
(462,670,l),
(272,670,l),
(272,63,l),
(303,0,l)
);
}
);
width = 484;
},
{
layerId = m002;
shapes = (
{
closed = 1;
nodes = (
(139,-10,o),
(159,16,o),
(177,40,c),
(177,67,l),
(163,54,o),
(137,29,o),
(116,29,cs),
(72,29,o),
(70,75,o),
(70,128,cs),
(70,670,l),
(20,670,l),
(20,106,ls),
(20,69,o),
(23,-10,o),
(97,-10,cs)
);
},
{
closed = 1;
nodes = (
(210,0,l),
(210,670,l),
(160,670,l),
(160,32,l),
(185,0,l)
);
}
);
width = 230;
}
);
metricLeft = "=|n";
metricRight = "=|n";
unicode = 117;
},
{
color = 5;
glyphname = v;
lastChange = "2024-10-20 21:32:35 +0000";
layers = (
{
layerId = m01;
shapes = (
{
closed = 1;
nodes = (
(515,670,l),
(335,670,l),
(248,24,l),
(311,24,l),
(199,670,l),
(5,670,l),
(140,0,l),
(375,0,l)
);
}
);
width = 520;
},
{
layerId = m002;
shapes = (
{
closed = 1;
nodes = (
(234,670,l),
(189,670,l),
(114,33,l),
(132,33,l),
(63,670,l),
(4,670,l),
(89,0,l),
(150,0,l)
);
}
);
width = 238;
}
);
unicode = 118;
},
{
color = 0;
glyphname = w;
lastChange = "2025-01-05 10:46:06 +0000";
layers = (
{
layerId = m01;
shapes = (
{
closed = 1;
nodes = (
(358,0,l),
(433,481,l),
(388,455,l),
(465,0,l),
(664,0,l),
(804,670,l),
(624,670,l),
(528,35,l),
(595,40,l),
(512,670,l),
(314,670,l),
(226,24,l),
(299,24,l),
(199,670,l),
(5,670,l),
(140,0,l)
);
}
);
width = 809;
},
{
layerId = m002;
shapes = (
{
closed = 1;
nodes = (
(136,0,l),
(182,597,l),
(168,597,l),
(214,0,l),
(290,0,l),
(348,670,l),
(309,670,l),
(252,33,l),
(261,33,l),
(213,670,l),
(151,670,l),
(100,33,l),
(105,33,l),
(56,670,l),
(4,670,l),
(60,0,l)
);
}
);
width = 352;
}
);
metricLeft = "=v";
metricRight = "=v";
unicode = 119;
},
{
color = 0;
glyphname = x;
lastChange = "2025-01-05 10:46:06 +0000";
layers = (
{
background = {
shapes = (
{
closed = 1;
nodes = (
(336,247,l),
(507,670,l),
(347,670,l),
(248,392,l)
);
},
{
closed = 1;
nodes = (
(288,437,l),
(214,670,l),
(14,670,l),
(199,234,l)
);
},
{
closed = 1;
nodes = (
(221,457,l),
(36,0,l),
(196,0,l),
(320,306,l)
);
},
{
closed = 1;
nodes = (
(246,273,l),
(328,0,l),
(528,0,l),
(331,465,l)
);
}
);
};
layerId = m01;
shapes = (
{
closed = 1;
nodes = (
(540,0,l),
(220,670,l),
(10,670,l),
(329,0,l)
);
},
{
closed = 1;
nodes = (
(178,0,l),
(320,306,l),
(221,457,l),
(14,0,l)
);
},
{
closed = 1;
nodes = (
(510,670,l),
(347,670,l),
(248,392,l),
(336,247,l)
);
}
);
width = 545;
},
{
associatedMasterId = m01;
layerId = "B55214D2-7BA3-461A-8C6E-AC0BBC8DF729";
name = "27 Apr 24 at 12:31";
shapes = (
{
closed = 1;
nodes = (
(543,0,l),
(378,377,l),
(202,343,l),
(255,251,l),
(334,0,l)
);
},
{
closed = 1;
nodes = (
(364,272,l),
(365,272,l),
(524,670,l),
(356,670,l),
(261,405,l),
(260,405,l)
);
},
{
closed = 1;
nodes = (
(208,0,l),
(315,299,l),
(157,299,l),
(49,0,l)
);
},
{
closed = 1;
nodes = (
(18,670,l),
(180,243,l),
(313,359,l),
(207,670,l)
);
}
);
width = 558;
},
{
background = {
shapes = (
{
closed = 1;
nodes = (
(143,307,l),
(247,670,l),
(207,670,l),
(121,363,l)
);
},
{
closed = 1;
nodes = (
(151,358,l),
(74,670,l),
(20,670,l),
(115,304,l)
);
},
{
closed = 1;
nodes = (
(111,363,l),
(7,0,l),
(47,0,l),
(133,307,l)
);
},
{
closed = 1;
nodes = (
(123,333,l),
(209,0,l),
(263,0,l),
(160,387,l)
);
}
);
};
layerId = m002;
shapes = (
{
closed = 1;
nodes = (
(264,0,l),
(64,670,l),
(10,670,l),
(211,0,l)
);
},
{
closed = 1;
nodes = (
(47,0,l),
(133,307,l),
(111,363,l),
(7,0,l)
);
},
{
closed = 1;
nodes = (
(247,670,l),
(207,670,l),
(121,363,l),
(143,307,l)
);
}
);
width = 269;
},
{
associatedMasterId = m002;
layerId = "ED3B01FC-A3F4-44EF-A69B-78FCD0C1D9A5";
name = "27 Apr 24 at 12:31";
shapes = (
{
closed = 1;
nodes = (
(543,0,l),
(378,377,l),
(202,343,l),
(255,251,l),
(334,0,l)
);
},
{
closed = 1;
nodes = (
(364,272,l),
(365,272,l),
(524,670,l),
(356,670,l),
(261,405,l),
(260,405,l)
);
},
{
closed = 1;
nodes = (
(208,0,l),
(315,299,l),
(157,299,l),
(49,0,l)
);
},
{
closed = 1;
nodes = (
(18,670,l),
(180,243,l),
(313,359,l),
(207,670,l)
);
}
);
width = 558;
},
{
associatedMasterId = m002;
layerId = "89250D72-3C29-4DEC-84AC-1A9B61EBC720";
name = "21 Oct 24 at 02:32";
shapes = (
{
closed = 1;
nodes = (
(141,307,l),
(245,670,l),
(205,670,l),
(119,363,l)
);
},
{
closed = 1;
nodes = (
(149,358,l),
(72,670,l),
(18,670,l),
(113,304,l)
);
},
{
closed = 1;
nodes = (
(109,363,l),
(5,0,l),
(45,0,l),
(131,307,l)
);
},
{
closed = 1;
nodes = (
(121,333,l),
(207,0,l),
(261,0,l),
(158,387,l)
);
}
);
width = 266;
},
{
associatedMasterId = m01;
layerId = "39D0BEAE-CCDE-4B3D-9D7B-DA07BEAAE359";
name = "21 Oct 24 at 02:37";
shapes = (
{
closed = 1;
nodes = (
(324,247,l),
(495,670,l),
(335,670,l),
(236,392,l)
);
},
{
closed = 1;
nodes = (
(276,437,l),
(202,670,l),
(2,670,l),
(187,234,l)
);
},
{
closed = 1;
nodes = (
(209,457,l),
(24,0,l),
(184,0,l),
(308,306,l)
);
},
{
closed = 1;
nodes = (
(234,273,l),
(316,0,l),
(516,0,l),
(319,465,l)
);
}
);
width = 518;
}
);
unicode = 120;
},
{
color = 0;
glyphname = y;
lastChange = "2025-11-24 12:50:30 +0000";
layers = (
{
layerId = m01;
shapes = (
{
closed = 1;
nodes = (
(199,0,l),
(161,-150,l),
(337,-150,l),
(515,670,l),
(335,670,l),
(248,24,l),
(311,24,l),
(199,670,l),
(5,670,l),
(140,0,l)
);
}
);
width = 520;
},
{
layerId = m002;
shapes = (
{
closed = 1;
nodes = (
(13,670,l),
(13,116,l),
(13,79,o),
(13,0,o),
(87,0,cs),
(131,0,o),
(163,28,o),
(176,41,c),
(169,62,l),
(153,49,o),
(129,39,o),
(110,39,cs),
(66,39,o),
(65,92,o),
(65,117,c),
(65,670,l)
);
},
{
closed = 1;
nodes = (
(13,-123,o),
(29,-160,o),
(105,-160,cs),
(193,-160,o),
(205,-109,o),
(205,20,cs),
(205,670,l),
(155,670,l),
(155,6,ls),
(155,-99,o),
(148,-122,o),
(107,-122,cs),
(74,-122,o),
(64,-109,o),
(64,-73,cs),
(64,-44,l),
(13,-44,l),
(13,-73,ls)
);
}
);
width = 218;
}
);
metricLeft = "=o";
metricRight = "=o";
unicode = 121;
},
{
color = 5;
glyphname = z;
lastChange = "2024-04-27 09:25:01 +0000";
layers = (
{
layerId = m01;
shapes = (
{
closed = 1;
nodes = (
(14,530,l),
(215,530,l),
(14,140,l),
(14,0,l),
(397,0,l),
(397,140,l),
(201,140,l),
(397,530,l),
(397,670,l),
(14,670,l)
);
}
);
width = 412;
},
{
layerId = m002;
shapes = (
{
closed = 1;
nodes = (
(14,630,l),
(174,630,l),
(14,40,l),
(14,0,l),
(227,0,l),
(227,40,l),
(66,40,l),
(227,630,l),
(227,670,l),
(14,670,l)
);
}
);
width = 241;
}
);
unicode = 122;
},
{
color = 5;
glyphname = g.001;
lastChange = "2024-04-28 14:24:55 +0000";
layers = (
{
layerId = m01;
shapes = (
{
closed = 1;
nodes = (
(324,-160,o),
(452,-142,o),
(452,20,cs),
(452,670,l),
(300,670,l),
(262,643,l),
(262,6,ls),
(262,-20,o),
(260,-40,o),
(232,-40,cs),
(206,-40,o),
(202,-24,o),
(202,-9,c),
(10,-9,l),
(10,-131,o),
(112,-160,o),
(232,-160,cs)
);
},
{
closed = 1;
nodes = (
(239,35,o),
(297,87,o),
(341,127,c),
(287,204,l),
(267,186,o),
(253,176,o),
(237,176,cs),
(203,176,o),
(202,222,o),
(202,247,cs),
(202,463,ls),
(202,488,o),
(203,534,o),
(237,534,cs),
(253,534,o),
(267,524,o),
(287,506,c),
(341,588,l),
(297,628,o),
(239,680,o),
(135,680,cs),
(20,680,o),
(12,601,o),
(12,564,cs),
(12,151,ls),
(12,114,o),
(20,35,o),
(135,35,cs)
);
}
);
width = 473;
},
{
layerId = m002;
shapes = (
{
closed = 1;
nodes = (
(176,-160,o),
(205,-128,o),
(205,20,cs),
(205,670,l),
(186,670,l),
(155,643,l),
(155,6,ls),
(155,-102,o),
(144,-122,o),
(111,-122,cs),
(75,-122,o),
(65,-106,o),
(65,-9,c),
(17,-9,l),
(17,-113,o),
(33,-160,o),
(111,-160,cs)
);
},
{
closed = 1;
nodes = (
(131,30,o),
(163,58,o),
(176,71,c),
(169,92,l),
(153,79,o),
(129,69,o),
(110,69,cs),
(66,69,o),
(65,122,o),
(65,147,c),
(65,563,l),
(65,588,o),
(66,641,o),
(112,641,cs),
(126,641,o),
(148,636,o),
(168,618,c),
(176,639,l),
(163,655,o),
(141,680,o),
(98,680,cs),
(21,680,o),
(13,601,o),
(13,564,c),
(13,146,l),
(13,109,o),
(13,30,o),
(87,30,cs)
);
}
);
width = 225;
}
);
metricLeft = "=o";
metricRight = "=n";
},
{
color = 0;
glyphname = y.001;
lastChange = "2025-01-05 10:46:06 +0000";
layers = (
{
layerId = m01;
shapes = (
{
closed = 1;
nodes = (
(199,0,l),
(161,-150,l),
(337,-150,l),
(515,670,l),
(335,670,l),
(248,24,l),
(311,24,l),
(199,670,l),
(5,670,l),
(140,0,l)
);
}
);
width = 520;
},
{
layerId = m002;
shapes = (
{
closed = 1;
nodes = (
(112,0,l),
(92,-150,l),
(135,-150,l),
(238,670,l),
(194,670,l),
(117,24,l),
(133,24,l),
(56,670,l),
(4,670,l),
(87,0,l)
);
}
);
width = 242;
}
);
metricLeft = "=v";
metricRight = "=v";
},
{
color = 5;
glyphname = "Be-cy";
lastChange = "2024-10-20 21:09:51 +0000";
layers = (
{
layerId = m01;
shapes = (
{
closed = 1;
nodes = (
(260,0,ls),
(352,0,o),
(500,10,o),
(500,158,cs),
(500,452,ls),
(500,600,o),
(352,610,o),
(260,610,cs),
(188,610,l),
(226,575,l),
(226,685,l),
(206,660,l),
(484,660,l),
(484,820,l),
(26,820,l),
(26,0,l)
);
},
{
closed = 1;
nodes = (
(226,502,l),
(172,450,l),
(260,450,ls),
(279,450,o),
(296,442,o),
(296,403,cs),
(296,197,ls),
(296,158,o),
(279,150,o),
(260,150,cs),
(208,150,l),
(226,136,l)
);
}
);
width = 510;
},
{
layerId = m002;
shapes = (
{
closed = 1;
nodes = (
(129,0,ls),
(232,0,o),
(232,53,o),
(232,161,cs),
(232,378,ls),
(232,472,o),
(207,496,o),
(124,496,cs),
(71,496,l),
(80,485,l),
(80,788,l),
(71,780,l),
(220,780,l),
(220,820,l),
(28,820,l),
(28,0,l)
);
},
{
closed = 1;
nodes = (
(80,469,l),
(67,456,l),
(133,456,ls),
(162,456,o),
(179,448,o),
(179,389,cs),
(179,97,ls),
(179,48,o),
(162,40,o),
(133,40,cs),
(73,40,l),
(80,35,l)
);
}
);
width = 242;
}
);
metricLeft = "=H";
metricRight = "=P";
unicode = 1041;
},
{
color = 5;
glyphname = "Ge-cy";
lastChange = "2024-10-20 21:15:19 +0000";
layers = (
{
layerId = m01;
shapes = (
{
closed = 1;
nodes = (
(226,0,l),
(226,695,l),
(182,660,l),
(420,660,l),
(420,820,l),
(26,820,l),
(26,0,l)
);
}
);
width = 428;
},
{
layerId = m002;
shapes = (
{
closed = 1;
nodes = (
(80,0,l),
(80,809,l),
(40,780,l),
(242,780,l),
(242,820,l),
(28,820,l),
(28,0,l)
);
}
);
width = 252;
}
);
metricLeft = "=H";
metricRight = "=E";
unicode = 1043;
},
{
glyphname = "Gestroke-cy";
lastChange = "2024-10-20 20:54:09 +0000";
layers = (
{
layerId = m01;
shapes = (
{
closed = 1;
nodes = (
(267,0,l),
(267,695,l),
(223,660,l),
(432,660,l),
(432,820,l),
(67,820,l),
(67,0,l)
);
},
{
closed = 1;
nodes = (
(413,336,l),
(413,496,l),
(8,496,l),
(8,336,l)
);
}
);
width = 440;
},
{
layerId = m002;
shapes = (
{
closed = 1;
nodes = (
(104,0,l),
(104,809,l),
(64,780,l),
(256,780,l),
(256,820,l),
(52,820,l),
(52,0,l)
);
},
{
closed = 1;
nodes = (
(235,454,l),
(235,494,l),
(6,494,l),
(6,454,l)
);
}
);
width = 266;
}
);
metricLeft = "=T";
metricRight = "=Ge-cy";
unicode = 1170;
},
{
glyphname = "Shha-cy";
lastChange = "2024-10-20 20:25:54 +0000";
layers = (
{
layerId = m01;
shapes = (
{
closed = 1;
nodes = (
(500,0,l),
(500,467,ls),
(500,565,o),
(433,618,o),
(340,618,cs),
(294,618,o),
(248,606,o),
(202,582,c),
(202,445,l),
(215,450,o),
(241,458,o),
(260,458,cs),
(279,458,o),
(296,450,o),
(296,411,cs),
(296,0,l)
);
},
{
closed = 1;
nodes = (
(226,0,l),
(226,820,l),
(26,820,l),
(26,0,l)
);
}
);
width = 510;
},
{
layerId = m002;
shapes = (
{
closed = 1;
nodes = (
(240,0,l),
(240,434,ls),
(240,528,o),
(215,556,o),
(156,556,cs),
(108,556,o),
(79,537,o),
(61,525,c),
(61,497,l),
(84,505,o),
(108,510,o),
(131,510,cs),
(161,510,o),
(178,502,o),
(178,443,cs),
(178,0,l)
);
},
{
closed = 1;
nodes = (
(88,0,l),
(88,820,l),
(28,820,l),
(28,0,l)
);
}
);
width = 250;
}
);
metricLeft = "=H";
metricRight = "=P";
unicode = 1210;
},
{
color = 4;
glyphname = "De-cy";
lastChange = "2024-10-22 05:49:09 +0000";
layers = (
{
hints = (
{
name = _corner.leftUpper;
options = 1;
origin = (0,0);
scale = (1,-1);
type = Corner;
}
);
layerId = m01;
shapes = (
{
closed = 1;
nodes = (
(520,0,l),
(520,820,l),
(119,820,l),
(119,729,o),
(101,185,o),
(62,160,c),
(20,160,l),
(20,-106,l),
(200,-106,l),
(200,0,l)
);
},
{
closed = 1;
nodes = (
(267,304,o),
(274,535,o),
(278,685,c),
(250,660,l),
(337,660,l),
(320,679,l),
(320,143,l),
(339,160,l),
(227,160,l),
(252,133,l)
);
}
);
width = 586;
},
{
hints = (
{
name = _corner.leftUpper;
options = 1;
origin = (0,0);
scale = (1,-1);
type = Corner;
}
);
layerId = m002;
shapes = (
{
closed = 1;
nodes = (
(258,0,l),
(258,820,l),
(89,820,l),
(89,729,o),
(77,65,o),
(46,40,c),
(21,40,l),
(21,-106,l),
(73,-106,l),
(73,0,l)
);
},
{
closed = 1;
nodes = (
(119,190,o),
(139,649,o),
(142,799,c),
(106,780,l),
(223,780,l),
(206,793,l),
(206,29,l),
(225,40,l),
(83,40,l),
(104,19,l)
);
}
);
width = 311;
}
);
unicode = 1044;
},
{
glyphname = "Schwa-cy";
lastChange = "2024-10-20 20:41:37 +0000";
layers = (
{
layerId = m01;
shapes = (
{
closed = 1;
nodes = (
(346,-10,o),
(492,0,o),
(492,158,cs),
(492,662,ls),
(492,820,o),
(346,830,o),
(254,830,cs),
(162,830,o),
(14,820,o),
(14,662,cs),
(14,556,l),
(218,556,l),
(218,619,ls),
(218,658,o),
(235,666,o),
(254,666,cs),
(273,666,o),
(288,658,o),
(288,619,cs),
(288,201,ls),
(288,162,o),
(273,154,o),
(254,154,cs),
(235,154,o),
(218,162,o),
(218,201,cs),
(218,378,l),
(173,343,l),
(316,343,l),
(316,493,l),
(14,493,l),
(14,158,ls),
(14,0,o),
(162,-10,o),
(254,-10,cs)
);
}
);
width = 506;
},
{
layerId = m002;
shapes = (
{
closed = 1;
nodes = (
(162,-10,o),
(226,0,o),
(226,80,cs),
(226,740,ls),
(226,820,o),
(162,830,o),
(119,830,cs),
(76,830,o),
(12,820,o),
(12,740,cs),
(12,646,l),
(65,646,l),
(65,725,ls),
(65,779,o),
(80,790,o),
(119,790,cs),
(158,790,o),
(173,779,o),
(173,725,cs),
(173,95,ls),
(173,41,o),
(158,30,o),
(119,30,cs),
(80,30,o),
(65,41,o),
(65,95,cs),
(65,481,l),
(29,456,l),
(191,456,l),
(191,496,l),
(12,496,l),
(12,80,ls),
(12,0,o),
(76,-10,o),
(119,-10,cs)
);
}
);
width = 238;
}
);
metricLeft = "=O";
metricRight = "=O";
unicode = 1240;
},
{
color = 0;
glyphname = "Zhe-cy";
lastChange = "2025-01-05 10:45:56 +0000";
layers = (
{
layerId = m01;
shapes = (
{
closed = 1;
nodes = (
(778,0,l),
(657,472,l),
(643,367,l),
(745,820,l),
(567,820,l),
(455,367,l),
(460,474,l),
(561,0,l)
);
},
{
closed = 1;
nodes = (
(226,0,l),
(327,474,l),
(332,367,l),
(220,820,l),
(42,820,l),
(144,367,l),
(130,472,l),
(9,0,l)
);
},
{
closed = 1;
nodes = (
(483,0,l),
(483,820,l),
(303,820,l),
(303,0,l)
);
}
);
width = 787;
},
{
layerId = m002;
shapes = (
{
closed = 1;
nodes = (
(354,0,l),
(237,489,l),
(249,433,l),
(346,820,l),
(293,820,l),
(183,377,l),
(188,484,l),
(299,0,l)
);
},
{
closed = 1;
nodes = (
(54,0,l),
(161,494,l),
(163,387,l),
(58,820,l),
(3,820,l),
(105,412,l),
(104,468,l),
(1,0,l)
);
},
{
closed = 1;
nodes = (
(200,0,l),
(200,820,l),
(148,820,l),
(148,0,l)
);
}
);
width = 355;
},
{
associatedMasterId = m002;
layerId = "B893C953-BAE7-496C-8A1A-30ACFB113597";
name = "21 Oct 24 at 02:05";
shapes = (
{
closed = 1;
nodes = (
(372,0,l),
(255,489,l),
(260,433,l),
(357,820,l),
(304,820,l),
(194,377,l),
(199,484,l),
(310,0,l)
);
},
{
closed = 1;
nodes = (
(59,0,l),
(166,494,l),
(168,387,l),
(63,820,l),
(1,820,l),
(103,412,l),
(109,468,l),
(6,0,l)
);
},
{
closed = 1;
nodes = (
(212,0,l),
(212,820,l),
(152,820,l),
(152,0,l)
);
}
);
width = 373;
}
);
metricLeft = "=|K";
metricRight = K;
unicode = 1046;
},
{
color = 5;
glyphname = "Ze-cy";
lastChange = "2024-10-20 21:12:59 +0000";
layers = (
{
layerId = m01;
shapes = (
{
closed = 1;
nodes = (
(342,-10,o),
(486,29,o),
(486,193,cs),
(486,266,ls),
(486,411,o),
(364,452,o),
(255,452,c),
(254,410,l),
(365,410,o),
(482,459,o),
(482,602,cs),
(482,619,ls),
(482,818,o),
(344,830,o),
(254,830,cs),
(162,830,o),
(17,820,o),
(17,662,cs),
(17,546,l),
(208,546,l),
(208,619,ls),
(208,658,o),
(225,666,o),
(248,666,cs),
(284,666,o),
(288,640,o),
(288,596,cs),
(288,578,ls),
(288,529,o),
(273,506,o),
(143,506,c),
(143,353,l),
(288,353,o),
(288,317,o),
(288,245,cs),
(288,229,ls),
(288,183,o),
(280,154,o),
(247,154,cs),
(225,154,o),
(208,162,o),
(208,201,cs),
(208,313,l),
(14,313,l),
(14,158,ls),
(14,0,o),
(162,-10,o),
(254,-10,cs)
);
}
);
width = 500;
},
{
layerId = m002;
shapes = (
{
closed = 1;
nodes = (
(205,-10,o),
(224,58,o),
(224,150,cs),
(224,339,ls),
(224,443,o),
(181,471,o),
(109,471,c),
(109,451,l),
(174,451,o),
(224,490,o),
(224,596,cs),
(224,733,ls),
(224,792,o),
(193,830,o),
(121,830,cs),
(33,830,o),
(12,772,o),
(12,672,cs),
(12,646,l),
(64,646,l),
(64,704,ls),
(64,766,o),
(74,790,o),
(122,790,cs),
(155,790,o),
(171,783,o),
(171,727,cs),
(171,573,ls),
(171,494,o),
(121,481,o),
(73,481,c),
(73,441,l),
(137,441,o),
(171,438,o),
(171,327,cs),
(171,105,ls),
(171,60,o),
(165,30,o),
(119,30,cs),
(74,30,o),
(66,58,o),
(66,125,cs),
(66,343,l),
(14,343,l),
(14,138,ls),
(14,27,o),
(40,-10,o),
(120,-10,cs)
);
}
);
width = 236;
}
);
metricLeft = "=|C";
metricRight = "=O";
unicode = 1047;
},
{
color = 0;
glyphname = "Ii-cy";
lastChange = "2025-01-05 10:45:56 +0000";
layers = (
{
anchors = (
{
name = top;
pos = (261,820);
}
);
layerId = m01;
shapes = (
{
closed = 1;
nodes = (
(159,193,l),
(206,261,l),
(206,820,l),
(26,820,l),
(26,0,l),
(216,0,l),
(364,592,l),
(316,609,l),
(316,0,l),
(496,0,l),
(496,820,l),
(306,820,l)
);
}
);
width = 522;
},
{
anchors = (
{
name = top;
pos = (137,820);
}
);
layerId = m002;
shapes = (
{
closed = 1;
nodes = (
(74,70,l),
(80,43,l),
(80,820,l),
(28,820,l),
(28,0,l),
(110,0,l),
(216,749,l),
(210,774,l),
(210,0,l),
(262,0,l),
(262,820,l),
(180,820,l)
);
}
);
width = 290;
}
);
metricLeft = "=H";
metricRight = "=H";
unicode = 1048;
},
{
color = 4;
glyphname = "Kadescender-cy";
lastChange = "2024-10-29 15:25:49 +0000";
layers = (
{
hints = (
{
name = _corner.leftUpper;
options = 1;
origin = (0,0);
scale = (1,-1);
type = Corner;
}
);
layerId = m01;
shapes = (
{
closed = 1;
nodes = (
(519,0,l),
(519,160,l),
(400,472,l),
(376,367,l),
(521,820,l),
(330,820,l),
(198,367,l),
(203,474,l),
(334,0,l)
);
},
{
closed = 1;
nodes = (
(226,0,l),
(226,820,l),
(26,820,l),
(26,0,l)
);
}
);
width = 591;
},
{
hints = (
{
name = _corner.leftUpper;
options = 1;
origin = (0,0);
scale = (1,-1);
type = Corner;
}
);
layerId = m002;
shapes = (
{
closed = 1;
nodes = (
(247,0,l),
(247,40,l),
(122,479,l),
(123,423,l),
(238,820,l),
(186,820,l),
(56,367,l),
(68,474,l),
(203,0,l)
);
},
{
closed = 1;
nodes = (
(80,0,l),
(80,820,l),
(28,820,l),
(28,0,l)
);
}
);
width = 300;
}
);
metricLeft = "=H";
metricRight = "=|De-cy";
unicode = 1178;
},
{
color = 5;
glyphname = "El-cy";
lastChange = "2024-10-20 20:46:04 +0000";
layers = (
{
layerId = m01;
shapes = (
{
closed = 1;
nodes = (
(137,820,l),
(119,605,o),
(114,417,o),
(103,300,cs),
(91,180,o),
(75,160,o),
(20,160,c),
(20,0,l),
(92,0,ls),
(176,0,o),
(243,23,o),
(258,143,cs),
(274,282,o),
(283,462,o),
(292,667,c),
(283,660,l),
(347,660,l),
(338,670,l),
(338,0,l),
(538,0,l),
(538,820,l)
);
}
);
width = 564;
},
{
layerId = m002;
shapes = (
{
closed = 1;
nodes = (
(115,820,l),
(104,605,o),
(94,417,o),
(90,343,cs),
(76,55,o),
(47,44,o),
(8,44,c),
(8,0,l),
(24,0,ls),
(97,0,o),
(115,75,o),
(124,164,cs),
(139,308,o),
(150,534,o),
(161,786,c),
(156,780,l),
(234,780,l),
(230,784,l),
(230,0,l),
(282,0,l),
(282,820,l)
);
}
);
width = 310;
}
);
metricRight = "=H";
unicode = 1051;
},
{
color = 4;
glyphname = "Endescender-cy";
lastChange = "2024-10-20 21:43:39 +0000";
layers = (
{
hints = (
{
name = _corner.leftUpper;
options = 1;
origin = (0,2);
scale = (-1,1);
type = Corner;
}
);
layerId = m01;
shapes = (
{
closed = 1;
nodes = (
(296,406,l),
(296,0,l),
(496,0,l),
(496,820,l),
(296,820,l),
(296,533,l),
(313,550,l),
(216,550,l),
(226,534,l),
(226,820,l),
(26,820,l),
(26,0,l),
(226,0,l),
(226,403,l),
(216,390,l),
(312,390,l)
);
}
);
width = 562;
},
{
hints = (
{
name = _corner.leftUpper;
options = 1;
origin = (0,2);
scale = (-1,1);
type = Corner;
}
);
layerId = m002;
shapes = (
{
closed = 1;
nodes = (
(178,466,l),
(178,0,l),
(230,0,l),
(230,820,l),
(178,820,l),
(178,479,l),
(195,494,l),
(70,494,l),
(80,480,l),
(80,820,l),
(28,820,l),
(28,0,l),
(80,0,l),
(80,463,l),
(70,454,l),
(194,454,l)
);
}
);
width = 283;
}
);
metricLeft = "=H";
metricRight = "=Tse-cy";
unicode = 1186;
},
{
glyphname = "Obarred-cy";
lastChange = "2024-10-20 20:47:14 +0000";
layers = (
{
layerId = m01;
shapes = (
{
closed = 1;
nodes = (
(340,-10,o),
(484,1,o),
(484,148,cs),
(484,662,ls),
(484,820,o),
(340,830,o),
(248,830,cs),
(156,830,o),
(14,820,o),
(14,662,cs),
(14,148,ls),
(14,1,o),
(156,-10,o),
(248,-10,cs)
);
},
{
closed = 1;
nodes = (
(234,154,o),
(214,158,o),
(214,201,cs),
(214,356,l),
(284,356,l),
(284,201,ls),
(284,158,o),
(262,154,o),
(248,154,cs)
);
},
{
closed = 1;
nodes = (
(214,619,ls),
(214,658,o),
(229,666,o),
(248,666,cs),
(267,666,o),
(284,658,o),
(284,619,cs),
(284,496,l),
(214,496,l)
);
}
);
width = 498;
},
{
layerId = m002;
shapes = (
{
closed = 1;
nodes = (
(158,-10,o),
(218,0,o),
(218,80,cs),
(218,740,ls),
(218,820,o),
(158,830,o),
(115,830,cs),
(72,830,o),
(12,820,o),
(12,740,cs),
(12,80,ls),
(12,0,o),
(72,-10,o),
(115,-10,cs)
);
},
{
closed = 1;
nodes = (
(80,30,o),
(65,41,o),
(65,95,cs),
(65,454,l),
(165,454,l),
(165,95,ls),
(165,41,o),
(150,30,o),
(115,30,cs)
);
},
{
closed = 1;
nodes = (
(65,725,ls),
(65,779,o),
(80,790,o),
(115,790,cs),
(150,790,o),
(165,779,o),
(165,725,cs),
(165,494,l),
(65,494,l)
);
}
);
width = 230;
}
);
metricLeft = "=O";
metricRight = "=O";
unicode = 1256;
},
{
color = 5;
glyphname = "Pe-cy";
lastChange = "2024-10-20 20:43:41 +0000";
layers = (
{
layerId = m01;
shapes = (
{
closed = 1;
nodes = (
(296,676,l),
(296,0,l),
(496,0,l),
(496,820,l),
(26,820,l),
(26,0,l),
(226,0,l),
(226,673,l),
(216,660,l),
(312,660,l)
);
}
);
width = 522;
},
{
layerId = m002;
shapes = (
{
closed = 1;
nodes = (
(178,790,l),
(178,0,l),
(230,0,l),
(230,820,l),
(28,820,l),
(28,0,l),
(80,0,l),
(80,787,l),
(74,780,l),
(190,780,l)
);
}
);
width = 258;
}
);
metricLeft = "=H";
metricRight = "=H";
unicode = 1055;
},
{
color = 0;
glyphname = "U-cy";
lastChange = "2025-04-21 19:20:10 +0000";
layers = (
{
layerId = m01;
shapes = (
{
closed = 1;
nodes = (
(377,0,l),
(553,820,l),
(380,820,l),
(287,356,l),
(331,396,l),
(220,820,l),
(8,820,l),
(172,284,l),
(265,284,l),
(201,0,l)
);
}
);
width = 561;
},
{
layerId = m002;
shapes = (
{
closed = 1;
nodes = (
(178,152,l),
(67,820,l),
(15,820,l),
(136,125,l)
);
},
{
closed = 1;
nodes = (
(148,212,ls),
(137,118,o),
(123,40,o),
(78,40,cs),
(55,40,o),
(37,47,o),
(19,59,c),
(10,10,l),
(28,3,o),
(51,0,o),
(74,0,cs),
(138,0,o),
(178,44,o),
(195,183,cs),
(275,820,l),
(222,820,l)
);
}
);
width = 280;
},
{
associatedMasterId = m002;
layerId = "81EF1C41-BCB6-4E58-BD8C-77C67530DB63";
name = "12 Jun 24 at 23:50";
shapes = (
{
closed = 1;
nodes = (
(137,0,l),
(188,0,l),
(342,820,l),
(291,820,l),
(171,176,l),
(184,170,l),
(66,820,l),
(5,820,l),
(128,151,l),
(166,151,l)
);
}
);
width = 347;
},
{
associatedMasterId = m01;
layerId = "1683803F-E209-461F-83D2-96328ED49FE4";
name = "12 Jun 24 at 23:50";
shapes = (
{
closed = 1;
nodes = (
(201,0,l),
(390,0,l),
(551,820,l),
(376,820,l),
(262,223,l),
(334,281,l),
(220,820,l),
(8,820,l),
(195,151,l),
(240,151,l)
);
}
);
width = 559;
},
{
associatedMasterId = m002;
layerId = "E6D057FB-5FCA-42A7-9968-339BFAD65629";
name = "21 Oct 24 at 02:27";
shapes = (
{
closed = 1;
nodes = (
(136,0,l),
(187,0,l),
(341,820,l),
(290,820,l),
(194,309,l),
(207,303,l),
(65,820,l),
(10,820,l),
(157,284,l),
(189,284,l)
);
}
);
width = 346;
},
{
associatedMasterId = m002;
layerId = "C3C52BD8-77BB-476A-ABE8-809E78DBB16C";
name = "5 Jan 25 at 10:07";
shapes = (
{
closed = 1;
nodes = (
(115,0,l),
(168,0,l),
(312,820,l),
(261,820,l),
(171,309,l),
(178,303,l),
(65,820,l),
(10,820,l),
(128,284,l),
(165,284,l)
);
}
);
width = 317;
},
{
associatedMasterId = m002;
layerId = "884D80B6-3323-4405-8DA7-6D3089D7D2AB";
name = "5 Jan 25 at 10:13";
shapes = (
{
closed = 1;
nodes = (
(28,340,o),
(82,330,o),
(112,330,cs),
(179,330,o),
(202,381,o),
(202,420,cs),
(202,493,l),
(170,493,l),
(170,435,ls),
(170,381,o),
(155,370,o),
(125,370,cs),
(95,370,o),
(80,381,o),
(80,435,cs),
(80,820,l),
(28,820,l),
(28,420,ls)
);
},
{
closed = 1;
nodes = (
(170,95,ls),
(170,41,o),
(155,30,o),
(125,30,cs),
(95,30,o),
(80,41,o),
(80,95,cs),
(80,153,l),
(28,153,l),
(28,80,ls),
(28,0,o),
(82,-10,o),
(125,-10,cs),
(168,-10,o),
(222,0,o),
(222,80,c),
(222,820,l),
(170,820,l)
);
}
);
width = 250;
},
{
associatedMasterId = m002;
layerId = "547667A9-1224-4212-B554-BFAC1737C3EE";
name = "5 Jan 25 at 10:22";
shapes = (
{
closed = 1;
nodes = (
(179,212,ls),
(166,97,o),
(155,40,o),
(117,40,cs),
(89,40,o),
(74,70,o),
(68,100,c),
(19,86,l),
(27,47,o),
(53,0,o),
(116,0,cs),
(198,0,o),
(218,79,o),
(230,202,cs),
(291,820,l),
(240,820,l),
(192,309,l),
(205,303,l),
(65,820,l),
(10,820,l),
(155,284,l),
(187,284,l)
);
}
);
width = 296;
},
{
associatedMasterId = m002;
layerId = "B0D81DD1-70B1-47FC-900E-A1CFE1022434";
name = "26 Mar 25 at 03:46";
shapes = (
{
closed = 1;
nodes = (
(191,0,o),
(204,76,o),
(218,162,cs),
(322,820,l),
(269,820,l),
(165,162,ls),
(153,86,o),
(145,40,o),
(109,40,cs),
(94,40,o),
(89,52,o),
(81,65,c),
(29,42,l),
(44,18,o),
(69,0,o),
(108,0,cs)
);
},
{
closed = 1;
nodes = (
(190,219,l),
(196,276,l),
(65,820,l),
(10,820,l),
(172,179,l)
);
}
);
width = 327;
},
{
associatedMasterId = m002;
layerId = "70F4C1DC-D15F-4ECA-BF2D-EC8DCEC20C9C";
name = "22 Apr 25 at 00:08";
shapes = (
{
closed = 1;
nodes = (
(193,0,l),
(347,820,l),
(296,820,l),
(176,176,l),
(189,170,l),
(71,820,l),
(10,820,l),
(133,151,l),
(171,151,l),
(142,0,l)
);
}
);
width = 352;
}
);
metricLeft = "=Y";
metricRight = "=Y";
unicode = 1059;
},
{
glyphname = "Ustraightstroke-cy";
lastChange = "2024-10-20 20:51:11 +0000";
layers = (
{
layerId = m01;
shapes = (
{
closed = 1;
nodes = (
(414,284,l),
(546,820,l),
(370,820,l),
(284,406,l),
(311,406,l),
(209,820,l),
(8,820,l),
(146,284,l)
);
},
{
closed = 1;
nodes = (
(382,0,l),
(382,284,l),
(182,284,l),
(182,0,l)
);
},
{
closed = 1;
nodes = (
(455,84,l),
(455,234,l),
(106,234,l),
(106,84,l)
);
}
);
width = 554;
},
{
associatedMasterId = m01;
layerId = "69A49DB2-B397-44D6-BA32-C4741ED339A0";
name = "27 Apr 24 at 13:45";
shapes = (
{
closed = 1;
nodes = (
(377,820,l),
(274,273,l),
(339,273,l),
(220,820,l),
(8,820,l),
(175,234,l),
(391,234,l),
(552,820,l)
);
},
{
closed = 1;
nodes = (
(175,0,l),
(391,0,l),
(391,234,l),
(175,234,l)
);
},
{
closed = 1;
nodes = (
(106,84,l),
(455,84,l),
(455,234,l),
(106,234,l)
);
}
);
width = 560;
},
{
layerId = m002;
shapes = (
{
closed = 1;
nodes = (
(203,284,l),
(324,820,l),
(273,820,l),
(166,336,l),
(188,336,l),
(64,820,l),
(10,820,l),
(151,284,l)
);
},
{
closed = 1;
nodes = (
(203,0,l),
(203,284,l),
(151,284,l),
(151,0,l)
);
},
{
closed = 1;
nodes = (
(297,188,l),
(297,234,l),
(60,234,l),
(60,188,l)
);
}
);
width = 329;
},
{
associatedMasterId = m002;
layerId = "0F66C39E-6388-4138-AB06-00D10A1CA7D0";
name = "27 Apr 24 at 13:45";
shapes = (
{
closed = 1;
nodes = (
(377,820,l),
(274,273,l),
(339,273,l),
(220,820,l),
(8,820,l),
(175,234,l),
(391,234,l),
(552,820,l)
);
},
{
closed = 1;
nodes = (
(175,0,l),
(391,0,l),
(391,234,l),
(175,234,l)
);
},
{
closed = 1;
nodes = (
(106,84,l),
(455,84,l),
(455,234,l),
(106,234,l)
);
}
);
width = 560;
},
{
associatedMasterId = m002;
layerId = "818FFBFC-889D-4E31-8E20-A12002F23E49";
name = "12 Jun 24 at 23:53";
shapes = (
{
closed = 1;
nodes = (
(55,105,l),
(292,105,l),
(292,151,l),
(55,151,l)
);
},
{
closed = 1;
nodes = (
(268,820,l),
(172,203,l),
(179,203,l),
(66,820,l),
(5,820,l),
(133,151,l),
(211,151,l),
(319,820,l)
);
},
{
closed = 1;
nodes = (
(142,0,l),
(202,0,l),
(202,151,l),
(142,151,l)
);
}
);
width = 324;
}
);
metricLeft = "=Y";
metricRight = "=Y";
unicode = 1200;
},
{
color = 4;
glyphname = "Ef-cy";
lastChange = "2024-10-20 21:20:31 +0000";
layers = (
{
layerId = m01;
shapes = (
{
closed = 1;
nodes = (
(702,64,o),
(754,115,o),
(754,222,cs),
(754,622,ls),
(754,748,o),
(676,790,o),
(603,790,cs),
(548,790,o),
(499,768,o),
(476,748,c),
(476,608,l),
(476,613,o),
(503,616,o),
(515,616,cs),
(547,616,o),
(554,606,o),
(554,579,cs),
(554,275,ls),
(554,244,o),
(553,232,o),
(516,232,cs),
(508,232,o),
(483,234,o),
(475,237,c),
(475,114,l),
(530,75,o),
(570,64,o),
(603,64,cs)
);
},
{
closed = 1;
nodes = (
(198,64,o),
(254,75,o),
(293,114,c),
(293,237,l),
(285,234,o),
(260,232,o),
(252,232,cs),
(215,232,o),
(214,244,o),
(214,275,cs),
(214,579,ls),
(214,606,o),
(221,616,o),
(253,616,cs),
(265,616,o),
(292,613,o),
(292,608,c),
(292,748,l),
(269,768,o),
(220,790,o),
(165,790,cs),
(92,790,o),
(14,748,o),
(14,622,cs),
(14,222,ls),
(14,115,o),
(66,64,o),
(165,64,cs)
);
},
{
closed = 1;
nodes = (
(484,0,l),
(484,820,l),
(284,820,l),
(284,0,l)
);
}
);
width = 768;
},
{
associatedMasterId = m01;
layerId = "A0EDDD84-8229-4797-B837-FF17BAC1C688";
name = "27 Apr 24 at 12:16";
shapes = (
{
closed = 1;
nodes = (
(272,788,l),
(249,808,o),
(216,830,o),
(161,830,cs),
(88,830,o),
(10,788,o),
(10,662,cs),
(10,222,ls),
(10,115,o),
(62,64,o),
(161,64,cs),
(194,64,o),
(234,75,o),
(273,114,c),
(273,237,l),
(265,234,o),
(250,232,o),
(242,232,cs),
(221,232,o),
(210,244,o),
(210,275,cs),
(210,619,ls),
(210,646,o),
(227,656,o),
(243,656,cs),
(255,656,o),
(272,653,o),
(272,648,c)
);
},
{
closed = 1;
nodes = (
(264,0,l),
(464,0,l),
(464,820,l),
(264,820,l)
);
},
{
closed = 1;
nodes = (
(456,653,o),
(473,656,o),
(485,656,cs),
(501,656,o),
(518,646,o),
(518,619,cs),
(518,275,ls),
(518,244,o),
(507,232,o),
(486,232,cs),
(478,232,o),
(463,234,o),
(455,237,c),
(455,114,l),
(494,75,o),
(534,64,o),
(567,64,cs),
(666,64,o),
(718,115,o),
(718,222,cs),
(718,662,ls),
(718,788,o),
(640,830,o),
(567,830,cs),
(512,830,o),
(479,808,o),
(456,788,c),
(456,648,l)
);
}
);
width = 728;
},
{
layerId = m002;
shapes = (
{
closed = 1;
nodes = (
(372,234,o),
(372,287,o),
(372,395,cs),
(372,660,ls),
(372,754,o),
(349,782,o),
(283,782,cs),
(253,782,o),
(223,768,o),
(201,751,c),
(201,718,l),
(219,729,o),
(244,742,o),
(274,742,cs),
(302,742,o),
(319,728,o),
(319,669,cs),
(319,337,ls),
(319,288,o),
(302,274,o),
(276,274,cs),
(243,274,o),
(220,286,o),
(198,293,c),
(198,260,l),
(214,250,o),
(247,234,o),
(281,234,cs)
);
},
{
closed = 1;
nodes = (
(137,234,o),
(172,251,o),
(186,260,c),
(186,293,l),
(164,286,o),
(141,274,o),
(108,274,cs),
(82,274,o),
(65,288,o),
(65,337,cs),
(65,669,ls),
(65,728,o),
(82,742,o),
(110,742,cs),
(140,742,o),
(165,729,o),
(183,718,c),
(183,751,l),
(161,768,o),
(131,782,o),
(101,782,cs),
(35,782,o),
(12,754,o),
(12,660,cs),
(12,395,ls),
(12,287,o),
(12,234,o),
(103,234,cs)
);
},
{
closed = 1;
nodes = (
(218,0,l),
(218,820,l),
(166,820,l),
(166,0,l)
);
}
);
width = 384;
},
{
associatedMasterId = m002;
layerId = "904513B9-C199-4C01-986B-42E690051A30";
name = "27 Apr 24 at 12:16";
shapes = (
{
closed = 1;
nodes = (
(272,788,l),
(249,808,o),
(216,830,o),
(161,830,cs),
(88,830,o),
(10,788,o),
(10,662,cs),
(10,222,ls),
(10,115,o),
(62,64,o),
(161,64,cs),
(194,64,o),
(234,75,o),
(273,114,c),
(273,237,l),
(265,234,o),
(250,232,o),
(242,232,cs),
(221,232,o),
(210,244,o),
(210,275,cs),
(210,619,ls),
(210,646,o),
(227,656,o),
(243,656,cs),
(255,656,o),
(272,653,o),
(272,648,c)
);
},
{
closed = 1;
nodes = (
(264,0,l),
(464,0,l),
(464,820,l),
(264,820,l)
);
},
{
closed = 1;
nodes = (
(456,653,o),
(473,656,o),
(485,656,cs),
(501,656,o),
(518,646,o),
(518,619,cs),
(518,275,ls),
(518,244,o),
(507,232,o),
(486,232,cs),
(478,232,o),
(463,234,o),
(455,237,c),
(455,114,l),
(494,75,o),
(534,64,o),
(567,64,cs),
(666,64,o),
(718,115,o),
(718,222,cs),
(718,662,ls),
(718,788,o),
(640,830,o),
(567,830,cs),
(512,830,o),
(479,808,o),
(456,788,c),
(456,648,l)
);
}
);
width = 728;
}
);
metricLeft = "=O";
metricRight = "=O";
unicode = 1060;
},
{
color = 5;
glyphname = "Che-cy";
lastChange = "2024-10-20 21:20:59 +0000";
layers = (
{
layerId = m01;
shapes = (
{
closed = 1;
nodes = (
(484,0,l),
(484,820,l),
(284,820,l),
(284,476,l),
(312,504,l),
(250,504,ls),
(231,504,o),
(214,512,o),
(214,551,cs),
(214,820,l),
(10,820,l),
(10,495,ls),
(10,397,o),
(77,344,o),
(170,344,cs),
(310,344,l),
(284,369,l),
(284,0,l)
);
}
);
width = 510;
},
{
layerId = m002;
shapes = (
{
closed = 1;
nodes = (
(214,0,l),
(214,820,l),
(162,820,l),
(162,378,l),
(168,384,l),
(118,384,ls),
(80,384,o),
(63,392,o),
(63,451,cs),
(63,820,l),
(10,820,l),
(10,466,ls),
(10,372,o),
(35,344,o),
(118,344,cs),
(170,344,l),
(162,352,l),
(162,0,l)
);
}
);
width = 242;
}
);
metricLeft = "=|P";
metricRight = "=H";
unicode = 1063;
},
{
color = 5;
glyphname = "Tse-cy";
lastChange = "2024-10-20 21:25:08 +0000";
layers = (
{
hints = (
{
name = _corner.leftUpper;
options = 1;
origin = (0,0);
scale = (-1,1);
type = Corner;
}
);
layerId = m01;
shapes = (
{
closed = 1;
nodes = (
(496,0,l),
(496,820,l),
(296,820,l),
(296,115,l),
(341,160,l),
(181,160,l),
(226,115,l),
(226,820,l),
(26,820,l),
(26,0,l)
);
}
);
width = 562;
},
{
hints = (
{
name = _corner.leftUpper;
options = 1;
origin = (0,0);
scale = (-1,1);
type = Corner;
}
);
layerId = m002;
shapes = (
{
closed = 1;
nodes = (
(230,0,l),
(230,820,l),
(178,820,l),
(178,21,l),
(219,40,l),
(59,40,l),
(80,21,l),
(80,820,l),
(28,820,l),
(28,0,l)
);
}
);
width = 283;
}
);
metricLeft = "=H";
metricRight = "=De-cy";
unicode = 1062;
},
{
color = 5;
glyphname = "Sha-cy";
lastChange = "2024-10-20 21:23:03 +0000";
layers = (
{
layerId = m01;
shapes = (
{
closed = 1;
nodes = (
(746,0,l),
(746,820,l),
(546,820,l),
(546,115,l),
(591,160,l),
(441,160,l),
(486,115,l),
(486,820,l),
(286,820,l),
(286,143,l),
(303,160,l),
(216,160,l),
(226,144,l),
(226,820,l),
(26,820,l),
(26,0,l)
);
}
);
width = 772;
},
{
layerId = m002;
shapes = (
{
closed = 1;
nodes = (
(368,0,l),
(368,820,l),
(316,820,l),
(316,21,l),
(353,40,l),
(203,40,l),
(224,21,l),
(224,820,l),
(172,820,l),
(172,19,l),
(175,40,l),
(78,40,l),
(80,20,l),
(80,820,l),
(28,820,l),
(28,0,l)
);
}
);
width = 396;
}
);
metricLeft = "=H";
metricRight = "=H";
unicode = 1064;
},
{
color = 5;
glyphname = "Shcha-cy";
lastChange = "2024-10-20 21:27:34 +0000";
layers = (
{
hints = (
{
name = _corner.leftUpper;
options = 1;
origin = (0,0);
scale = (-1,1);
type = Corner;
}
);
layerId = m01;
shapes = (
{
closed = 1;
nodes = (
(746,0,l),
(746,160,l),
(746,820,l),
(546,820,l),
(546,115,l),
(591,160,l),
(441,160,l),
(486,115,l),
(486,820,l),
(286,820,l),
(286,143,l),
(303,160,l),
(216,160,l),
(226,144,l),
(226,820,l),
(26,820,l),
(26,0,l)
);
}
);
width = 812;
},
{
hints = (
{
name = _corner.leftUpper;
options = 1;
origin = (0,0);
scale = (-1,1);
type = Corner;
}
);
layerId = m002;
shapes = (
{
closed = 1;
nodes = (
(368,0,l),
(368,40,l),
(368,820,l),
(316,820,l),
(316,21,l),
(353,40,l),
(203,40,l),
(224,21,l),
(224,820,l),
(172,820,l),
(172,19,l),
(175,40,l),
(78,40,l),
(80,20,l),
(80,820,l),
(28,820,l),
(28,0,l)
);
}
);
width = 421;
}
);
metricLeft = "=H";
metricRight = "=De-cy";
unicode = 1065;
},
{
color = 5;
glyphname = "Hardsign-cy";
lastChange = "2024-10-20 21:26:16 +0000";
layers = (
{
layerId = m01;
shapes = (
{
closed = 1;
nodes = (
(321,0,ls),
(413,0,o),
(561,10,o),
(561,158,cs),
(561,415,ls),
(561,513,o),
(494,566,o),
(401,566,cs),
(274,566,l),
(287,547,l),
(287,820,l),
(8,820,l),
(8,660,l),
(127,660,l),
(87,711,l),
(87,0,l)
);
},
{
closed = 1;
nodes = (
(287,414,l),
(282,406,l),
(321,406,ls),
(340,406,o),
(357,398,o),
(357,359,cs),
(357,207,ls),
(357,168,o),
(340,160,o),
(321,160,cs),
(253,160,l),
(287,127,l)
);
}
);
width = 571;
},
{
layerId = m002;
shapes = (
{
closed = 1;
nodes = (
(174,0,ls),
(277,0,o),
(277,53,o),
(277,161,cs),
(277,374,ls),
(277,468,o),
(252,496,o),
(169,496,cs),
(113,496,l),
(125,483,l),
(125,820,l),
(6,820,l),
(6,774,l),
(90,774,l),
(73,792,l),
(73,0,l)
);
},
{
closed = 1;
nodes = (
(125,469,l),
(115,456,l),
(178,456,ls),
(207,456,o),
(224,448,o),
(224,389,cs),
(224,97,ls),
(224,48,o),
(207,40,o),
(178,40,cs),
(117,40,l),
(125,32,l)
);
}
);
width = 287;
}
);
metricLeft = "=T";
metricRight = "=P";
unicode = 1066;
},
{
color = 5;
glyphname = "Yeru-cy";
lastChange = "2024-10-20 21:09:57 +0000";
layers = (
{
layerId = m01;
shapes = (
{
closed = 1;
nodes = (
(260,0,ls),
(352,0,o),
(500,10,o),
(500,158,cs),
(500,415,ls),
(500,513,o),
(433,566,o),
(340,566,cs),
(215,566,l),
(226,554,l),
(226,820,l),
(26,820,l),
(26,0,l)
);
},
{
closed = 1;
nodes = (
(226,423,l),
(209,406,l),
(260,406,ls),
(279,406,o),
(296,398,o),
(296,359,cs),
(296,207,ls),
(296,168,o),
(279,160,o),
(260,160,cs),
(192,160,l),
(226,127,l)
);
},
{
closed = 1;
nodes = (
(728,0,l),
(728,820,l),
(528,820,l),
(528,0,l)
);
}
);
width = 754;
},
{
layerId = m002;
shapes = (
{
closed = 1;
nodes = (
(129,0,ls),
(232,0,o),
(232,53,o),
(232,161,cs),
(232,374,ls),
(232,468,o),
(207,496,o),
(124,496,cs),
(68,496,l),
(80,483,l),
(80,820,l),
(28,820,l),
(28,0,l)
);
},
{
closed = 1;
nodes = (
(80,469,l),
(70,456,l),
(133,456,ls),
(162,456,o),
(179,448,o),
(179,389,cs),
(179,97,ls),
(179,48,o),
(162,40,o),
(133,40,cs),
(72,40,l),
(80,32,l)
);
},
{
closed = 1;
nodes = (
(324,0,l),
(324,820,l),
(272,820,l),
(272,0,l)
);
}
);
width = 352;
}
);
metricLeft = "=H";
metricRight = "=H";
unicode = 1067;
},
{
color = 5;
glyphname = "Softsign-cy";
lastChange = "2024-10-20 21:22:21 +0000";
layers = (
{
layerId = m01;
shapes = (
{
closed = 1;
nodes = (
(260,0,ls),
(352,0,o),
(500,10,o),
(500,158,cs),
(500,415,ls),
(500,513,o),
(433,566,o),
(340,566,cs),
(203,566,l),
(226,545,l),
(226,820,l),
(26,820,l),
(26,0,l)
);
},
{
closed = 1;
nodes = (
(226,426,l),
(212,406,l),
(260,406,ls),
(279,406,o),
(296,398,o),
(296,359,cs),
(296,207,ls),
(296,168,o),
(279,160,o),
(260,160,cs),
(192,160,l),
(226,127,l)
);
}
);
width = 510;
},
{
layerId = m002;
shapes = (
{
closed = 1;
nodes = (
(129,0,ls),
(232,0,o),
(232,53,o),
(232,161,cs),
(232,374,ls),
(232,468,o),
(207,496,o),
(124,496,cs),
(68,496,l),
(80,483,l),
(80,820,l),
(28,820,l),
(28,0,l)
);
},
{
closed = 1;
nodes = (
(80,469,l),
(70,456,l),
(133,456,ls),
(162,456,o),
(179,448,o),
(179,389,cs),
(179,97,ls),
(179,48,o),
(162,40,o),
(133,40,cs),
(72,40,l),
(80,32,l)
);
}
);
width = 242;
}
);
metricLeft = "=H";
metricRight = "=P";
unicode = 1068;
},
{
color = 5;
glyphname = "Ereversed-cy";
lastChange = "2024-10-20 21:18:47 +0000";
layers = (
{
layerId = m01;
shapes = (
{
closed = 1;
nodes = (
(342,-10,o),
(484,0,o),
(484,158,cs),
(484,662,ls),
(484,820,o),
(342,830,o),
(250,830,cs),
(158,830,o),
(14,820,o),
(14,662,cs),
(14,546,l),
(214,546,l),
(214,619,ls),
(214,658,o),
(231,666,o),
(250,666,cs),
(269,666,o),
(284,658,o),
(284,619,cs),
(284,488,l),
(303,506,l),
(145,506,l),
(145,353,l),
(303,353,l),
(284,373,l),
(284,201,ls),
(284,162,o),
(269,154,o),
(250,154,cs),
(231,154,o),
(214,162,o),
(214,201,cs),
(214,313,l),
(14,313,l),
(14,158,ls),
(14,0,o),
(158,-10,o),
(250,-10,cs)
);
}
);
width = 498;
},
{
layerId = m002;
shapes = (
{
closed = 1;
nodes = (
(162,-10,o),
(226,0,o),
(226,120,cs),
(226,740,ls),
(226,820,o),
(162,830,o),
(119,830,cs),
(76,830,o),
(12,820,o),
(12,723,cs),
(12,646,l),
(64,646,l),
(64,725,ls),
(64,779,o),
(79,790,o),
(119,790,cs),
(158,790,o),
(173,779,o),
(173,725,cs),
(173,471,l),
(182,484,l),
(74,484,l),
(74,444,l),
(189,444,l),
(173,453,l),
(173,95,ls),
(173,41,o),
(149,30,o),
(119,30,cs),
(79,30,o),
(64,41,o),
(64,95,cs),
(64,343,l),
(12,343,l),
(12,80,ls),
(12,0,o),
(76,-10,o),
(119,-10,cs)
);
}
);
width = 238;
}
);
metricLeft = "=|C";
metricRight = "=O";
unicode = 1069;
},
{
color = 5;
glyphname = "Yu-cy";
lastChange = "2024-10-20 21:24:33 +0000";
layers = (
{
layerId = m01;
shapes = (
{
closed = 1;
nodes = (
(612,-10,o),
(756,1,o),
(756,148,cs),
(756,662,ls),
(756,820,o),
(612,830,o),
(520,830,cs),
(428,830,o),
(286,820,o),
(286,662,cs),
(286,482,l),
(297,496,l),
(209,496,l),
(226,479,l),
(226,820,l),
(26,820,l),
(26,0,l),
(226,0,l),
(226,357,l),
(212,336,l),
(302,336,l),
(286,352,l),
(286,148,ls),
(286,1,o),
(428,-10,o),
(520,-10,cs)
);
},
{
closed = 1;
nodes = (
(506,154,o),
(486,158,o),
(486,201,cs),
(486,619,ls),
(486,658,o),
(501,666,o),
(520,666,cs),
(539,666,o),
(556,658,o),
(556,619,cs),
(556,201,ls),
(556,158,o),
(534,154,o),
(520,154,cs)
);
}
);
width = 770;
},
{
layerId = m002;
shapes = (
{
closed = 1;
nodes = (
(290,-10,o),
(354,0,o),
(354,80,cs),
(354,740,ls),
(354,820,o),
(290,830,o),
(247,830,cs),
(204,830,o),
(140,820,o),
(140,740,cs),
(140,480,l),
(153,494,l),
(69,494,l),
(80,479,l),
(80,820,l),
(28,820,l),
(28,0,l),
(80,0,l),
(80,460,l),
(66,454,l),
(147,454,l),
(140,467,l),
(140,80,ls),
(140,0,o),
(204,-10,o),
(247,-10,cs)
);
},
{
closed = 1;
nodes = (
(208,30,o),
(193,41,o),
(193,95,cs),
(193,725,ls),
(193,779,o),
(208,790,o),
(247,790,cs),
(286,790,o),
(301,779,o),
(301,725,cs),
(301,95,ls),
(301,41,o),
(286,30,o),
(247,30,cs)
);
}
);
width = 366;
}
);
metricLeft = "=H";
metricRight = "=O";
unicode = 1070;
},
{
color = 5;
glyphname = "Ya-cy";
lastChange = "2024-10-20 21:21:41 +0000";
layers = (
{
layerId = m01;
shapes = (
{
closed = 1;
nodes = (
(483,0,l),
(483,820,l),
(249,820,ls),
(157,820,o),
(9,810,o),
(9,662,cs),
(9,438,ls),
(9,290,o),
(157,280,o),
(249,280,cs),
(308,280,l),
(283,299,l),
(283,0,l)
);
},
{
closed = 1;
nodes = (
(192,0,l),
(279,370,l),
(77,375,l),
(8,0,l)
);
},
{
closed = 1;
nodes = (
(303,430,l),
(249,430,ls),
(230,430,o),
(213,438,o),
(213,477,cs),
(213,613,ls),
(213,652,o),
(230,660,o),
(249,660,cs),
(315,660,l),
(283,686,l),
(283,412,l)
);
}
);
width = 509;
},
{
layerId = m002;
shapes = (
{
closed = 1;
nodes = (
(259,0,l),
(259,820,l),
(183,820,ls),
(80,820,o),
(55,772,o),
(55,668,cs),
(55,532,ls),
(55,424,o),
(55,371,o),
(158,371,cs),
(217,371,l),
(207,382,l),
(207,0,l)
);
},
{
closed = 1;
nodes = (
(79,0,l),
(177,402,l),
(129,407,l),
(24,0,l)
);
},
{
closed = 1;
nodes = (
(221,411,l),
(163,411,ls),
(125,411,o),
(108,419,o),
(108,468,cs),
(108,683,ls),
(108,752,o),
(125,780,o),
(183,780,cs),
(241,780,l),
(207,797,l),
(207,404,l)
);
}
);
width = 287;
},
{
associatedMasterId = m002;
layerId = "D4EC1DC2-DF19-41D4-81CD-EE921451181A";
name = "21 Oct 24 at 02:13";
shapes = (
{
closed = 1;
nodes = (
(267,0,l),
(267,820,l),
(183,820,ls),
(80,820,o),
(55,772,o),
(55,668,cs),
(55,395,ls),
(55,287,o),
(55,234,o),
(158,234,cs),
(217,234,l),
(207,245,l),
(207,0,l)
);
},
{
closed = 1;
nodes = (
(78,0,l),
(145,265,l),
(89,270,l),
(15,0,l)
);
},
{
closed = 1;
nodes = (
(221,280,l),
(163,280,ls),
(134,280,o),
(117,288,o),
(117,337,cs),
(117,677,ls),
(117,746,o),
(134,774,o),
(183,774,cs),
(241,774,l),
(207,797,l),
(207,267,l)
);
}
);
width = 295;
}
);
metricRight = "=H";
unicode = 1071;
},
{
color = 5;
glyphname = "be-cy";
lastChange = "2024-10-20 21:31:37 +0000";
layers = (
{
layerId = m01;
shapes = (
{
closed = 1;
nodes = (
(333,-10,o),
(463,1,o),
(463,138,cs),
(463,512,ls),
(463,622,o),
(389,670,o),
(323,670,cs),
(267,670,o),
(212,635,o),
(186,615,c),
(199,508,l),
(215,516,o),
(229,520,o),
(240,520,cs),
(259,520,o),
(271,509,o),
(271,485,cs),
(271,161,ls),
(271,118,o),
(255,114,o),
(241,114,cs),
(227,114,o),
(211,118,o),
(211,161,cs),
(211,653,ls),
(211,699,o),
(232,711,o),
(262,711,cs),
(293,711,o),
(334,698,o),
(373,698,cs),
(397,698,o),
(428,703,o),
(456,710,c),
(456,830,l),
(428,824,o),
(388,820,o),
(368,820,cs),
(336,820,o),
(273,830,o),
(217,830,cs),
(77,830,o),
(21,766,o),
(21,652,cs),
(21,138,ls),
(21,1,o),
(149,-10,o),
(241,-10,cs)
);
}
);
width = 473;
},
{
layerId = m002;
shapes = (
{
closed = 1;
nodes = (
(160,-10,o),
(214,0,o),
(214,80,cs),
(214,590,ls),
(214,670,o),
(160,680,o),
(131,680,cs),
(96,680,o),
(64,650,o),
(57,640,c),
(57,618,l),
(75,632,o),
(99,642,o),
(120,642,cs),
(147,642,o),
(162,631,o),
(162,577,cs),
(162,93,ls),
(162,39,o),
(147,28,o),
(117,28,cs),
(87,28,o),
(72,39,o),
(72,93,cs),
(72,653,ls),
(72,771,o),
(75,791,o),
(103,791,cs),
(124,791,o),
(133,780,o),
(161,780,cs),
(177,780,o),
(192,784,o),
(207,791,c),
(207,830,l),
(192,825,o),
(178,820,o),
(158,820,cs),
(133,820,o),
(123,830,o),
(102,830,cs),
(38,830,o),
(20,776,o),
(20,652,cs),
(20,80,ls),
(20,0,o),
(74,-10,o),
(117,-10,cs)
);
}
);
width = 227;
}
);
metricLeft = "=|n";
metricRight = "=o";
unicode = 1073;
},
{
color = 5;
glyphname = "ve-cy";
lastChange = "2024-04-27 16:03:32 +0000";
layers = (
{
layerId = m01;
shapes = (
{
closed = 1;
nodes = (
(286,0,ls),
(403,0,o),
(462,40,o),
(462,137,cs),
(462,255,ls),
(462,382,o),
(331,385,o),
(258,385,c),
(258,360,l),
(347,360,o),
(451,381,o),
(451,501,cs),
(451,540,ls),
(451,644,o),
(369,670,o),
(293,670,cs),
(22,670,l),
(22,0,l)
);
},
{
closed = 1;
nodes = (
(212,571,l),
(196,546,l),
(247,546,o),
(272,546,o),
(272,512,cs),
(272,473,ls),
(272,429,o),
(256,428,o),
(189,428,c),
(189,304,l),
(241,304,o),
(272,304,o),
(272,266,cs),
(272,171,ls),
(272,127,o),
(251,123,o),
(190,123,c),
(212,109,l)
);
}
);
width = 479;
},
{
layerId = m002;
shapes = (
{
closed = 1;
nodes = (
(94,0,ls),
(175,0,o),
(212,36,o),
(212,94,cs),
(212,303,ls),
(212,369,o),
(151,395,o),
(96,395,c),
(96,380,l),
(167,380,o),
(208,401,o),
(208,476,cs),
(208,540,ls),
(208,644,o),
(175,670,o),
(101,670,cs),
(20,670,l),
(20,0,l)
);
},
{
closed = 1;
nodes = (
(70,657,l),
(54,632,l),
(135,632,o),
(160,632,o),
(160,556,cs),
(160,469,ls),
(160,417,o),
(144,401,o),
(47,401,c),
(47,364,l),
(117,364,o),
(160,360,o),
(160,291,cs),
(160,101,ls),
(160,41,o),
(139,37,o),
(48,37,c),
(70,23,l)
);
}
);
width = 222;
}
);
metricLeft = "=n";
unicode = 1074;
},
{
color = 5;
glyphname = "ge-cy";
lastChange = "2024-04-27 16:03:32 +0000";
layers = (
{
layerId = m01;
shapes = (
{
closed = 1;
nodes = (
(189,510,l),
(362,510,l),
(362,670,l),
(22,670,l),
(22,0,l),
(212,0,l),
(212,538,l)
);
}
);
width = 377;
},
{
layerId = m002;
shapes = (
{
closed = 1;
nodes = (
(47,632,l),
(200,632,l),
(200,670,l),
(20,670,l),
(20,0,l),
(70,0,l),
(70,660,l)
);
}
);
width = 205;
}
);
metricLeft = "=n";
metricRight = "=t";
unicode = 1075;
},
{
glyphname = "gestroke-cy";
lastChange = "2024-04-28 13:59:40 +0000";
layers = (
{
layerId = m01;
shapes = (
{
closed = 1;
nodes = (
(254,0,l),
(254,271,l),
(227,251,l),
(364,251,l),
(364,411,l),
(230,411,l),
(254,388,l),
(254,538,l),
(231,510,l),
(404,510,l),
(404,670,l),
(64,670,l),
(64,395,l),
(82,411,l),
(15,411,l),
(15,251,l),
(78,251,l),
(64,264,l),
(64,0,l)
);
}
);
width = 419;
},
{
layerId = m002;
shapes = (
{
closed = 1;
nodes = (
(96,0,l),
(96,382,l),
(88,373,l),
(206,373,l),
(206,411,l),
(89,411,l),
(96,405,l),
(96,660,l),
(73,632,l),
(226,632,l),
(226,670,l),
(46,670,l),
(46,403,l),
(54,411,l),
(4,411,l),
(4,373,l),
(52,373,l),
(46,378,l),
(46,0,l)
);
}
);
width = 231;
}
);
metricLeft = "=t";
metricRight = "=ge-cy";
unicode = 1171;
},
{
color = 5;
glyphname = "de-cy";
lastChange = "2024-04-27 15:09:32 +0000";
layers = (
{
hints = (
{
name = _corner.Lower;
origin = (1,0);
type = Corner;
},
{
name = _corner.Lower;
options = 1;
origin = (1,6);
scale = (-1,1);
type = Corner;
}
);
layerId = m01;
shapes = (
{
closed = 1;
nodes = (
(335,124,l),
(247,124,l),
(265,168,o),
(270,375,o),
(280,568,c),
(260,546,l),
(341,546,l),
(316,568,l),
(316,106,l)
);
},
{
closed = 1;
nodes = (
(506,0,l),
(506,670,l),
(100,670,l),
(100,484,o),
(100,159,o),
(72,124,c),
(72,0,l)
);
}
);
width = 578;
},
{
hints = (
{
name = _corner.Lower;
origin = (1,0);
type = Corner;
},
{
name = _corner.Lower;
options = 1;
origin = (1,6);
scale = (-1,1);
type = Corner;
}
);
layerId = m002;
shapes = (
{
closed = 1;
nodes = (
(220,38,l),
(84,38,l),
(97,70,o),
(120,449,o),
(120,654,c),
(100,632,l),
(226,632,l),
(201,654,l),
(201,20,l)
);
},
{
closed = 1;
nodes = (
(251,0,l),
(251,670,l),
(72,670,l),
(72,467,o),
(55,70,o),
(36,38,c),
(36,0,l)
);
}
);
width = 287;
}
);
unicode = 1076;
},
{
glyphname = "schwa-cy";
lastChange = "2024-04-28 14:00:33 +0000";
layers = (
{
layerId = m01;
shapes = (
{
closed = 1;
nodes = (
(322,-10,o),
(452,0,o),
(452,148,cs),
(452,532,ls),
(452,669,o),
(322,680,o),
(230,680,cs),
(138,680,o),
(10,669,o),
(10,532,cs),
(10,496,l),
(200,496,l),
(200,509,ls),
(200,552,o),
(216,556,o),
(230,556,cs),
(244,556,o),
(260,552,o),
(260,509,cs),
(260,396,l),
(269,408,l),
(10,408,l),
(10,148,ls),
(10,0,o),
(138,-10,o),
(230,-10,cs)
);
},
{
closed = 1;
nodes = (
(211,114,o),
(200,122,o),
(200,161,cs),
(200,324,l),
(155,284,l),
(290,284,l),
(260,312,l),
(260,161,ls),
(260,122,o),
(249,114,o),
(230,114,cs)
);
}
);
width = 462;
},
{
layerId = m002;
shapes = (
{
closed = 1;
nodes = (
(180,-10,o),
(205,29,o),
(205,98,cs),
(205,544,ls),
(205,659,o),
(167,680,o),
(113,680,cs),
(57,680,o),
(13,663,o),
(13,565,cs),
(13,496,l),
(63,496,l),
(63,577,ls),
(63,631,o),
(83,642,o),
(107,642,cs),
(132,642,o),
(153,631,o),
(153,583,cs),
(153,406,l),
(156,411,l),
(13,411,l),
(13,98,ls),
(13,20,o),
(37,-10,o),
(107,-10,cs)
);
},
{
closed = 1;
nodes = (
(76,28,o),
(63,41,o),
(63,90,cs),
(63,387,l),
(48,373,l),
(162,373,l),
(153,380,l),
(153,87,ls),
(153,36,o),
(135,28,o),
(109,28,cs)
);
}
);
width = 218;
}
);
metricLeft = "=o";
metricRight = "=o";
unicode = 1241;
},
{
color = 5;
glyphname = "zhe-cy";
lastChange = "2024-04-28 14:00:48 +0000";
layers = (
{
layerId = m01;
shapes = (
{
closed = 1;
nodes = (
(695,0,l),
(581,386,l),
(572,300,l),
(671,670,l),
(515,670,l),
(408,300,l),
(412,387,l),
(509,0,l)
);
},
{
closed = 1;
nodes = (
(194,0,l),
(291,387,l),
(295,300,l),
(187,670,l),
(31,670,l),
(131,300,l),
(122,386,l),
(8,0,l)
);
},
{
closed = 1;
nodes = (
(436,0,l),
(436,670,l),
(266,670,l),
(266,0,l)
);
}
);
width = 703;
},
{
layerId = m002;
shapes = (
{
closed = 1;
nodes = (
(327,0,l),
(221,416,l),
(218,340,l),
(314,670,l),
(267,670,l),
(169,330,l),
(173,417,l),
(270,0,l)
);
},
{
closed = 1;
nodes = (
(57,0,l),
(154,417,l),
(158,330,l),
(70,670,l),
(18,670,l),
(104,340,l),
(111,416,l),
(5,0,l)
);
},
{
closed = 1;
nodes = (
(188,0,l),
(188,670,l),
(138,670,l),
(138,0,l)
);
}
);
width = 332;
}
);
metricLeft = "=|k";
metricRight = "=k";
unicode = 1078;
},
{
color = 5;
glyphname = "ze-cy";
lastChange = "2024-04-28 14:17:16 +0000";
layers = (
{
layerId = m01;
shapes = (
{
closed = 1;
nodes = (
(12,138,ls),
(12,11,o),
(140,-10,o),
(232,-10,cs),
(324,-10,o),
(451,6,o),
(451,168,cs),
(451,222,ls),
(451,310,o),
(385,376,o),
(244,376,c),
(244,333,l),
(407,333,o),
(445,403,o),
(445,484,cs),
(445,506,ls),
(445,661,o),
(336,680,o),
(244,680,cs),
(140,680,o),
(12,663,o),
(12,522,cs),
(12,461,l),
(192,461,l),
(192,485,ls),
(192,532,o),
(197,556,o),
(230,556,cs),
(249,556,o),
(262,549,o),
(262,512,cs),
(262,487,ls),
(262,427,o),
(237,425,o),
(172,425,c),
(172,276,l),
(227,276,o),
(262,274,o),
(262,199,cs),
(262,161,ls),
(262,118,o),
(241,114,o),
(227,114,cs),
(213,114,o),
(192,118,o),
(192,161,cs),
(192,234,l),
(12,234,l)
);
}
);
width = 461;
},
{
layerId = m002;
shapes = (
{
closed = 1;
nodes = (
(9,138,ls),
(9,27,o),
(35,-10,o),
(101,-10,cs),
(190,-10,o),
(201,58,o),
(201,150,cs),
(201,262,ls),
(201,336,o),
(166,371,o),
(94,371,c),
(94,354,l),
(159,354,o),
(199,390,o),
(199,506,cs),
(199,583,ls),
(199,642,o),
(178,680,o),
(110,680,cs),
(27,680,o),
(6,622,o),
(6,522,cs),
(6,496,l),
(57,496,l),
(57,524,ls),
(57,611,o),
(62,642,o),
(110,642,cs),
(137,642,o),
(147,635,o),
(147,579,cs),
(147,483,ls),
(147,397,o),
(103,381,o),
(58,381,c),
(58,344,l),
(115,344,o),
(149,329,o),
(149,250,cs),
(149,103,ls),
(149,58,o),
(143,28,o),
(104,28,cs),
(67,28,o),
(59,56,o),
(59,123,cs),
(59,234,l),
(9,234,l)
);
}
);
width = 214;
}
);
metricRight = "=o";
unicode = 1079;
},
{
color = 5;
glyphname = "ii-cy";
lastChange = "2024-05-15 06:47:32 +0000";
layers = (
{
anchors = (
{
name = top;
pos = (242,670);
}
);
layerId = m01;
shapes = (
{
closed = 1;
nodes = (
(350,437,l),
(302,496,l),
(302,0,l),
(472,0,l),
(472,670,l),
(302,670,l),
(159,128,l),
(202,143,l),
(202,670,l),
(22,670,l),
(22,0,l),
(202,0,l)
);
}
);
width = 494;
},
{
anchors = (
{
name = top;
pos = (110,670);
}
);
layerId = m002;
shapes = (
{
closed = 1;
nodes = (
(183,603,l),
(170,624,l),
(170,0,l),
(220,0,l),
(220,670,l),
(153,670,l),
(57,51,l),
(70,42,l),
(70,670,l),
(20,670,l),
(20,0,l),
(85,0,l)
);
}
);
width = 240;
}
);
metricLeft = "=n";
metricRight = "=|";
unicode = 1080;
},
{
color = 5;
glyphname = "ka-cy";
lastChange = "2024-04-28 14:02:25 +0000";
layers = (
{
layerId = m01;
shapes = (
{
closed = 1;
nodes = (
(481,0,l),
(357,386,l),
(348,300,l),
(463,670,l),
(292,670,l),
(184,300,l),
(188,387,l),
(295,0,l)
);
},
{
closed = 1;
nodes = (
(212,0,l),
(212,670,l),
(22,670,l),
(22,0,l)
);
}
);
width = 479;
},
{
layerId = m002;
shapes = (
{
closed = 1;
nodes = (
(219,0,l),
(103,416,l),
(100,340,l),
(206,670,l),
(159,670,l),
(51,330,l),
(55,417,l),
(162,0,l)
);
},
{
closed = 1;
nodes = (
(70,0,l),
(70,670,l),
(20,670,l),
(20,0,l)
);
}
);
width = 224;
}
);
metricLeft = "=n";
unicode = 1082;
},
{
color = 4;
glyphname = "kadescender-cy";
lastChange = "2024-04-27 16:03:32 +0000";
layers = (
{
hints = (
{
name = _corner.Lower;
origin = (1,1);
type = Corner;
}
);
layerId = m01;
shapes = (
{
closed = 1;
nodes = (
(22,0,l),
(212,0,l),
(212,670,l),
(22,670,l)
);
},
{
closed = 1;
nodes = (
(305,0,l),
(455,0,l),
(455,124,l),
(357,386,l),
(348,300,l),
(463,670,l),
(292,670,l),
(184,300,l),
(188,387,l)
);
}
);
width = 527;
},
{
background = {
shapes = (
{
pos = (-4,0);
ref = "ka-cy";
}
);
};
hints = (
{
name = _corner.Lower;
origin = (1,1);
type = Corner;
}
);
layerId = m002;
shapes = (
{
closed = 1;
nodes = (
(20,0,l),
(70,0,l),
(70,670,l),
(20,670,l)
);
},
{
closed = 1;
nodes = (
(162,0,l),
(208,0,l),
(208,38,l),
(108,396,l),
(91,310,l),
(206,670,l),
(160,670,l),
(46,310,l),
(60,397,l)
);
}
);
width = 244;
}
);
metricLeft = "=n";
metricRight = "=de-cy";
unicode = 1179;
},
{
color = 5;
glyphname = "el-cy";
lastChange = "2024-10-21 20:14:10 +0000";
layers = (
{
layerId = m01;
shapes = (
{
closed = 1;
nodes = (
(113,0,ls),
(181,0,o),
(236,19,o),
(248,117,cs),
(262,235,o),
(269,389,o),
(274,565,c),
(258,550,l),
(327,550,l),
(312,564,l),
(312,0,l),
(502,0,l),
(502,670,l),
(106,670,l),
(97,494,o),
(89,341,o),
(77,189,cs),
(74,146,o),
(60,130,o),
(15,130,c),
(15,0,l)
);
}
);
width = 524;
},
{
layerId = m002;
shapes = (
{
closed = 1;
nodes = (
(43,0,ls),
(97,0,o),
(106,64,o),
(116,148,cs),
(128,253,o),
(135,432,o),
(140,639,c),
(134,632,l),
(223,632,l),
(217,637,l),
(217,0,l),
(267,0,l),
(267,670,l),
(97,670,l),
(94,512,o),
(83,231,o),
(70,136,cs),
(59,53,o),
(50,40,o),
(20,40,c),
(20,0,l)
);
}
);
width = 287;
},
{
associatedMasterId = m002;
layerId = "3C8C09D5-FF50-483E-89A3-949CCB12B0B5";
name = "22 Oct 24 at 01:13";
shapes = (
{
closed = 1;
nodes = (
(43,0,ls),
(92,0,o),
(106,64,o),
(116,148,cs),
(128,253,o),
(135,432,o),
(140,639,c),
(134,632,l),
(223,632,l),
(217,637,l),
(217,0,l),
(267,0,l),
(267,670,l),
(97,670,l),
(94,512,o),
(83,231,o),
(70,136,cs),
(59,53,o),
(50,40,o),
(20,40,c),
(20,0,l)
);
}
);
width = 287;
}
);
metricRight = "=|n";
unicode = 1083;
},
{
color = 5;
glyphname = "em-cy";
lastChange = "2024-05-15 06:46:09 +0000";
layers = (
{
layerId = m01;
shapes = (
{
closed = 1;
nodes = (
(369,0,l),
(461,549,l),
(440,549,l),
(440,0,l),
(600,0,l),
(600,670,l),
(392,670,l),
(315,166,l),
(339,166,l),
(242,670,l),
(22,670,l),
(22,0,l),
(182,0,l),
(182,549,l),
(162,549,l),
(251,0,l)
);
}
);
width = 622;
},
{
layerId = m002;
shapes = (
{
closed = 1;
nodes = (
(173,0,l),
(238,619,l),
(231,619,l),
(231,0,l),
(281,0,l),
(281,670,l),
(203,670,l),
(145,43,l),
(161,33,l),
(100,670,l),
(20,670,l),
(20,0,l),
(70,0,l),
(70,631,l),
(64,631,l),
(121,0,l)
);
}
);
width = 301;
}
);
metricLeft = "=n";
metricRight = "=|";
unicode = 1084;
},
{
color = 5;
glyphname = "en-cy";
lastChange = "2024-04-27 16:03:32 +0000";
layers = (
{
layerId = m01;
shapes = (
{
closed = 1;
nodes = (
(462,0,l),
(462,670,l),
(272,670,l),
(272,0,l)
);
},
{
closed = 1;
nodes = (
(212,0,l),
(212,670,l),
(22,670,l),
(22,0,l)
);
},
{
closed = 1;
nodes = (
(344,302,l),
(344,426,l),
(154,426,l),
(154,302,l)
);
}
);
width = 484;
},
{
layerId = m002;
shapes = (
{
closed = 1;
nodes = (
(210,0,l),
(210,670,l),
(160,670,l),
(160,0,l)
);
},
{
closed = 1;
nodes = (
(70,0,l),
(70,670,l),
(20,670,l),
(20,0,l)
);
},
{
closed = 1;
nodes = (
(175,373,l),
(175,411,l),
(53,411,l),
(53,373,l)
);
}
);
width = 230;
}
);
metricLeft = "=n";
metricRight = "=|";
unicode = 1085;
},
{
color = 4;
glyphname = "endescender-cy";
lastChange = "2024-04-27 16:03:46 +0000";
layers = (
{
hints = (
{
name = _corner.Lower;
origin = (0,0);
type = Corner;
}
);
layerId = m01;
shapes = (
{
closed = 1;
nodes = (
(462,0,l),
(462,670,l),
(272,670,l),
(272,0,l)
);
},
{
closed = 1;
nodes = (
(212,0,l),
(212,670,l),
(22,670,l),
(22,0,l)
);
},
{
closed = 1;
nodes = (
(344,302,l),
(344,426,l),
(154,426,l),
(154,302,l)
);
}
);
width = 534;
},
{
hints = (
{
name = _corner.Lower;
origin = (0,0);
type = Corner;
}
);
layerId = m002;
shapes = (
{
closed = 1;
nodes = (
(210,0,l),
(210,670,l),
(160,670,l),
(160,0,l)
);
},
{
closed = 1;
nodes = (
(70,0,l),
(70,670,l),
(20,670,l),
(20,0,l)
);
},
{
closed = 1;
nodes = (
(182,373,l),
(182,411,l),
(42,411,l),
(42,373,l)
);
}
);
width = 246;
}
);
metricLeft = "=n";
metricRight = "=tse-cy";
unicode = 1187;
},
{
glyphname = "obarred-cy";
lastChange = "2024-04-27 16:03:32 +0000";
layers = (
{
layerId = m01;
shapes = (
{
closed = 1;
nodes = (
(324,-10,o),
(454,1,o),
(454,138,cs),
(454,522,ls),
(454,670,o),
(324,680,o),
(232,680,cs),
(140,680,o),
(10,670,o),
(10,522,cs),
(10,138,ls),
(10,1,o),
(140,-10,o),
(232,-10,cs)
);
},
{
closed = 1;
nodes = (
(218,114,o),
(202,118,o),
(202,161,cs),
(202,509,ls),
(202,548,o),
(213,556,o),
(232,556,cs),
(251,556,o),
(262,548,o),
(262,509,cs),
(262,161,ls),
(262,118,o),
(246,114,o),
(232,114,cs)
);
},
{
closed = 1;
nodes = (
(65,251,l),
(414,251,l),
(414,411,l),
(65,411,l)
);
}
);
width = 464;
},
{
layerId = m002;
shapes = (
{
closed = 1;
nodes = (
(153,-10,o),
(207,0,o),
(207,80,cs),
(207,590,ls),
(207,670,o),
(153,680,o),
(110,680,cs),
(67,680,o),
(13,670,o),
(13,590,cs),
(13,80,ls),
(13,0,o),
(67,-10,o),
(110,-10,cs)
);
},
{
closed = 1;
nodes = (
(80,28,o),
(65,39,o),
(65,93,cs),
(65,577,ls),
(65,631,o),
(80,642,o),
(110,642,cs),
(140,642,o),
(155,631,o),
(155,577,cs),
(155,93,ls),
(155,39,o),
(140,28,o),
(110,28,cs)
);
},
{
closed = 1;
nodes = (
(55,373,l),
(166,373,l),
(166,411,l),
(55,411,l)
);
}
);
width = 220;
}
);
metricLeft = "=o";
metricRight = "=o";
unicode = 1257;
},
{
color = 5;
glyphname = "pe-cy";
lastChange = "2024-04-27 16:03:32 +0000";
layers = (
{
layerId = m01;
shapes = (
{
closed = 1;
nodes = (
(212,0,l),
(212,554,l),
(177,520,l),
(300,520,l),
(272,554,l),
(272,0,l),
(462,0,l),
(462,670,l),
(22,670,l),
(22,0,l)
);
}
);
width = 484;
},
{
associatedMasterId = m01;
layerId = "F08865E1-DB03-42E1-B973-618802E66E5A";
name = "27 Apr 24 at 12:39";
shapes = (
{
closed = 1;
nodes = (
(212,0,l),
(212,554,l),
(177,520,l),
(300,520,l),
(272,554,l),
(272,0,l),
(462,0,l),
(462,670,l),
(22,670,l),
(22,0,l)
);
}
);
width = 484;
},
{
layerId = m002;
shapes = (
{
closed = 1;
nodes = (
(70,0,l),
(70,666,l),
(35,632,l),
(188,632,l),
(160,666,l),
(160,0,l),
(210,0,l),
(210,670,l),
(20,670,l),
(20,0,l)
);
}
);
width = 230;
},
{
associatedMasterId = m002;
layerId = "03321571-7BBA-4F19-AE91-63089D2EB373";
name = "27 Apr 24 at 12:39";
shapes = (
{
closed = 1;
nodes = (
(212,0,l),
(212,554,l),
(177,520,l),
(300,520,l),
(272,554,l),
(272,0,l),
(462,0,l),
(462,670,l),
(22,670,l),
(22,0,l)
);
}
);
width = 484;
}
);
metricLeft = "=n";
metricRight = "=|n";
unicode = 1087;
},
{
color = 5;
glyphname = "te-cy";
lastChange = "2024-04-27 14:32:14 +0000";
layers = (
{
layerId = m01;
shapes = (
{
closed = 1;
nodes = (
(323,0,l),
(323,660,l),
(133,660,l),
(133,0,l)
);
},
{
closed = 1;
nodes = (
(441,520,l),
(441,670,l),
(15,670,l),
(15,520,l)
);
}
);
width = 456;
},
{
layerId = m002;
shapes = (
{
closed = 1;
nodes = (
(139,0,l),
(139,660,l),
(89,660,l),
(89,0,l)
);
},
{
closed = 1;
nodes = (
(224,632,l),
(224,670,l),
(4,670,l),
(4,632,l)
);
}
);
width = 228;
}
);
metricLeft = "=t";
metricRight = "=|";
unicode = 1090;
},
{
glyphname = "ustraight-cy";
lastChange = "2024-10-20 21:30:44 +0000";
layers = (
{
layerId = m01;
shapes = (
{
closed = 1;
nodes = (
(353,-150,l),
(353,0,l),
(391,0,l),
(515,670,l),
(335,670,l),
(248,24,l),
(311,24,l),
(199,670,l),
(5,670,l),
(124,0,l),
(163,0,l),
(163,-150,l)
);
}
);
width = 520;
},
{
layerId = m002;
shapes = (
{
closed = 1;
nodes = (
(145,-150,l),
(145,0,l),
(145,0,l),
(234,670,l),
(189,670,l),
(110,33,l),
(130,33,l),
(64,670,l),
(4,670,l),
(95,0,l),
(95,0,l),
(95,-150,l)
);
}
);
width = 238;
}
);
metricLeft = "=v";
metricRight = "=v";
unicode = 1199;
},
{
glyphname = "ustraightstroke-cy";
lastChange = "2024-10-20 20:52:26 +0000";
layers = (
{
layerId = m01;
shapes = (
{
closed = 1;
nodes = (
(353,-150,l),
(353,-52,l),
(336,-70,l),
(431,-70,l),
(431,80,l),
(358,80,l),
(380,60,l),
(515,670,l),
(335,670,l),
(258,100,l),
(297,102,l),
(199,670,l),
(5,670,l),
(134,63,l),
(151,80,l),
(82,80,l),
(82,-70,l),
(185,-70,l),
(163,-53,l),
(163,-150,l)
);
}
);
width = 520;
},
{
layerId = m002;
shapes = (
{
closed = 1;
nodes = (
(145,-150,l),
(145,-30,l),
(136,-38,l),
(214,-38,l),
(214,0,l),
(141,0,l),
(148,-16,l),
(234,670,l),
(189,670,l),
(114,33,l),
(132,33,l),
(63,670,l),
(4,670,l),
(91,-13,l),
(103,0,l),
(30,0,l),
(30,-38,l),
(104,-38,l),
(95,-31,l),
(95,-150,l)
);
}
);
width = 238;
}
);
metricLeft = "=v";
metricRight = "=v";
unicode = 1201;
},
{
color = 5;
glyphname = "ef-cy";
lastChange = "2024-04-28 14:06:57 +0000";
layers = (
{
layerId = m01;
shapes = (
{
closed = 1;
nodes = (
(213,-10,o),
(244,9,o),
(261,44,c),
(261,139,l),
(251,131,o),
(242,123,o),
(226,123,cs),
(213,123,o),
(202,131,o),
(202,151,cs),
(202,509,ls),
(202,529,o),
(213,537,o),
(226,537,cs),
(242,537,o),
(251,531,o),
(261,521,c),
(261,645,l),
(245,664,o),
(202,680,o),
(162,680,cs),
(84,680,o),
(10,626,o),
(10,522,cs),
(10,148,ls),
(10,44,o),
(84,-10,o),
(162,-10,cs)
);
},
{
closed = 1;
nodes = (
(610,-10,o),
(684,44,o),
(684,148,cs),
(684,522,ls),
(684,626,o),
(610,680,o),
(532,680,cs),
(492,680,o),
(449,664,o),
(433,645,c),
(433,521,l),
(443,531,o),
(452,537,o),
(468,537,cs),
(481,537,o),
(492,529,o),
(492,509,cs),
(492,151,ls),
(492,131,o),
(481,123,o),
(468,123,cs),
(452,123,o),
(443,131,o),
(433,139,c),
(433,44,l),
(450,9,o),
(481,-10,o),
(532,-10,cs)
);
},
{
closed = 1;
nodes = (
(442,-150,l),
(442,820,l),
(252,820,l),
(252,-150,l)
);
}
);
width = 694;
},
{
layerId = m002;
shapes = (
{
closed = 1;
nodes = (
(131,-10,o),
(163,18,o),
(176,31,c),
(169,52,l),
(153,39,o),
(129,29,o),
(110,29,cs),
(66,29,o),
(65,82,o),
(65,107,cs),
(65,563,ls),
(65,588,o),
(66,641,o),
(112,641,cs),
(126,641,o),
(148,636,o),
(168,618,c),
(176,639,l),
(163,655,o),
(141,680,o),
(98,680,cs),
(21,680,o),
(13,601,o),
(13,564,cs),
(13,106,ls),
(13,69,o),
(13,-10,o),
(87,-10,cs)
);
},
{
closed = 1;
nodes = (
(327,-10,o),
(327,69,o),
(327,106,cs),
(327,564,ls),
(327,601,o),
(319,680,o),
(242,680,cs),
(199,680,o),
(177,655,o),
(164,639,c),
(172,618,l),
(192,636,o),
(214,641,o),
(228,641,cs),
(274,641,o),
(275,588,o),
(275,563,cs),
(275,107,ls),
(275,82,o),
(274,29,o),
(230,29,cs),
(211,29,o),
(187,39,o),
(171,52,c),
(164,31,l),
(177,18,o),
(209,-10,o),
(253,-10,cs)
);
},
{
closed = 1;
nodes = (
(195,-150,l),
(195,820,l),
(145,820,l),
(145,-150,l)
);
}
);
width = 340;
}
);
metricLeft = "=o";
metricRight = "=o";
unicode = 1092;
},
{
color = 5;
glyphname = "che-cy";
lastChange = "2024-04-28 14:08:36 +0000";
layers = (
{
layerId = m01;
shapes = (
{
closed = 1;
nodes = (
(273,169,l),
(273,0,l),
(463,0,l),
(463,670,l),
(273,670,l),
(273,276,l),
(278,284,l),
(247,284,ls),
(213,284,o),
(213,330,o),
(213,355,cs),
(213,670,l),
(22,670,l),
(22,301,ls),
(22,217,o),
(74,160,o),
(192,160,cs),
(285,160,l)
);
}
);
width = 485;
},
{
layerId = m002;
shapes = (
{
closed = 1;
nodes = (
(152,164,l),
(152,0,l),
(202,0,l),
(202,670,l),
(152,670,l),
(152,191,l),
(159,197,l),
(124,197,ls),
(70,197,o),
(62,215,o),
(62,279,cs),
(62,670,l),
(12,670,l),
(12,301,ls),
(12,185,o),
(35,159,o),
(113,159,cs),
(159,159,l)
);
}
);
width = 222;
}
);
metricRight = "=|n";
unicode = 1095;
},
{
color = 5;
glyphname = "tse-cy";
lastChange = "2024-04-27 16:03:38 +0000";
layers = (
{
hints = (
{
name = _corner.Lower;
origin = (0,0);
scale = (-1,-1);
type = Corner;
}
);
layerId = m01;
shapes = (
{
closed = 1;
nodes = (
(462,0,l),
(462,670,l),
(272,670,l),
(272,96,l),
(300,124,l),
(177,124,l),
(212,84,l),
(212,670,l),
(22,670,l),
(22,0,l)
);
}
);
width = 534;
},
{
hints = (
{
name = _corner.Lower;
origin = (0,0);
scale = (-1,-1);
type = Corner;
}
);
layerId = m002;
shapes = (
{
closed = 1;
nodes = (
(210,0,l),
(210,670,l),
(160,670,l),
(160,15,l),
(188,38,l),
(35,38,l),
(70,19,l),
(70,670,l),
(20,670,l),
(20,0,l)
);
}
);
width = 246;
}
);
metricLeft = "=n";
metricRight = "=de-cy";
unicode = 1094;
},
{
color = 5;
glyphname = "sha-cy";
lastChange = "2024-04-27 16:03:32 +0000";
layers = (
{
layerId = m01;
shapes = (
{
closed = 1;
nodes = (
(692,0,l),
(692,670,l),
(502,670,l),
(502,79,l),
(547,124,l),
(407,124,l),
(452,79,l),
(452,670,l),
(262,670,l),
(262,96,l),
(290,124,l),
(177,124,l),
(212,84,l),
(212,670,l),
(22,670,l),
(22,0,l)
);
}
);
width = 714;
},
{
layerId = m002;
shapes = (
{
closed = 1;
nodes = (
(330,0,l),
(330,670,l),
(280,670,l),
(280,19,l),
(315,38,l),
(185,38,l),
(200,19,l),
(200,670,l),
(150,670,l),
(150,10,l),
(166,38,l),
(35,38,l),
(70,10,l),
(70,670,l),
(20,670,l),
(20,0,l)
);
}
);
width = 350;
}
);
metricLeft = "=n";
metricRight = "=|";
unicode = 1096;
},
{
color = 5;
glyphname = "shcha-cy";
lastChange = "2024-04-27 16:03:38 +0000";
layers = (
{
hints = (
{
name = _corner.Lower;
origin = (0,0);
type = Corner;
}
);
layerId = m01;
shapes = (
{
closed = 1;
nodes = (
(692,0,l),
(692,670,l),
(502,670,l),
(502,79,l),
(547,124,l),
(407,124,l),
(452,79,l),
(452,670,l),
(262,670,l),
(262,96,l),
(290,124,l),
(177,124,l),
(212,84,l),
(212,670,l),
(22,670,l),
(22,0,l)
);
}
);
width = 764;
},
{
hints = (
{
name = _corner.Lower;
origin = (0,0);
type = Corner;
}
);
layerId = m002;
shapes = (
{
closed = 1;
nodes = (
(330,0,l),
(330,670,l),
(280,670,l),
(280,19,l),
(315,38,l),
(185,38,l),
(200,19,l),
(200,670,l),
(150,670,l),
(150,10,l),
(166,38,l),
(35,38,l),
(70,10,l),
(70,670,l),
(20,670,l),
(20,0,l)
);
}
);
width = 366;
}
);
metricLeft = "=n";
metricRight = "=de-cy";
unicode = 1097;
},
{
color = 5;
glyphname = "hardsign-cy";
lastChange = "2024-04-28 14:10:45 +0000";
layers = (
{
layerId = m01;
shapes = (
{
closed = 1;
nodes = (
(373,0,ls),
(490,0,o),
(549,48,o),
(549,234,cs),
(549,277,ls),
(549,402,o),
(497,462,o),
(376,462,cs),
(286,462,l),
(299,450,l),
(299,670,l),
(15,670,l),
(15,520,l),
(153,520,l),
(109,544,l),
(109,0,l)
);
},
{
closed = 1;
nodes = (
(299,325,l),
(291,314,l),
(308,314,ls),
(340,314,o),
(359,301,o),
(359,261,cs),
(359,197,ls),
(359,165,o),
(346,150,o),
(321,150,cs),
(288,150,l),
(299,135,l)
);
}
);
width = 564;
},
{
layerId = m002;
shapes = (
{
closed = 1;
nodes = (
(195,0,ls),
(239,0,o),
(282,30,o),
(282,110,cs),
(282,356,ls),
(282,428,o),
(247,462,o),
(176,462,cs),
(133,462,l),
(140,457,l),
(140,670,l),
(4,670,l),
(4,632,l),
(103,632,l),
(90,642,l),
(90,0,l)
);
},
{
closed = 1;
nodes = (
(140,435,l),
(134,424,l),
(167,424,ls),
(211,424,o),
(230,412,o),
(230,379,cs),
(230,95,ls),
(230,50,o),
(195,38,o),
(158,38,cs),
(129,38,l),
(140,24,l)
);
}
);
width = 287;
}
);
metricLeft = "=t";
unicode = 1098;
},
{
color = 5;
glyphname = "yeru-cy";
lastChange = "2024-04-28 14:12:17 +0000";
layers = (
{
layerId = m01;
shapes = (
{
closed = 1;
nodes = (
(286,0,ls),
(403,0,o),
(462,48,o),
(462,234,cs),
(462,277,ls),
(462,402,o),
(410,462,o),
(289,462,cs),
(199,462,l),
(212,450,l),
(212,670,l),
(22,670,l),
(22,0,l)
);
},
{
closed = 1;
nodes = (
(212,325,l),
(204,314,l),
(221,314,ls),
(253,314,o),
(272,301,o),
(272,261,cs),
(272,197,ls),
(272,165,o),
(259,150,o),
(234,150,cs),
(201,150,l),
(212,135,l)
);
},
{
closed = 1;
nodes = (
(691,0,l),
(691,670,l),
(501,670,l),
(501,0,l)
);
}
);
width = 713;
},
{
layerId = m002;
shapes = (
{
closed = 1;
nodes = (
(125,0,ls),
(169,0,o),
(212,30,o),
(212,110,cs),
(212,356,ls),
(212,428,o),
(177,462,o),
(106,462,cs),
(63,462,l),
(70,457,l),
(70,670,l),
(20,670,l),
(20,0,l)
);
},
{
closed = 1;
nodes = (
(70,435,l),
(64,424,l),
(97,424,ls),
(141,424,o),
(160,412,o),
(160,379,cs),
(160,95,ls),
(160,50,o),
(125,38,o),
(88,38,cs),
(59,38,l),
(70,24,l)
);
},
{
closed = 1;
nodes = (
(292,0,l),
(292,670,l),
(242,670,l),
(242,0,l)
);
}
);
width = 312;
}
);
metricLeft = "=n";
metricRight = "=|n";
unicode = 1099;
},
{
color = 5;
glyphname = "softsign-cy";
lastChange = "2024-04-28 14:12:14 +0000";
layers = (
{
layerId = m01;
shapes = (
{
closed = 1;
nodes = (
(286,0,ls),
(403,0,o),
(462,48,o),
(462,234,cs),
(462,277,ls),
(462,402,o),
(410,462,o),
(289,462,cs),
(199,462,l),
(212,450,l),
(212,670,l),
(22,670,l),
(22,0,l)
);
},
{
closed = 1;
nodes = (
(212,325,l),
(204,314,l),
(221,314,ls),
(253,314,o),
(272,301,o),
(272,261,cs),
(272,197,ls),
(272,165,o),
(259,150,o),
(234,150,cs),
(201,150,l),
(212,135,l)
);
}
);
width = 486;
},
{
layerId = m002;
shapes = (
{
closed = 1;
nodes = (
(125,0,ls),
(169,0,o),
(212,30,o),
(212,110,cs),
(212,356,ls),
(212,428,o),
(177,462,o),
(106,462,cs),
(63,462,l),
(70,457,l),
(70,670,l),
(20,670,l),
(20,0,l)
);
},
{
closed = 1;
nodes = (
(70,435,l),
(64,424,l),
(97,424,ls),
(141,424,o),
(160,412,o),
(160,379,cs),
(160,95,ls),
(160,50,o),
(125,38,o),
(88,38,cs),
(59,38,l),
(70,24,l)
);
}
);
width = 217;
}
);
metricLeft = "=n";
unicode = 1100;
},
{
color = 5;
glyphname = "ereversed-cy";
lastChange = "2024-04-28 14:13:07 +0000";
layers = (
{
layerId = m01;
shapes = (
{
closed = 1;
nodes = (
(324,-10,o),
(452,1,o),
(452,138,cs),
(452,522,ls),
(452,670,o),
(324,680,o),
(232,680,cs),
(140,680,o),
(10,660,o),
(10,522,cs),
(10,461,l),
(192,461,l),
(192,507,ls),
(192,538,o),
(203,556,o),
(232,556,cs),
(251,556,o),
(262,548,o),
(262,509,cs),
(262,405,l),
(285,425,l),
(124,425,l),
(124,276,l),
(278,276,l),
(262,292,l),
(262,161,ls),
(262,118,o),
(246,114,o),
(232,114,cs),
(208,114,o),
(192,118,o),
(192,161,cs),
(192,244,l),
(10,244,l),
(10,138,ls),
(10,11,o),
(140,-10,o),
(232,-10,cs)
);
}
);
width = 462;
},
{
layerId = m002;
shapes = (
{
closed = 1;
nodes = (
(195,-10,o),
(206,58,o),
(206,150,cs),
(206,583,ls),
(206,642,o),
(185,680,o),
(117,680,cs),
(34,680,o),
(13,622,o),
(13,522,cs),
(13,496,l),
(64,496,l),
(64,535,ls),
(64,613,o),
(70,642,o),
(112,642,cs),
(144,642,o),
(154,635,o),
(154,579,cs),
(154,376,l),
(164,384,l),
(47,384,l),
(47,346,l),
(165,346,l),
(154,354,l),
(154,103,ls),
(154,58,o),
(148,28,o),
(109,28,cs),
(72,28,o),
(64,56,o),
(64,123,cs),
(64,234,l),
(14,234,l),
(14,138,ls),
(14,27,o),
(40,-10,o),
(106,-10,cs)
);
}
);
width = 219;
}
);
metricLeft = "=o";
metricRight = "=o";
unicode = 1101;
},
{
color = 5;
glyphname = "yu-cy";
lastChange = "2024-04-28 14:13:37 +0000";
layers = (
{
layerId = m01;
shapes = (
{
closed = 1;
nodes = (
(576,-10,o),
(706,1,o),
(706,138,cs),
(706,522,ls),
(706,670,o),
(576,680,o),
(484,680,cs),
(392,680,o),
(262,670,o),
(262,522,cs),
(262,406,l),
(281,426,l),
(180,426,l),
(212,395,l),
(212,670,l),
(22,670,l),
(22,0,l),
(212,0,l),
(212,332,l),
(184,302,l),
(292,302,l),
(262,329,l),
(262,138,ls),
(262,1,o),
(392,-10,o),
(484,-10,cs)
);
},
{
closed = 1;
nodes = (
(470,114,o),
(454,118,o),
(454,161,cs),
(454,509,ls),
(454,548,o),
(465,556,o),
(484,556,cs),
(503,556,o),
(514,548,o),
(514,509,cs),
(514,161,ls),
(514,118,o),
(498,114,o),
(484,114,cs)
);
}
);
width = 716;
},
{
layerId = m002;
shapes = (
{
closed = 1;
nodes = (
(280,-10,o),
(334,0,o),
(334,80,cs),
(334,590,ls),
(334,670,o),
(280,680,o),
(237,680,cs),
(194,680,o),
(140,670,o),
(140,590,cs),
(140,396,l),
(153,411,l),
(60,411,l),
(70,403,l),
(70,670,l),
(20,670,l),
(20,0,l),
(70,0,l),
(70,379,l),
(64,373,l),
(144,373,l),
(140,377,l),
(140,80,ls),
(140,0,o),
(194,-10,o),
(237,-10,cs)
);
},
{
closed = 1;
nodes = (
(207,28,o),
(192,39,o),
(192,93,cs),
(192,577,ls),
(192,631,o),
(207,642,o),
(237,642,cs),
(267,642,o),
(282,631,o),
(282,577,cs),
(282,93,ls),
(282,39,o),
(267,28,o),
(237,28,cs)
);
}
);
width = 347;
}
);
metricLeft = "=n";
metricRight = "=o";
unicode = 1102;
},
{
color = 5;
glyphname = "ya-cy";
lastChange = "2024-04-28 14:15:56 +0000";
layers = (
{
layerId = m01;
shapes = (
{
closed = 1;
nodes = (
(468,0,l),
(468,670,l),
(226,670,ls),
(97,670,o),
(26,615,o),
(26,445,cs),
(26,411,ls),
(26,269,o),
(67,195,o),
(201,195,cs),
(286,195,l),
(278,203,l),
(278,0,l)
);
},
{
closed = 1;
nodes = (
(197,0,l),
(266,237,l),
(112,286,l),
(13,0,l)
);
},
{
closed = 1;
nodes = (
(295,319,l),
(269,319,ls),
(237,319,o),
(218,331,o),
(218,371,cs),
(218,498,ls),
(218,531,o),
(233,546,o),
(259,546,cs),
(289,546,l),
(278,560,l),
(278,302,l)
);
}
);
width = 490;
},
{
layerId = m002;
shapes = (
{
closed = 1;
nodes = (
(218,0,l),
(218,670,l),
(148,670,ls),
(38,670,o),
(26,636,o),
(26,548,cs),
(26,300,ls),
(26,229,o),
(43,195,o),
(148,195,cs),
(175,195,l),
(168,200,l),
(168,0,l)
);
},
{
closed = 1;
nodes = (
(64,0,l),
(104,220,l),
(59,230,l),
(10,0,l)
);
},
{
closed = 1;
nodes = (
(175,233,l),
(150,233,ls),
(99,233,o),
(78,243,o),
(78,285,cs),
(78,584,ls),
(78,623,o),
(100,632,o),
(155,632,cs),
(179,632,l),
(168,646,l),
(168,226,l)
);
}
);
width = 238;
}
);
metricRight = "=|n";
unicode = 1103;
},
{
glyphname = "a_kadescender-cy";
lastChange = "2025-03-25 22:13:26 +0000";
layers = (
{
hints = (
{
name = _corner.Lower;
origin = (2,1);
type = Corner;
}
);
layerId = m002;
shapes = (
{
closed = 1;
nodes = (
(205,0,l),
(205,551,ls),
(205,627,o),
(197,680,o),
(118,680,cs),
(36,680,o),
(16,623,o),
(16,556,c),
(65,556,l),
(65,628,o),
(83,642,o),
(115,642,cs),
(138,642,o),
(155,635,o),
(155,582,cs),
(155,35,l),
(175,0,l)
);
},
{
closed = 1;
nodes = (
(13,106,ls),
(13,69,o),
(24,-10,o),
(95,-10,cs),
(134,-10,o),
(154,14,o),
(176,41,c),
(163,54,l),
(152,41,o),
(143,31,o),
(120,31,cs),
(67,31,o),
(65,86,o),
(65,143,cs),
(65,333,ls),
(65,381,o),
(67,411,o),
(113,411,cs),
(156,411,o),
(212,385,o),
(229,367,c),
(243,404,l),
(227,416,o),
(152,455,o),
(95,455,cs),
(31,455,o),
(13,417,o),
(13,343,cs)
);
},
{
closed = 1;
nodes = (
(319,0,l),
(365,0,l),
(365,38,l),
(265,396,l),
(248,310,l),
(363,670,l),
(317,670,l),
(203,310,l),
(217,397,l)
);
}
);
width = 401;
},
{
hints = (
{
name = _corner.Lower;
origin = (2,1);
type = Corner;
}
);
layerId = m01;
shapes = (
{
closed = 1;
nodes = (
(450,0,l),
(450,522,ls),
(450,670,o),
(322,680,o),
(232,680,cs),
(92,680,o),
(12,617,o),
(12,496,c),
(200,496,l),
(200,544,o),
(207,556,o),
(231,556,cs),
(247,556,o),
(260,549,o),
(260,509,cs),
(260,24,l),
(297,0,l)
);
},
{
closed = 1;
nodes = (
(10,106,ls),
(10,69,o),
(18,-10,o),
(137,-10,cs),
(235,-10,o),
(293,42,o),
(337,82,c),
(283,167,l),
(263,149,o),
(251,139,o),
(235,139,cs),
(201,139,o),
(200,175,o),
(200,200,cs),
(200,259,ls),
(200,286,o),
(201,310,o),
(241,310,cs),
(282,310,o),
(507,263,o),
(530,251,c),
(551,397,l),
(510,411,o),
(333,455,o),
(171,455,cs),
(18,455,o),
(10,360,o),
(10,286,cs)
);
},
{
closed = 1;
nodes = (
(545,0,l),
(695,0,l),
(695,124,l),
(597,386,l),
(588,300,l),
(703,670,l),
(532,670,l),
(424,300,l),
(428,387,l)
);
}
);
width = 767;
},
{
associatedMasterId = m002;
hints = (
{
name = _corner.Lower;
origin = (2,1);
type = Corner;
}
);
layerId = "AF12ABEC-971F-4B06-B78A-A61A0882AAD7";
name = "26 Mar 25 at 03:10";
shapes = (
{
closed = 1;
nodes = (
(205,0,l),
(205,551,ls),
(205,627,o),
(197,680,o),
(118,680,cs),
(36,680,o),
(16,623,o),
(16,556,c),
(65,556,l),
(65,628,o),
(83,642,o),
(115,642,cs),
(138,642,o),
(155,635,o),
(155,582,cs),
(155,35,l),
(175,0,l)
);
},
{
closed = 1;
nodes = (
(13,106,ls),
(13,69,o),
(24,-10,o),
(95,-10,cs),
(134,-10,o),
(154,14,o),
(176,41,c),
(163,54,l),
(152,41,o),
(143,31,o),
(120,31,cs),
(67,31,o),
(65,86,o),
(65,143,cs),
(65,333,ls),
(65,381,o),
(67,411,o),
(113,411,cs),
(143,411,o),
(159,398,o),
(176,383,c),
(180,403,l),
(165,422,o),
(134,455,o),
(84,455,cs),
(31,455,o),
(13,417,o),
(13,343,cs)
);
},
{
closed = 1;
nodes = (
(297,0,l),
(343,0,l),
(343,38,l),
(243,396,l),
(226,310,l),
(341,670,l),
(295,670,l),
(181,310,l),
(195,397,l)
);
}
);
width = 379;
}
);
metricLeft = "a-cy";
metricRight = "kadescender-cy";
},
{
glyphname = "a_en-cy";
lastChange = "2025-03-25 22:51:31 +0000";
layers = (
{
layerId = m002;
shapes = (
{
closed = 1;
nodes = (
(205,0,l),
(205,551,ls),
(205,627,o),
(197,680,o),
(118,680,cs),
(36,680,o),
(16,623,o),
(16,556,c),
(65,556,l),
(65,628,o),
(83,642,o),
(115,642,cs),
(138,642,o),
(155,635,o),
(155,582,cs),
(155,35,l),
(175,0,l)
);
},
{
closed = 1;
nodes = (
(13,106,ls),
(13,69,o),
(24,-10,o),
(95,-10,cs),
(134,-10,o),
(154,14,o),
(176,41,c),
(163,54,l),
(152,41,o),
(143,31,o),
(120,31,cs),
(67,31,o),
(65,86,o),
(65,143,cs),
(65,333,ls),
(65,381,o),
(67,411,o),
(113,411,cs),
(135,411,o),
(164,390,o),
(181,377,c),
(188,411,l),
(173,423,o),
(145,455,o),
(84,455,cs),
(31,455,o),
(13,417,o),
(13,343,cs)
);
},
{
closed = 1;
nodes = (
(345,0,l),
(345,670,l),
(295,670,l),
(295,0,l)
);
},
{
closed = 1;
nodes = (
(197,372,o),
(232,363,o),
(254,363,cs),
(273,363,o),
(291,367,o),
(310,373,c),
(310,411,l),
(291,405,o),
(272,401,o),
(253,401,cs),
(231,401,o),
(210,405,o),
(188,411,c),
(181,377,l)
);
}
);
width = 365;
},
{
layerId = m01;
shapes = (
{
closed = 1;
nodes = (
(450,0,l),
(450,522,ls),
(450,670,o),
(322,680,o),
(232,680,cs),
(92,680,o),
(12,617,o),
(12,496,c),
(200,496,l),
(200,544,o),
(207,556,o),
(231,556,cs),
(247,556,o),
(260,549,o),
(260,509,cs),
(260,24,l),
(297,0,l)
);
},
{
closed = 1;
nodes = (
(10,106,ls),
(10,69,o),
(18,-10,o),
(137,-10,cs),
(235,-10,o),
(293,42,o),
(337,82,c),
(283,167,l),
(263,149,o),
(251,139,o),
(235,139,cs),
(201,139,o),
(200,175,o),
(200,200,cs),
(200,259,ls),
(200,286,o),
(201,313,o),
(241,313,cs),
(260,313,o),
(302,297,o),
(322,288,c),
(392,404,l),
(312,430,o),
(247,455,o),
(164,455,cs),
(18,455,o),
(10,360,o),
(10,286,cs)
);
},
{
closed = 1;
nodes = (
(700,0,l),
(700,670,l),
(510,670,l),
(510,0,l)
);
},
{
closed = 1;
nodes = (
(422,278,o),
(452,274,o),
(482,274,cs),
(515,274,o),
(549,278,o),
(582,280,c),
(582,404,l),
(548,402,o),
(515,398,o),
(481,398,cs),
(451,398,o),
(422,402,o),
(392,404,c),
(392,280,l)
);
}
);
width = 722;
}
);
metricLeft = "a-cy";
metricRight = "en-cy";
},
{
glyphname = "a_es-cy";
lastChange = "2025-03-31 09:50:07 +0000";
layers = (
{
layerId = m002;
shapes = (
{
closed = 1;
nodes = (
(295,-10,o),
(349,0,o),
(349,80,cs),
(349,343,l),
(297,343,l),
(297,93,ls),
(297,39,o),
(282,28,o),
(252,28,cs),
(222,28,o),
(205,39,o),
(205,93,cs),
(205,107,l),
(205,551,ls),
(205,623,o),
(189,680,o),
(118,680,cs),
(36,680,o),
(16,623,o),
(16,556,c),
(65,556,l),
(65,628,o),
(83,642,o),
(115,642,cs),
(138,642,o),
(155,635,o),
(155,582,cs),
(155,107,l),
(155,80,ls),
(155,0,o),
(209,-10,o),
(252,-10,cs)
);
},
{
closed = 1;
nodes = (
(134,-10,o),
(154,14,o),
(176,41,c),
(163,54,l),
(152,41,o),
(143,31,o),
(120,31,cs),
(67,31,o),
(65,86,o),
(65,143,cs),
(65,333,ls),
(65,381,o),
(67,411,o),
(113,411,cs),
(143,411,o),
(159,398,o),
(176,383,c),
(180,403,l),
(165,422,o),
(134,455,o),
(84,455,cs),
(31,455,o),
(13,417,o),
(13,343,cs),
(13,106,ls),
(13,69,o),
(24,-10,o),
(95,-10,cs)
);
},
{
closed = 1;
nodes = (
(349,556,l),
(349,590,ls),
(349,670,o),
(295,680,o),
(252,680,cs),
(220,680,o),
(155,661,o),
(155,590,cs),
(155,552,l),
(205,552,l),
(205,577,ls),
(205,631,o),
(222,642,o),
(252,642,cs),
(282,642,o),
(297,631,o),
(297,577,cs),
(297,556,l)
);
}
);
width = 362;
},
{
layerId = m01;
shapes = (
{
closed = 1;
nodes = (
(574,-10,o),
(704,1,o),
(704,138,cs),
(704,343,l),
(512,343,l),
(512,161,ls),
(512,118,o),
(496,114,o),
(482,114,cs),
(468,114,o),
(450,118,o),
(450,161,cs),
(450,185,l),
(450,522,ls),
(450,651,o),
(327,680,o),
(225,680,cs),
(92,680,o),
(12,617,o),
(12,496,c),
(200,496,l),
(200,544,o),
(207,556,o),
(231,556,cs),
(247,556,o),
(260,549,o),
(260,509,cs),
(260,185,l),
(260,138,ls),
(260,1,o),
(390,-10,o),
(482,-10,cs)
);
},
{
closed = 1;
nodes = (
(235,-10,o),
(293,42,o),
(337,82,c),
(283,167,l),
(263,149,o),
(251,139,o),
(235,139,cs),
(201,139,o),
(200,175,o),
(200,200,cs),
(200,259,ls),
(200,286,o),
(201,310,o),
(234,310,cs),
(251,310,o),
(263,300,o),
(283,282,c),
(337,363,l),
(293,403,o),
(235,455,o),
(138,455,cs),
(18,455,o),
(10,360,o),
(10,286,cs),
(10,106,ls),
(10,69,o),
(18,-10,o),
(137,-10,cs)
);
},
{
closed = 1;
nodes = (
(704,496,l),
(704,522,ls),
(704,670,o),
(574,680,o),
(512,680,cs),
(417,680,o),
(260,647,o),
(260,522,cs),
(260,480,l),
(450,480,l),
(450,509,ls),
(450,548,o),
(463,556,o),
(482,556,cs),
(501,556,o),
(512,548,o),
(512,509,cs),
(512,496,l)
);
}
);
width = 714;
}
);
metricLeft = "a-cy";
metricRight = "es-cy";
},
{
glyphname = "en_yeru_endescender-cy";
lastChange = "2025-03-31 09:43:39 +0000";
layers = (
{
hints = (
{
name = _corner.Lower;
origin = (4,0);
type = Corner;
}
);
layerId = m002;
shapes = (
{
closed = 1;
nodes = (
(70,0,l),
(70,670,l),
(20,670,l),
(20,0,l)
);
},
{
closed = 1;
nodes = (
(175,373,l),
(175,411,l),
(53,411,l),
(53,373,l)
);
},
{
closed = 1;
nodes = (
(265,0,ls),
(309,0,o),
(352,30,o),
(352,110,cs),
(352,305,ls),
(352,377,o),
(317,411,o),
(246,411,cs),
(203,411,l),
(210,406,l),
(210,670,l),
(160,670,l),
(160,0,l)
);
},
{
closed = 1;
nodes = (
(210,384,l),
(204,373,l),
(237,373,ls),
(281,373,o),
(300,361,o),
(300,328,cs),
(300,95,ls),
(300,50,o),
(265,38,o),
(228,38,cs),
(199,38,l),
(210,24,l)
);
},
{
closed = 1;
nodes = (
(582,0,l),
(582,670,l),
(532,670,l),
(532,0,l)
);
},
{
closed = 1;
nodes = (
(442,0,l),
(442,670,l),
(392,670,l),
(392,0,l)
);
},
{
closed = 1;
nodes = (
(554,373,l),
(554,411,l),
(414,411,l),
(414,373,l)
);
}
);
width = 618;
},
{
hints = (
{
name = _corner.Lower;
origin = (4,0);
type = Corner;
}
);
layerId = m01;
shapes = (
{
closed = 1;
nodes = (
(212,0,l),
(212,670,l),
(22,670,l),
(22,0,l)
);
},
{
closed = 1;
nodes = (
(344,302,l),
(344,426,l),
(154,426,l),
(154,302,l)
);
},
{
closed = 1;
nodes = (
(536,0,ls),
(653,0,o),
(712,48,o),
(712,234,cs),
(712,277,ls),
(712,402,o),
(660,462,o),
(539,462,cs),
(449,462,l),
(462,450,l),
(462,670,l),
(272,670,l),
(272,0,l)
);
},
{
closed = 1;
nodes = (
(462,325,l),
(454,314,l),
(471,314,ls),
(503,314,o),
(522,301,o),
(522,261,cs),
(522,197,ls),
(522,165,o),
(509,150,o),
(484,150,cs),
(451,150,l),
(462,135,l)
);
},
{
closed = 1;
nodes = (
(1192,0,l),
(1192,670,l),
(1002,670,l),
(1002,0,l)
);
},
{
closed = 1;
nodes = (
(942,0,l),
(942,670,l),
(752,670,l),
(752,0,l)
);
},
{
closed = 1;
nodes = (
(1074,302,l),
(1074,426,l),
(884,426,l),
(884,302,l)
);
}
);
width = 1264;
}
);
metricLeft = "en-cy";
metricRight = "endescender-cy";
},
{
glyphname = "es_es-cy";
lastChange = "2025-03-25 22:25:49 +0000";
layers = (
{
layerId = m002;
shapes = (
{
closed = 1;
nodes = (
(153,-10,o),
(207,0,o),
(207,80,cs),
(207,240,ls),
(207,294,o),
(222,305,o),
(252,305,c),
(252,343,l),
(209,343,o),
(155,333,o),
(155,253,cs),
(155,93,ls),
(155,39,o),
(140,28,o),
(110,28,cs),
(80,28,o),
(65,39,o),
(65,93,cs),
(65,577,ls),
(65,631,o),
(80,642,o),
(110,642,cs),
(140,642,o),
(155,631,o),
(155,577,cs),
(155,496,l),
(207,496,l),
(207,590,ls),
(207,670,o),
(153,680,o),
(110,680,cs),
(67,680,o),
(13,670,o),
(13,590,cs),
(13,80,ls),
(13,0,o),
(67,-10,o),
(110,-10,cs)
);
},
{
closed = 1;
nodes = (
(363,-10,o),
(417,0,o),
(417,80,cs),
(417,343,l),
(365,343,l),
(365,93,ls),
(365,39,o),
(350,28,o),
(320,28,cs),
(290,28,o),
(275,39,o),
(275,93,cs),
(275,577,ls),
(275,631,o),
(290,642,o),
(320,642,cs),
(350,642,o),
(365,631,o),
(365,577,cs),
(365,496,l),
(417,496,l),
(417,590,ls),
(417,670,o),
(363,680,o),
(320,680,cs),
(277,680,o),
(223,670,o),
(223,590,cs),
(223,80,ls),
(223,0,o),
(277,-10,o),
(320,-10,cs)
);
}
);
width = 430;
},
{
layerId = m01;
shapes = (
{
closed = 1;
nodes = (
(324,-10,o),
(454,1,o),
(454,138,cs),
(454,185,ls),
(454,211,o),
(465,219,o),
(484,219,c),
(484,343,l),
(392,343,o),
(262,333,o),
(262,185,cs),
(262,161,ls),
(262,118,o),
(246,114,o),
(232,114,cs),
(218,114,o),
(202,118,o),
(202,161,cs),
(202,509,ls),
(202,548,o),
(213,556,o),
(232,556,cs),
(251,556,o),
(262,548,o),
(262,509,cs),
(262,411,l),
(454,411,l),
(454,522,ls),
(454,670,o),
(324,680,o),
(232,680,cs),
(140,680,o),
(10,670,o),
(10,522,cs),
(10,138,ls),
(10,1,o),
(140,-10,o),
(232,-10,cs)
);
},
{
closed = 1;
nodes = (
(788,-10,o),
(918,1,o),
(918,138,cs),
(918,343,l),
(726,343,l),
(726,161,ls),
(726,118,o),
(710,114,o),
(696,114,cs),
(682,114,o),
(666,118,o),
(666,161,cs),
(666,509,ls),
(666,548,o),
(677,556,o),
(696,556,cs),
(715,556,o),
(726,548,o),
(726,509,cs),
(726,411,l),
(918,411,l),
(918,522,ls),
(918,670,o),
(788,680,o),
(696,680,cs),
(604,680,o),
(474,670,o),
(474,522,cs),
(474,138,ls),
(474,1,o),
(604,-10,o),
(696,-10,cs)
);
}
);
width = 928;
}
);
metricLeft = "es-cy";
metricRight = "es-cy";
},
{
glyphname = "te_te-cy";
lastChange = "2025-03-31 09:44:27 +0000";
layers = (
{
layerId = m002;
shapes = (
{
closed = 1;
nodes = (
(139,0,l),
(139,660,l),
(89,660,l),
(89,0,l)
);
},
{
closed = 1;
nodes = (
(224,632,l),
(224,670,l),
(4,670,l),
(4,632,l)
);
},
{
closed = 1;
nodes = (
(289,0,l),
(289,660,l),
(239,660,l),
(239,0,l)
);
},
{
closed = 1;
nodes = (
(374,632,l),
(374,670,l),
(154,670,l),
(154,632,l)
);
}
);
width = 378;
},
{
layerId = m01;
shapes = (
{
closed = 1;
nodes = (
(323,0,l),
(323,660,l),
(133,660,l),
(133,0,l)
);
},
{
closed = 1;
nodes = (
(441,520,l),
(441,670,l),
(15,670,l),
(15,520,l)
);
},
{
closed = 1;
nodes = (
(633,0,l),
(633,660,l),
(443,660,l),
(443,0,l)
);
},
{
closed = 1;
nodes = (
(751,520,l),
(751,670,l),
(325,670,l),
(325,520,l)
);
}
);
width = 766;
}
);
metricLeft = "te-cy";
metricRight = "te-cy";
},
{
glyphname = "yeru_kadescender-cy";
lastChange = "2025-03-31 09:43:43 +0000";
layers = (
{
hints = (
{
name = _corner.Lower;
origin = (3,0);
type = Corner;
}
);
layerId = m002;
shapes = (
{
closed = 1;
nodes = (
(125,0,ls),
(169,0,o),
(212,30,o),
(212,110,cs),
(212,305,ls),
(212,377,o),
(177,411,o),
(106,411,cs),
(63,411,l),
(70,406,l),
(70,670,l),
(20,670,l),
(20,0,l)
);
},
{
closed = 1;
nodes = (
(70,384,l),
(64,373,l),
(97,373,ls),
(141,373,o),
(160,361,o),
(160,328,cs),
(160,95,ls),
(160,50,o),
(125,38,o),
(88,38,cs),
(59,38,l),
(70,24,l)
);
},
{
closed = 1;
nodes = (
(292,0,l),
(292,670,l),
(242,670,l),
(242,0,l)
);
},
{
closed = 1;
nodes = (
(430,0,l),
(430,38,l),
(330,396,l),
(313,310,l),
(428,670,l),
(382,670,l),
(268,310,l),
(282,397,l),
(384,0,l)
);
}
);
width = 466;
},
{
hints = (
{
name = _corner.Lower;
origin = (3,0);
type = Corner;
}
);
layerId = m01;
shapes = (
{
closed = 1;
nodes = (
(286,0,ls),
(403,0,o),
(462,48,o),
(462,234,cs),
(462,277,ls),
(462,402,o),
(410,462,o),
(289,462,cs),
(199,462,l),
(212,450,l),
(212,670,l),
(22,670,l),
(22,0,l)
);
},
{
closed = 1;
nodes = (
(212,325,l),
(204,314,l),
(221,314,ls),
(253,314,o),
(272,301,o),
(272,261,cs),
(272,197,ls),
(272,165,o),
(259,150,o),
(234,150,cs),
(201,150,l),
(212,135,l)
);
},
{
closed = 1;
nodes = (
(681,0,l),
(681,670,l),
(491,670,l),
(491,0,l)
);
},
{
closed = 1;
nodes = (
(924,0,l),
(924,124,l),
(826,386,l),
(817,300,l),
(932,670,l),
(761,670,l),
(653,300,l),
(657,387,l),
(774,0,l)
);
}
);
width = 996;
}
);
metricLeft = "yeru-cy";
metricRight = "kadescender-cy";
},
{
color = 5;
glyphname = zero;
lastChange = "2024-10-20 21:53:18 +0000";
layers = (
{
layerId = m01;
shapes = (
{
closed = 1;
nodes = (
(340,-10,o),
(484,1,o),
(484,148,cs),
(484,662,ls),
(484,820,o),
(340,830,o),
(248,830,cs),
(156,830,o),
(14,820,o),
(14,662,cs),
(14,148,ls),
(14,1,o),
(156,-10,o),
(248,-10,cs)
);
},
{
closed = 1;
nodes = (
(234,154,o),
(204,158,o),
(204,201,cs),
(204,619,ls),
(204,658,o),
(229,666,o),
(248,666,cs),
(267,666,o),
(294,658,o),
(294,619,cs),
(294,201,ls),
(294,158,o),
(262,154,o),
(248,154,cs)
);
}
);
width = 498;
},
{
layerId = m002;
shapes = (
{
closed = 1;
nodes = (
(175,-10,o),
(246,0,o),
(246,100,cs),
(246,720,ls),
(246,820,o),
(175,830,o),
(132,830,cs),
(89,830,o),
(18,820,o),
(18,720,cs),
(18,100,ls),
(18,0,o),
(89,-10,o),
(132,-10,cs)
);
},
{
closed = 1;
nodes = (
(96,30,o),
(71,41,o),
(71,95,cs),
(71,725,ls),
(71,779,o),
(96,790,o),
(132,790,cs),
(168,790,o),
(193,779,o),
(193,725,cs),
(193,95,ls),
(193,41,o),
(168,30,o),
(132,30,cs)
);
}
);
width = 264;
}
);
unicode = 48;
},
{
color = 5;
glyphname = one;
lastChange = "2024-10-20 22:05:08 +0000";
layers = (
{
layerId = m01;
shapes = (
{
closed = 1;
nodes = (
(27,744,l),
(27,590,l),
(148,640,l),
(148,0,l),
(348,0,l),
(348,820,l),
(148,820,l)
);
}
);
width = 384;
},
{
layerId = m002;
shapes = (
{
closed = 1;
nodes = (
(27,734,l),
(27,678,l),
(118,754,l),
(118,0,l),
(170,0,l),
(170,820,l),
(118,820,l)
);
}
);
width = 200;
}
);
unicode = 49;
},
{
color = 5;
glyphname = two;
lastChange = "2024-10-20 22:05:08 +0000";
layers = (
{
layerId = m01;
shapes = (
{
closed = 1;
nodes = (
(476,0,l),
(476,160,l),
(259,160,l),
(396,334,ls),
(445,396,o),
(476,506,o),
(476,586,cs),
(476,637,ls),
(476,820,o),
(332,830,o),
(240,830,cs),
(148,830,o),
(16,820,o),
(16,662,cs),
(16,556,l),
(206,556,l),
(206,619,ls),
(206,658,o),
(221,666,o),
(240,666,cs),
(259,666,o),
(276,658,o),
(276,619,c),
(276,537,ls),
(276,484,o),
(249,424,o),
(209,378,cs),
(20,160,l),
(20,0,l)
);
}
);
width = 496;
},
{
associatedMasterId = m01;
layerId = "7EDC938A-B327-4976-97BA-5E3FE80C4DEB";
name = "27 Apr 24 at 12:52";
shapes = (
{
closed = 1;
nodes = (
(476,0,l),
(476,160,l),
(259,160,l),
(331,256,o),
(476,388,o),
(476,556,cs),
(476,637,ls),
(476,820,o),
(332,830,o),
(240,830,cs),
(148,830,o),
(16,820,o),
(16,662,cs),
(16,556,l),
(206,556,l),
(206,619,ls),
(206,658,o),
(221,666,o),
(240,666,cs),
(259,666,o),
(276,658,o),
(276,619,c),
(276,537,ls),
(276,379,o),
(67,206,o),
(20,160,c),
(20,0,l)
);
}
);
width = 496;
},
{
layerId = m002;
shapes = (
{
closed = 1;
nodes = (
(236,0,l),
(236,40,l),
(82,40,l),
(176,337,ls),
(196,401,o),
(236,487,o),
(236,613,cs),
(236,711,ls),
(236,784,o),
(220,830,o),
(140,830,cs),
(35,830,o),
(27,750,o),
(27,692,cs),
(27,616,l),
(80,616,l),
(80,727,ls),
(80,782,o),
(102,790,o),
(133,790,cs),
(164,790,o),
(183,782,o),
(183,727,cs),
(183,618,ls),
(183,505,o),
(154,436,o),
(138,387,cs),
(27,40,l),
(27,0,l)
);
}
);
width = 256;
},
{
associatedMasterId = m002;
layerId = "9E47B576-A11E-48E8-BB94-DF5AFA8EF163";
name = "27 Apr 24 at 12:52";
shapes = (
{
closed = 1;
nodes = (
(476,0,l),
(476,160,l),
(259,160,l),
(331,256,o),
(476,388,o),
(476,556,cs),
(476,637,ls),
(476,820,o),
(332,830,o),
(240,830,cs),
(148,830,o),
(16,820,o),
(16,662,cs),
(16,556,l),
(206,556,l),
(206,619,ls),
(206,658,o),
(221,666,o),
(240,666,cs),
(259,666,o),
(276,658,o),
(276,619,c),
(276,537,ls),
(276,379,o),
(67,206,o),
(20,160,c),
(20,0,l)
);
}
);
width = 496;
}
);
unicode = 50;
},
{
color = 5;
glyphname = three;
lastChange = "2024-10-20 22:05:08 +0000";
layers = (
{
layerId = m01;
shapes = (
{
closed = 1;
nodes = (
(332,-10,o),
(464,17,o),
(464,208,cs),
(464,313,ls),
(464,437,o),
(336,452,o),
(251,452,c),
(250,410,l),
(326,410,o),
(464,426,o),
(464,556,cs),
(464,660,ls),
(464,813,o),
(332,830,o),
(240,830,cs),
(158,830,o),
(14,820,o),
(14,662,cs),
(14,556,l),
(204,556,l),
(204,619,ls),
(204,658,o),
(225,666,o),
(238,666,cs),
(274,666,o),
(274,640,o),
(274,596,cs),
(274,566,ls),
(274,513,o),
(261,506,o),
(179,506,c),
(179,353,l),
(261,353,o),
(274,340,o),
(274,278,cs),
(274,245,ls),
(274,190,o),
(274,154,o),
(237,154,cs),
(225,154,o),
(204,162,o),
(204,201,cs),
(204,284,l),
(14,284,l),
(14,158,ls),
(14,0,o),
(158,-10,o),
(240,-10,cs)
);
}
);
width = 478;
},
{
layerId = m002;
shapes = (
{
closed = 1;
nodes = (
(209,-10,o),
(230,38,o),
(230,150,cs),
(230,339,ls),
(230,443,o),
(185,474,o),
(83,474,c),
(83,453,l),
(178,453,o),
(230,490,o),
(230,596,cs),
(230,733,ls),
(230,792,o),
(197,830,o),
(122,830,cs),
(38,830,o),
(18,782,o),
(18,672,cs),
(18,616,l),
(71,616,l),
(71,672,ls),
(71,749,o),
(79,790,o),
(124,790,cs),
(165,790,o),
(177,763,o),
(177,727,cs),
(177,573,ls),
(177,494,o),
(91,481,o),
(37,481,c),
(37,443,l),
(103,443,o),
(177,436,o),
(177,327,cs),
(177,105,ls),
(177,60,o),
(171,30,o),
(123,30,cs),
(79,30,o),
(71,58,o),
(71,125,cs),
(71,234,l),
(18,234,l),
(18,138,ls),
(18,37,o),
(44,-10,o),
(126,-10,cs)
);
}
);
width = 248;
}
);
metricLeft = "=zero";
metricRight = "=zero";
unicode = 51;
},
{
color = 5;
glyphname = four;
lastChange = "2025-04-21 19:23:54 +0000";
layers = (
{
layerId = m01;
shapes = (
{
closed = 1;
nodes = (
(20,208,l),
(514,208,l),
(514,368,l),
(208,368,l),
(269,660,l),
(288,660,l),
(288,0,l),
(478,0,l),
(478,820,l),
(166,820,l),
(20,368,l)
);
}
);
width = 530;
},
{
layerId = m002;
shapes = (
{
closed = 1;
nodes = (
(10,301,l),
(289,301,l),
(289,341,l),
(61,341,l),
(162,780,l),
(181,780,l),
(181,0,l),
(233,0,l),
(233,820,l),
(119,820,l),
(10,350,l)
);
}
);
width = 303;
}
);
unicode = 52;
},
{
color = 5;
glyphname = five;
lastChange = "2024-10-20 22:05:08 +0000";
layers = (
{
layerId = m01;
shapes = (
{
closed = 1;
nodes = (
(215,680,l),
(192,660,l),
(466,660,l),
(466,820,l),
(25,820,l),
(25,374,l),
(215,374,l),
(215,389,o),
(222,400,o),
(242,400,cs),
(272,400,o),
(275,374,o),
(275,333,cs),
(275,197,ls),
(275,154,o),
(259,150,o),
(245,150,cs),
(231,150,o),
(215,154,o),
(215,197,cs),
(215,284,l),
(25,284,l),
(25,174,ls),
(25,32,o),
(126,-10,o),
(245,-10,cs),
(337,-10,o),
(465,23,o),
(465,156,cs),
(465,381,ls),
(465,523,o),
(373,554,o),
(303,554,cs),
(258,554,o),
(222,544,o),
(192,512,c),
(215,501,l)
);
}
);
width = 494;
},
{
layerId = m002;
shapes = (
{
closed = 1;
nodes = (
(72,794,l),
(57,780,l),
(231,780,l),
(231,820,l),
(20,820,l),
(20,449,l),
(72,449,l),
(72,495,o),
(96,516,o),
(128,516,cs),
(176,516,o),
(179,482,o),
(179,441,cs),
(179,77,ls),
(179,34,o),
(149,30,o),
(126,30,cs),
(104,30,o),
(72,34,o),
(72,77,cs),
(72,234,l),
(20,234,l),
(20,83,ls),
(20,17,o),
(52,-10,o),
(126,-10,cs),
(213,-10,o),
(232,48,o),
(232,117,cs),
(232,449,ls),
(232,523,o),
(197,556,o),
(135,556,cs),
(96,556,o),
(69,539,o),
(52,515,c),
(72,501,l)
);
}
);
width = 256;
}
);
unicode = 53;
},
{
color = 5;
glyphname = six;
lastChange = "2024-10-20 21:59:37 +0000";
layers = (
{
layerId = m01;
shapes = (
{
closed = 1;
nodes = (
(330,-10,o),
(464,1,o),
(464,148,cs),
(464,364,ls),
(464,489,o),
(370,506,o),
(315,506,cs),
(262,506,o),
(220,479,o),
(185,452,c),
(185,329,l),
(200,337,o),
(215,346,o),
(230,346,cs),
(263,346,o),
(274,335,o),
(274,299,cs),
(274,201,ls),
(274,158,o),
(252,154,o),
(238,154,cs),
(224,154,o),
(204,158,o),
(204,201,cs),
(204,619,ls),
(204,658,o),
(219,666,o),
(238,666,cs),
(257,666,o),
(274,658,o),
(274,619,cs),
(274,556,l),
(464,556,l),
(464,662,ls),
(464,820,o),
(330,830,o),
(238,830,cs),
(146,830,o),
(14,820,o),
(14,662,cs),
(14,148,ls),
(14,1,o),
(146,-10,o),
(238,-10,cs)
);
}
);
width = 478;
},
{
layerId = m002;
shapes = (
{
closed = 1;
nodes = (
(168,-10,o),
(232,0,o),
(232,80,cs),
(232,465,ls),
(232,542,o),
(178,556,o),
(149,556,cs),
(107,556,o),
(83,541,o),
(62,528,c),
(62,485,l),
(77,498,o),
(90,515,o),
(126,515,cs),
(166,515,o),
(179,495,o),
(179,443,cs),
(179,96,ls),
(179,41,o),
(164,30,o),
(125,30,cs),
(86,30,o),
(71,41,o),
(71,96,cs),
(71,725,ls),
(71,779,o),
(86,790,o),
(125,790,cs),
(164,790,o),
(179,779,o),
(179,725,cs),
(179,606,l),
(232,606,l),
(232,740,ls),
(232,820,o),
(168,830,o),
(125,830,cs),
(82,830,o),
(18,820,o),
(18,740,cs),
(18,80,ls),
(18,0,o),
(82,-10,o),
(125,-10,cs)
);
}
);
width = 250;
}
);
metricLeft = "=zero";
metricRight = "=zero";
unicode = 54;
},
{
color = 5;
glyphname = seven;
lastChange = "2024-10-20 22:00:03 +0000";
layers = (
{
layerId = m01;
shapes = (
{
closed = 1;
nodes = (
(34,0,l),
(222,0,l),
(455,660,l),
(455,820,l),
(10,820,l),
(10,660,l),
(267,660,l)
);
}
);
width = 475;
},
{
layerId = m002;
shapes = (
{
closed = 1;
nodes = (
(38,0,l),
(92,0,l),
(255,780,l),
(255,820,l),
(10,820,l),
(10,780,l),
(201,780,l)
);
}
);
width = 275;
}
);
metricRight = "=two";
unicode = 55;
},
{
color = 5;
glyphname = eight;
lastChange = "2024-10-20 22:01:47 +0000";
layers = (
{
layerId = m01;
shapes = (
{
closed = 1;
nodes = (
(326,-10,o),
(454,1,o),
(454,138,cs),
(454,315,ls),
(454,436,o),
(311,465,o),
(256,465,c),
(256,391,l),
(311,391,o),
(454,406,o),
(454,520,cs),
(454,682,ls),
(454,819,o),
(326,830,o),
(234,830,cs),
(142,830,o),
(14,819,o),
(14,682,cs),
(14,520,ls),
(14,413,o),
(135,391,o),
(199,391,c),
(199,465,l),
(136,465,o),
(14,420,o),
(14,315,cs),
(14,138,ls),
(14,1,o),
(142,-10,o),
(234,-10,cs)
);
},
{
closed = 1;
nodes = (
(220,154,o),
(204,158,o),
(204,201,cs),
(204,305,ls),
(204,344,o),
(215,352,o),
(234,352,cs),
(253,352,o),
(264,344,o),
(264,305,cs),
(264,201,ls),
(264,158,o),
(248,154,o),
(234,154,cs)
);
},
{
closed = 1;
nodes = (
(215,512,o),
(204,520,o),
(204,559,cs),
(204,619,ls),
(204,662,o),
(220,666,o),
(234,666,cs),
(248,666,o),
(264,662,o),
(264,619,cs),
(264,559,ls),
(264,520,o),
(253,512,o),
(234,512,cs)
);
}
);
width = 468;
},
{
layerId = m002;
shapes = (
{
closed = 1;
nodes = (
(219,-10,o),
(232,52,o),
(232,138,cs),
(232,324,ls),
(232,414,o),
(148,434,o),
(130,434,c),
(130,422,l),
(184,422,o),
(230,425,o),
(230,534,cs),
(230,682,ls),
(230,775,o),
(218,830,o),
(126,830,cs),
(34,830,o),
(20,776,o),
(20,682,cs),
(20,520,ls),
(20,453,o),
(80,422,o),
(115,422,c),
(115,434,l),
(46,434,o),
(18,385,o),
(18,315,cs),
(18,138,ls),
(18,45,o),
(35,-10,o),
(124,-10,cs)
);
},
{
closed = 1;
nodes = (
(104,30,o),
(71,34,o),
(71,77,cs),
(71,360,ls),
(71,399,o),
(97,407,o),
(125,407,cs),
(153,407,o),
(179,399,o),
(179,353,cs),
(179,81,ls),
(179,34,o),
(150,30,o),
(127,30,cs)
);
},
{
closed = 1;
nodes = (
(100,447,o),
(73,455,o),
(73,494,cs),
(73,743,ls),
(73,786,o),
(104,790,o),
(125,790,cs),
(146,790,o),
(177,786,o),
(177,743,cs),
(177,499,ls),
(177,460,o),
(152,447,o),
(126,447,cs)
);
}
);
width = 250;
}
);
metricLeft = "=zero";
metricRight = "=zero";
unicode = 56;
},
{
color = 5;
glyphname = nine;
lastChange = "2024-10-20 22:02:53 +0000";
layers = (
{
layerId = m01;
shapes = (
{
closed = 1;
nodes = (
(332,-10,o),
(464,0,o),
(464,158,cs),
(464,672,ls),
(464,819,o),
(332,830,o),
(240,830,cs),
(148,830,o),
(14,819,o),
(14,672,cs),
(14,485,ls),
(14,360,o),
(108,343,o),
(163,343,cs),
(216,343,o),
(258,370,o),
(293,397,c),
(293,520,l),
(278,512,o),
(263,503,o),
(248,503,cs),
(215,503,o),
(204,514,o),
(204,550,cs),
(204,619,ls),
(204,662,o),
(226,666,o),
(240,666,cs),
(254,666,o),
(274,662,o),
(274,619,cs),
(274,201,ls),
(274,162,o),
(259,154,o),
(240,154,cs),
(221,154,o),
(204,162,o),
(204,201,cs),
(204,284,l),
(14,284,l),
(14,158,ls),
(14,0,o),
(148,-10,o),
(240,-10,cs)
);
}
);
width = 478;
},
{
layerId = m002;
shapes = (
{
closed = 1;
nodes = (
(168,-10,o),
(232,0,o),
(232,80,cs),
(232,740,ls),
(232,820,o),
(168,830,o),
(125,830,cs),
(82,830,o),
(18,820,o),
(18,740,cs),
(18,434,ls),
(18,357,o),
(72,343,o),
(101,343,cs),
(143,343,o),
(167,358,o),
(188,371,c),
(188,414,l),
(173,401,o),
(160,384,o),
(124,384,cs),
(84,384,o),
(71,404,o),
(71,456,cs),
(71,725,ls),
(71,779,o),
(86,790,o),
(125,790,cs),
(164,790,o),
(179,779,o),
(179,725,cs),
(179,95,ls),
(179,41,o),
(164,30,o),
(125,30,cs),
(86,30,o),
(71,41,o),
(71,95,cs),
(71,234,l),
(18,234,l),
(18,80,ls),
(18,0,o),
(82,-10,o),
(125,-10,cs)
);
}
);
width = 250;
}
);
metricLeft = "=zero";
metricRight = "=zero";
unicode = 57;
},
{
glyphname = period;
lastChange = "2024-04-27 16:09:37 +0000";
layers = (
{
layerId = m01;
shapes = (
{
closed = 1;
nodes = (
(192,-14,o),
(230,15,o),
(230,87,cs),
(230,157,o),
(192,186,o),
(131,186,cs),
(68,186,o),
(30,157,o),
(30,87,cs),
(30,15,o),
(68,-14,o),
(131,-14,cs)
);
}
);
width = 260;
},
{
layerId = m002;
shapes = (
{
closed = 1;
nodes = (
(87,-14,o),
(102,-2,o),
(102,28,cs),
(102,56,o),
(87,68,o),
(62,68,cs),
(36,68,o),
(20,56,o),
(20,28,cs),
(20,-2,o),
(36,-14,o),
(62,-14,cs)
);
}
);
width = 122;
}
);
unicode = 46;
},
{
glyphname = comma;
lastChange = "2024-04-27 16:11:21 +0000";
layers = (
{
layerId = m01;
shapes = (
{
closed = 1;
nodes = (
(18,-69,l),
(152,-69,l),
(204,174,l),
(60,174,l)
);
}
);
width = 224;
},
{
layerId = m002;
shapes = (
{
closed = 1;
nodes = (
(18,-69,l),
(62,-69,l),
(102,64,l),
(48,64,l)
);
}
);
width = 122;
}
);
unicode = 44;
},
{
glyphname = exclam;
lastChange = "2024-10-21 14:18:38 +0000";
layers = (
{
layerId = m01;
shapes = (
{
closed = 1;
nodes = (
(39,234,l),
(235,234,l),
(235,820,l),
(39,820,l)
);
},
{
closed = 1;
nodes = (
(200,-14,o),
(240,16,o),
(240,92,cs),
(240,166,o),
(200,196,o),
(136,196,cs),
(70,196,o),
(30,166,o),
(30,92,cs),
(30,16,o),
(70,-14,o),
(136,-14,cs)
);
}
);
width = 270;
},
{
layerId = m002;
shapes = (
{
closed = 1;
nodes = (
(28,184,l),
(80,184,l),
(80,820,l),
(28,820,l)
);
},
{
closed = 1;
nodes = (
(82,-10,o),
(98,3,o),
(98,34,cs),
(98,63,o),
(82,76,o),
(56,76,cs),
(29,76,o),
(12,63,o),
(12,34,cs),
(12,3,o),
(29,-10,o),
(56,-10,cs)
);
}
);
width = 108;
}
);
unicode = 33;
},
{
glyphname = question;
lastChange = "2024-10-21 14:19:17 +0000";
layers = (
{
layerId = m01;
shapes = (
{
closed = 1;
nodes = (
(324,234,l),
(324,254,ls),
(324,369,o),
(477,437,o),
(477,572,cs),
(477,637,ls),
(477,820,o),
(336,830,o),
(244,830,cs),
(152,830,o),
(20,820,o),
(20,662,cs),
(20,556,l),
(210,556,l),
(210,619,ls),
(210,658,o),
(225,666,o),
(244,666,cs),
(263,666,o),
(280,658,o),
(280,619,cs),
(280,562,ls),
(280,471,o),
(130,390,o),
(130,273,cs),
(130,234,l)
);
},
{
closed = 1;
nodes = (
(289,-14,o),
(329,16,o),
(329,92,cs),
(329,166,o),
(289,196,o),
(225,196,cs),
(159,196,o),
(119,166,o),
(119,92,cs),
(119,16,o),
(159,-14,o),
(225,-14,cs)
);
}
);
width = 502;
},
{
layerId = m002;
shapes = (
{
closed = 1;
nodes = (
(149,184,l),
(149,304,ls),
(149,405,o),
(232,487,o),
(232,576,cs),
(232,711,ls),
(232,784,o),
(216,830,o),
(128,830,cs),
(28,830,o),
(20,750,o),
(20,692,cs),
(20,616,l),
(73,616,l),
(73,727,ls),
(73,782,o),
(88,790,o),
(128,790,cs),
(162,790,o),
(179,782,o),
(179,727,cs),
(179,586,ls),
(179,505,o),
(97,409,o),
(97,315,cs),
(97,184,l)
);
},
{
closed = 1;
nodes = (
(151,-10,o),
(167,3,o),
(167,34,cs),
(167,63,o),
(151,76,o),
(125,76,cs),
(98,76,o),
(81,63,o),
(81,34,cs),
(81,3,o),
(98,-10,o),
(125,-10,cs)
);
}
);
width = 252;
}
);
unicode = 63;
},
{
export = 0;
glyphname = slash;
lastChange = "2024-10-29 15:26:07 +0000";
layers = (
{
layerId = m01;
width = 600;
},
{
layerId = m002;
shapes = (
{
closed = 1;
nodes = (
(40,-90,l),
(92,-90,l),
(242,820,l),
(190,820,l)
);
}
);
width = 282;
}
);
unicode = 47;
},
{
glyphname = hyphen;
lastChange = "2024-10-22 05:38:23 +0000";
layers = (
{
layerId = m01;
shapes = (
{
closed = 1;
nodes = (
(30,291,l),
(300,291,l),
(300,461,l),
(30,461,l)
);
}
);
width = 330;
},
{
layerId = m002;
shapes = (
{
closed = 1;
nodes = (
(20,365,l),
(170,365,l),
(170,411,l),
(20,411,l)
);
}
);
width = 190;
}
);
unicode = 45;
},
{
glyphname = endash;
lastChange = "2024-10-22 05:38:06 +0000";
layers = (
{
layerId = m01;
shapes = (
{
closed = 1;
nodes = (
(30,299,l),
(465,299,l),
(465,461,l),
(30,461,l)
);
}
);
width = 495;
},
{
layerId = m002;
shapes = (
{
closed = 1;
nodes = (
(40,369,l),
(340,369,l),
(340,409,l),
(40,409,l)
);
}
);
width = 380;
}
);
unicode = 8211;
},
{
glyphname = emdash;
lastChange = "2024-10-22 05:37:56 +0000";
layers = (
{
layerId = m01;
shapes = (
{
closed = 1;
nodes = (
(30,299,l),
(585,299,l),
(585,461,l),
(30,461,l)
);
}
);
width = 615;
},
{
layerId = m002;
shapes = (
{
closed = 1;
nodes = (
(40,369,l),
(473,369,l),
(473,409,l),
(40,409,l)
);
}
);
width = 513;
}
);
unicode = 8212;
},
{
glyphname = underscore;
lastChange = "2024-10-22 05:37:15 +0000";
layers = (
{
layerId = m01;
shapes = (
{
closed = 1;
nodes = (
(30,-130,l),
(465,-130,l),
(465,0,l),
(30,0,l)
);
}
);
width = 495;
},
{
layerId = m002;
shapes = (
{
closed = 1;
nodes = (
(40,-40,l),
(340,-40,l),
(340,0,l),
(40,0,l)
);
}
);
width = 380;
}
);
unicode = 95;
},
{
export = 0;
glyphname = parenleft;
lastChange = "2024-10-29 15:26:20 +0000";
layers = (
{
layerId = m01;
width = 600;
},
{
layerId = m002;
shapes = (
{
closed = 1;
nodes = (
(147,790,o),
(147,830,o),
(147,830,cs),
(104,830,o),
(40,780,o),
(40,700,cs),
(40,80,ls),
(40,0,o),
(104,-60,o),
(147,-60,cs),
(147,-60,o),
(147,-20,o),
(147,-20,cs),
(118,-7,o),
(93,41,o),
(93,95,cs),
(93,685,ls),
(93,739,o),
(108,780,o),
(147,790,cs)
);
}
);
width = 167;
}
);
unicode = 40;
},
{
glyphname = "brevecomb-cy";
lastChange = "2024-04-27 15:02:58 +0000";
layers = (
{
anchors = (
{
name = _top;
pos = (261,820);
}
);
layerId = m01;
shapes = (
{
closed = 1;
nodes = (
(301,972,l),
(300,939,o),
(285,934,o),
(261,934,cs),
(237,934,o),
(222,939,o),
(221,972,c),
(69,972,l),
(69,854,o),
(166,840,o),
(261,840,cs),
(356,840,o),
(461,854,o),
(461,972,c)
);
}
);
width = 522;
},
{
anchors = (
{
name = _top;
pos = (261,670);
}
);
guides = (
{
pos = (117,713);
},
{
pos = (117,790);
}
);
layerId = m002;
shapes = (
{
closed = 1;
nodes = (
(301,788,l),
(300,764,o),
(285,753,o),
(261,753,cs),
(237,753,o),
(222,764,o),
(221,788,c),
(172,788,l),
(172,729,o),
(195,713,o),
(261,713,cs),
(316,713,o),
(350,729,o),
(350,788,c)
);
}
);
width = 522;
}
);
unicode = 63188;
},
{
glyphname = dotaccentcomb;
lastChange = "2024-04-27 13:57:10 +0000";
layers = (
{
anchors = (
{
name = _top;
pos = (117,670);
}
);
layerId = m01;
shapes = (
{
closed = 1;
nodes = (
(181,691,o),
(221,699,o),
(221,758,cs),
(221,816,o),
(181,824,o),
(117,824,cs),
(52,824,o),
(12,816,o),
(12,758,cs),
(12,699,o),
(52,691,o),
(117,691,cs)
);
}
);
width = 238;
},
{
anchors = (
{
name = _top;
pos = (117,670);
}
);
layerId = m002;
shapes = (
{
closed = 1;
nodes = (
(140,713,o),
(155,724,o),
(155,752,cs),
(155,779,o),
(140,790,o),
(117,790,cs),
(93,790,o),
(78,779,o),
(78,752,cs),
(78,724,o),
(93,713,o),
(117,713,cs)
);
}
);
width = 238;
}
);
unicode = 775;
},
{
glyphname = dieresiscomb.case;
lastChange = "2024-10-22 05:39:22 +0000";
layers = (
{
anchors = (
{
name = _top;
pos = (200,820);
}
);
layerId = m01;
shapes = (
{
closed = 1;
nodes = (
(357,842,o),
(392,850,o),
(392,909,cs),
(392,967,o),
(357,975,o),
(302,975,cs),
(246,975,o),
(211,967,o),
(211,909,cs),
(211,850,o),
(246,842,o),
(302,842,cs)
);
},
{
closed = 1;
nodes = (
(162,842,o),
(197,850,o),
(197,909,cs),
(197,967,o),
(162,975,o),
(107,975,cs),
(51,975,o),
(16,967,o),
(16,909,cs),
(16,850,o),
(51,842,o),
(107,842,cs)
);
}
);
width = 400;
},
{
anchors = (
{
name = _top;
pos = (200,670);
}
);
layerId = m002;
shapes = (
{
closed = 1;
nodes = (
(283,718,o),
(296,728,o),
(296,752,cs),
(296,775,o),
(283,785,o),
(263,785,cs),
(242,785,o),
(229,775,o),
(229,752,cs),
(229,728,o),
(242,718,o),
(263,718,cs)
);
},
{
closed = 1;
nodes = (
(158,718,o),
(171,728,o),
(171,752,cs),
(171,775,o),
(158,785,o),
(138,785,cs),
(117,785,o),
(104,775,o),
(104,752,cs),
(104,728,o),
(117,718,o),
(138,718,cs)
);
}
);
width = 400;
}
);
},
{
export = 0;
glyphname = _corner.Lower;
lastChange = "2024-04-27 15:08:01 +0000";
layers = (
{
anchors = (
{
name = left;
pos = (323,0);
},
{
name = origin;
pos = (156,0);
},
{
name = right;
pos = (156,124);
}
);
layerId = m01;
shapes = (
{
closed = 0;
nodes = (
(343,0,l),
(264,0,l),
(264,-113,l),
(94,-113,l),
(94,124,l),
(156,124,l)
);
}
);
width = 554;
},
{
anchors = (
{
name = left;
pos = (203,0);
},
{
name = origin;
pos = (124,0);
},
{
name = right;
pos = (124,38);
}
);
layerId = m002;
shapes = (
{
closed = 0;
nodes = (
(203,0,l),
(144,0,l),
(144,-113,l),
(94,-113,l),
(94,38,l),
(124,38,l)
);
}
);
width = 554;
}
);
},
